<?xml version="1.0" encoding="UTF-8"?>
<!-- Generator: Adobe Illustrator 26.4.1, SVG Export Plug-In . SVG Version: 6.00 Build 0)  -->
<svg xmlns="http://www.w3.org/2000/svg" xmlns:xlink="http://www.w3.org/1999/xlink" version="1.1" id="Layer_1" x="0px" y="0px" viewBox="0 0 1000 331.3" style="enable-background:new 0 0 1000 331.3;" xml:space="preserve">
<style type="text/css">
	.st0{fill:url(#SVGID_1_);}
	.st1{fill:#FF3500;}
	.st2{fill:url(#SVGID_00000072247173234081959820000000635416635031503508_);}
	.st3{fill:url(#SVGID_00000031917841064739676920000015228125283107021955_);}
	.st4{fill:url(#SVGID_00000083055650319756991130000013435268745144379550_);}
	.st5{fill:url(#SVGID_00000102530791811516258830000013066756452097630897_);}
	.st6{fill:url(#SVGID_00000129197237469975781530000003547832813530960300_);}
	.st7{fill:url(#SVGID_00000057133736075759143940000010095451204313024909_);}
	.st8{fill:url(#SVGID_00000031172072807576093100000006380184957052256956_);}
</style>
<g>
	<linearGradient id="SVGID_1_" gradientUnits="userSpaceOnUse" x1="906.5668" y1="41.2273" x2="404.7822" y2="330.9328">
		<stop offset="1.198743e-03" style="stop-color:#004DAD"></stop>
		<stop offset="1" style="stop-color:#1D1EA0"></stop>
	</linearGradient>
	<path class="st0" d="M381.22,234.62c-10.57,0-19.89-2.28-27.94-6.83c-8.06-4.55-14.36-10.83-18.91-18.82   c-4.55-7.99-6.83-17.15-6.83-27.46c0-11.27,2.23-21.08,6.69-29.42c4.46-8.34,10.6-14.82,18.44-19.44   c7.83-4.62,16.84-6.92,27.03-6.92c10.83,0,20.03,2.55,27.61,7.64c7.58,5.1,13.18,12.26,16.81,21.49c3.63,9.23,4.9,20.09,3.82,32.57   h-25.7v-9.55c0-10.51-1.67-18.07-5.01-22.69c-3.34-4.62-8.8-6.93-16.38-6.93c-8.85,0-15.36,2.69-19.53,8.07   c-4.17,5.38-6.26,13.32-6.26,23.83c0,9.62,2.08,17.05,6.26,22.31c4.17,5.25,10.3,7.88,18.39,7.88c5.09,0,9.46-1.11,13.09-3.34   c3.63-2.23,6.4-5.44,8.31-9.65l25.98,7.45c-3.88,9.43-10.02,16.75-18.39,21.97C400.31,232.01,391.16,234.62,381.22,234.62z    M347.03,187.43v-19.3h68.4v19.3H347.03z M491.27,234.62c-9.49,0-17.8-2.39-24.93-7.16c-7.13-4.78-12.69-11.27-16.67-19.49   c-3.98-8.22-5.97-17.48-5.97-27.8c0-10.51,2.02-19.85,6.07-28.04c4.04-8.18,9.73-14.63,17.05-19.34   c7.32-4.71,15.92-7.07,25.79-7.07c9.81,0,18.05,2.39,24.74,7.16c6.69,4.78,11.75,11.27,15.19,19.49s5.16,17.48,5.16,27.8   c0,10.32-1.74,19.58-5.21,27.8c-3.47,8.22-8.64,14.71-15.52,19.49C510.08,232.23,501.52,234.62,491.27,234.62z M495.47,211.5   c5.79,0,10.43-1.31,13.9-3.92c3.47-2.61,5.97-6.27,7.5-10.99s2.29-10.19,2.29-16.43c0-6.24-0.76-11.72-2.29-16.43   c-1.53-4.71-3.96-8.37-7.31-10.99c-3.34-2.61-7.72-3.92-13.14-3.92c-5.8,0-10.56,1.42-14.28,4.25c-3.73,2.83-6.48,6.62-8.26,11.37   c-1.78,4.75-2.67,9.98-2.67,15.71c0,5.8,0.86,11.07,2.58,15.81c1.72,4.75,4.36,8.52,7.93,11.32   C485.28,210.1,489.86,211.5,495.47,211.5z M519.16,231.75v-70.69h-3.25V94.2h26.17v137.56H519.16z M557.37,148.65v-20.06h73.36   v20.06H557.37z M630.73,231.75c-7.13,1.34-14.12,1.93-20.97,1.77c-6.85-0.16-12.96-1.37-18.34-3.63   c-5.38-2.26-9.47-5.91-12.27-10.94c-2.55-4.71-3.89-9.51-4.01-14.38c-0.13-4.87-0.19-10.4-0.19-16.57V99.93h25.98v86.55   c0,4.01,0.05,7.63,0.14,10.84c0.1,3.22,0.75,5.78,1.96,7.69c2.29,3.63,5.95,5.6,10.99,5.92c5.03,0.32,10.6,0.06,16.72-0.76V231.75z    M695.88,234.62c-10.57,0-19.89-2.28-27.94-6.83c-8.06-4.55-14.36-10.83-18.91-18.82c-4.55-7.99-6.83-17.15-6.83-27.46   c0-11.27,2.23-21.08,6.69-29.42c4.46-8.34,10.6-14.82,18.43-19.44c7.83-4.62,16.84-6.92,27.03-6.92c10.83,0,20.03,2.55,27.61,7.64   c7.58,5.1,13.18,12.26,16.81,21.49c3.63,9.23,4.9,20.09,3.82,32.57h-25.7v-9.55c0-10.51-1.67-18.07-5.02-22.69   c-3.34-4.62-8.8-6.93-16.38-6.93c-8.85,0-15.36,2.69-19.54,8.07c-4.17,5.38-6.26,13.32-6.26,23.83c0,9.62,2.09,17.05,6.26,22.31   c4.17,5.25,10.3,7.88,18.39,7.88c5.09,0,9.46-1.11,13.09-3.34c3.63-2.23,6.4-5.44,8.31-9.65l25.98,7.45   c-3.89,9.43-10.02,16.75-18.39,21.97C714.97,232.01,705.81,234.62,695.88,234.62z M661.68,187.43v-19.3h68.4v19.3H661.68z    M809.55,234.62c-10.7,0-19.87-2.39-27.51-7.16c-7.64-4.78-13.5-11.27-17.58-19.49c-4.08-8.22-6.11-17.48-6.11-27.8   c0-10.44,2.12-19.77,6.35-27.99c4.23-8.22,10.2-14.68,17.91-19.39c7.71-4.71,16.81-7.07,27.32-7.07c12.16,0,22.37,3.07,30.61,9.22   c8.25,6.15,13.52,14.54,15.81,25.17l-25.98,6.88c-1.53-5.35-4.19-9.52-7.98-12.51c-3.79-2.99-8.07-4.49-12.85-4.49   c-5.48,0-9.97,1.32-13.47,3.96c-3.5,2.64-6.08,6.24-7.74,10.79c-1.66,4.55-2.48,9.7-2.48,15.43c0,8.98,1.99,16.26,5.97,21.83   c3.98,5.57,9.89,8.36,17.72,8.36c5.86,0,10.32-1.34,13.37-4.01c3.06-2.67,5.35-6.5,6.88-11.46l26.56,5.54   c-2.93,10.95-8.47,19.39-16.62,25.31C831.58,231.66,821.52,234.62,809.55,234.62z M875.27,231.75V94.2h23.12v70.69h3.25v66.87   H875.27z M945.77,231.75v-48.72c0-2.35-0.13-5.36-0.38-9.03c-0.26-3.66-1.05-7.34-2.39-11.03c-1.34-3.69-3.52-6.78-6.54-9.27   c-3.02-2.48-7.31-3.73-12.85-3.73c-2.23,0-4.62,0.35-7.16,1.05c-2.55,0.7-4.94,2.05-7.16,4.06c-2.23,2.01-4.06,4.95-5.49,8.84   c-1.43,3.89-2.15,9.04-2.15,15.47l-14.9-7.07c0-8.15,1.66-15.79,4.97-22.93c3.31-7.13,8.29-12.9,14.95-17.29   c6.65-4.39,15.05-6.59,25.17-6.59c8.09,0,14.68,1.37,19.77,4.11c5.09,2.74,9.06,6.21,11.89,10.41c2.83,4.2,4.85,8.58,6.07,13.14   c1.21,4.55,1.94,8.71,2.2,12.47c0.25,3.76,0.38,6.5,0.38,8.22v57.89H945.77z"></path>
	<g>
		<g>
			<path class="st1" d="M114.88,88.18v15.02c0,1.5,1.13,2.75,2.62,2.91c53.32,5.68,77.48,33.58,81.54,38.75     c0.4,0.52,0.62,1.15,0.62,1.81v93.55c0,2.35-2.62,3.73-4.57,2.42c-33.89-22.84-66.8-25.76-77.19-26.09     c-1.65-0.05-3.01,1.27-3.01,2.93v15.92c0,1.47,1.09,2.7,2.54,2.9c25.45,3.44,65.14,15.89,100.73,57.23     c1.77,2.05,5.14,0.8,5.14-1.91V145.05c0-5.89-2.04-11.6-5.81-16.12c-11.35-13.63-40.69-40.04-99.49-43.68     C116.31,85.15,114.88,86.49,114.88,88.18z"></path>
		</g>
		<g>
			
				<linearGradient id="SVGID_00000019639013208644098020000017499619259767845541_" gradientUnits="userSpaceOnUse" x1="64.2148" y1="159.1075" x2="138.0267" y2="159.1075">
				<stop offset="0" style="stop-color:#FF1300"></stop>
				<stop offset="1" style="stop-color:#FF3500"></stop>
			</linearGradient>
			<path style="fill:url(#SVGID_00000019639013208644098020000017499619259767845541_);" d="M130.71,156.41h-12.54     c-0.86,0-1.68-0.38-2.23-1.03L99.86,136.4c0.02-0.16,0.05-0.31,0.05-0.47v-23.99c0-4.04-3.27-7.31-7.31-7.31H71.53     c-4.04,0-7.31,3.27-7.31,7.31v21.07c0,4.04,3.27,7.31,7.31,7.31h22.33c0.86,0,1.68,0.38,2.23,1.03l16.19,19.1     c-0.01,0.11-0.03,0.22-0.03,0.34v12.51c0,0.72-0.27,1.42-0.75,1.96L96.11,192.4c-0.56,0.62-1.35,0.97-2.18,0.97h-8.48     c-3.18,0-5.76,2.58-5.76,5.76v8.69c0,3.18,2.58,5.76,5.76,5.76h8.69c3.18,0,5.76-2.58,5.76-5.76v-9.45     c0-0.72,0.27-1.42,0.75-1.96l12.1-13.46c0.71-0.79,1.79-1.15,2.82-0.9c0.34,0.08,0.69,0.13,1.06,0.13h14.08     c4.04,0,7.31-3.27,7.31-7.31v-11.15C138.03,159.69,134.75,156.41,130.71,156.41z"></path>
			
				<linearGradient id="SVGID_00000076603752581188342350000008731015691113356420_" gradientUnits="userSpaceOnUse" x1="77.0068" y1="178.7229" x2="87.1162" y2="178.7229">
				<stop offset="0" style="stop-color:#FF1300"></stop>
				<stop offset="1" style="stop-color:#FF3500"></stop>
			</linearGradient>
			<path style="fill:url(#SVGID_00000076603752581188342350000008731015691113356420_);" d="M87.12,180.03v-2.62     c0-2.07-1.68-3.74-3.74-3.74h-2.62c-2.07,0-3.74,1.68-3.74,3.74v2.62c0,2.07,1.68,3.74,3.74,3.74h2.62     C85.44,183.78,87.12,182.1,87.12,180.03z"></path>
			
				<linearGradient id="SVGID_00000072242756569805717960000006170987202946599847_" gradientUnits="userSpaceOnUse" x1="36.0099" y1="170.2133" x2="47.9397" y2="170.2133">
				<stop offset="0" style="stop-color:#FF1300"></stop>
				<stop offset="1" style="stop-color:#FF3500"></stop>
			</linearGradient>
			<path style="fill:url(#SVGID_00000072242756569805717960000006170987202946599847_);" d="M36.01,170v0.44     c0,3.17,2.57,5.75,5.75,5.75h0.44c3.17,0,5.75-2.57,5.75-5.75V170c0-3.17-2.57-5.75-5.75-5.75h-0.44     C38.58,164.25,36.01,166.82,36.01,170z"></path>
			
				<linearGradient id="SVGID_00000091735289880529332410000003309955814130247083_" gradientUnits="userSpaceOnUse" x1="27.8689" y1="140.4857" x2="44.5119" y2="140.4857">
				<stop offset="0" style="stop-color:#FF1300"></stop>
				<stop offset="1" style="stop-color:#FF3500"></stop>
			</linearGradient>
			<path style="fill:url(#SVGID_00000091735289880529332410000003309955814130247083_);" d="M44.51,143.06v-5.15     c0-3.17-2.57-5.75-5.75-5.75h-5.15c-3.17,0-5.75,2.57-5.75,5.75v5.15c0,3.17,2.57,5.75,5.75,5.75h5.15     C41.94,148.81,44.51,146.23,44.51,143.06z"></path>
			
				<linearGradient id="SVGID_00000004504256269020055060000005894114352294456706_" gradientUnits="userSpaceOnUse" x1="58.8489" y1="156.3786" x2="68.7535" y2="156.3786">
				<stop offset="0" style="stop-color:#FF1300"></stop>
				<stop offset="1" style="stop-color:#FF3500"></stop>
			</linearGradient>
			<path style="fill:url(#SVGID_00000004504256269020055060000005894114352294456706_);" d="M63.8,151.43L63.8,151.43     c-2.74,0-4.95,2.22-4.95,4.95v0c0,2.74,2.22,4.95,4.95,4.95h0c2.74,0,4.95-2.22,4.95-4.95v0     C68.75,153.64,66.54,151.43,63.8,151.43z"></path>
			
				<linearGradient id="SVGID_00000179641320682637238150000005297001382777200540_" gradientUnits="userSpaceOnUse" x1="32.2" y1="201.277" x2="56.8237" y2="201.277">
				<stop offset="0" style="stop-color:#FF1300"></stop>
				<stop offset="1" style="stop-color:#FF3500"></stop>
			</linearGradient>
			<path style="fill:url(#SVGID_00000179641320682637238150000005297001382777200540_);" d="M49.51,188.97h-10     c-4.04,0-7.31,3.27-7.31,7.31v10c0,4.04,3.27,7.31,7.31,7.31h10c4.04,0,7.31-3.27,7.31-7.31v-10     C56.82,192.24,53.55,188.97,49.51,188.97z"></path>
		</g>
		
			<linearGradient id="SVGID_00000116926427325878412060000004499874113386799546_" gradientUnits="userSpaceOnUse" x1="159.4343" y1="138.131" x2="291.8616" y2="138.131">
			<stop offset="0" style="stop-color:#FA1600"></stop>
			<stop offset="1" style="stop-color:#FF3500"></stop>
		</linearGradient>
		<path style="fill:url(#SVGID_00000116926427325878412060000004499874113386799546_);" d="M159.43,90.25v150.81    c0,2.71,3.37,3.97,5.14,1.91c50.86-59.08,110.09-59.16,124.17-58.25c1.69,0.11,3.12-1.23,3.12-2.92V35.42    c0-1.57-1.24-2.86-2.81-2.93C209.63,29.1,174.22,64.6,163.32,78.77C160.79,82.06,159.43,86.1,159.43,90.25z M265.38,163.98    c-9.77,0.25-43.26,2.87-77.74,26.1c-1.95,1.31-4.57-0.08-4.57-2.42V94.11c0-0.66,0.22-1.29,0.62-1.81    c4.05-5.16,28.14-33,81.3-38.73c1.73-0.19,3.24,1.17,3.24,2.91v104.57C268.23,162.64,266.97,163.94,265.38,163.98z"></path>
	</g>
</g>
</svg>
