<svg width="94" height="66" viewBox="0 0 94 66" fill="none" xmlns="http://www.w3.org/2000/svg">
<path opacity="0.3" d="M93.2989 0.0791016L73.2329 5.5837L77.6299 9.9584L63.9543 23.5164L63.1067 22.7078C62.1089 21.7502 60.7877 21.207 59.408 21.1871H59.3174C57.9719 21.1864 56.6728 21.6818 55.6665 22.5793L39.2621 37.2083L37.258 35.7089C36.3095 34.9942 35.1554 34.6089 33.9697 34.6112C32.7015 34.6136 31.4729 35.0542 30.4896 35.8589L-5.88416 65.3691L6.28339 65.7226L34.0389 43.3018L36.107 44.8494C37.1214 45.6042 38.363 45.9862 39.6241 45.9317C40.8852 45.8771 42.0895 45.3891 43.0355 44.5495L59.2534 30.0919L60.1915 30.9861C61.2248 31.9806 62.6041 32.5301 64.0349 32.5171C65.4658 32.5041 66.8348 31.9297 67.85 30.9166L83.3059 15.5969L88.0119 20.2822L93.2989 0.0791016Z" fill="#14B1C2"/>
<rect x="20.203" y="22.8301" width="58.8559" height="36.4741" fill="white"/>
<path d="M66.3286 26.3232H76.8693V60.0537H24.1655V26.3232H34.7063" fill="#CCF4F9"/>
<path d="M66.3286 26.3232H76.8693V60.0537H24.1655V26.3232H34.7063" stroke="#14B1C2" stroke-width="1.78766" stroke-linecap="round" stroke-linejoin="round"/>
<path d="M62.1122 60.0534H38.9225V22.1067L50.5173 15.7822L62.1122 22.1067V60.0534Z" fill="#CCF4F9" stroke="#14B1C2" stroke-width="1.78766" stroke-linecap="round" stroke-linejoin="round"/>
<path d="M50.5167 30.5393C52.2632 30.5393 53.679 29.1235 53.679 27.3771C53.679 25.6306 52.2632 24.2148 50.5167 24.2148C48.7703 24.2148 47.3545 25.6306 47.3545 27.3771C47.3545 29.1235 48.7703 30.5393 50.5167 30.5393Z" fill="white" stroke="#14B1C2" stroke-width="1.78766" stroke-linecap="round" stroke-linejoin="round"/>
<path d="M50.5173 15.7817V3.13281" stroke="#14B1C2" stroke-width="1.78766" stroke-linecap="round" stroke-linejoin="round"/>
<path d="M57.8959 5.24121H50.5173V9.45752H57.8959V5.24121Z" fill="white" stroke="#14B1C2" stroke-width="1.78766" stroke-linecap="round" stroke-linejoin="round"/>
<path d="M55.7872 45.2969H45.2465V55.8376H55.7872V45.2969Z" fill="white" stroke="#14B1C2" stroke-width="1.78766" stroke-linecap="round" stroke-linejoin="round"/>
<path d="M57.8955 55.8369H43.1384V60.0532H57.8955V55.8369Z" fill="white" stroke="#14B1C2" stroke-width="1.78766" stroke-linecap="round" stroke-linejoin="round"/>
<path d="M24.1655 32.6475H34.7063" stroke="#14B1C2" stroke-width="1.78766" stroke-linecap="round" stroke-linejoin="round"/>
<path d="M28.4924 36.9229L32.6372 36.9229" stroke="white" stroke-width="1.78766" stroke-linecap="round" stroke-linejoin="round"/>
<path d="M28.4924 36.9229L28.4924 56.8178" stroke="white" stroke-width="1.78766" stroke-linecap="round" stroke-linejoin="round"/>
<path d="M66.3282 32.6475H76.869" stroke="#14B1C2" stroke-width="1.78766" stroke-linecap="round" stroke-linejoin="round"/>
<path d="M50.5173 45.2969V55.8376" stroke="#14B1C2" stroke-width="1.78766" stroke-linecap="round" stroke-linejoin="round"/>
<path d="M22.0575 60.0537H78.9776" stroke="#14B1C2" stroke-width="1.78766" stroke-linecap="round" stroke-linejoin="round"/>
</svg>
