<svg width="112" height="66" viewBox="0 0 112 66" fill="none" xmlns="http://www.w3.org/2000/svg">
<path d="M14.257 15.5916C14.6326 14.2257 16.4319 13.921 17.2252 15.0889L22.6249 23.0378C22.946 23.5105 23.4886 23.7829 24.0602 23.7583L33.609 23.348C35.0075 23.2879 35.839 24.8836 34.9927 26.0034L29.1574 33.7238C28.8158 34.1758 28.727 34.7701 28.9218 35.3003L32.2632 44.393C32.7488 45.7145 31.4689 47.0082 30.1448 46.5342L21.1761 43.3237C20.6341 43.1296 20.0291 43.2321 19.5787 43.5942L12.1274 49.5858C11.0273 50.4704 9.40186 49.6688 9.43715 48.2591L9.67997 38.5593C9.69413 37.9936 9.41953 37.461 8.95146 37.1461L0.956431 31.7681C-0.203125 30.9881 0.0713001 29.205 1.41309 28.801L10.5747 26.0423C11.1231 25.8772 11.5488 25.4408 11.7008 24.888L14.257 15.5916Z" fill="#CBE9F8"/>
<path d="M103.761 32.3566C104.69 31.2877 106.444 31.7914 106.654 33.1876L106.992 35.4344C107.077 35.9995 107.449 36.4799 107.974 36.705L110.077 37.6051C111.364 38.156 111.423 39.9544 110.175 40.5977L108.091 41.6725C107.588 41.9322 107.25 42.4295 107.197 42.9918L106.975 45.3116C106.841 46.7131 105.127 47.3256 104.139 46.3254L102.561 44.7292C102.156 44.3197 101.566 44.1503 101.004 44.2819L98.8101 44.795C97.4355 45.1165 96.3169 43.6906 96.9587 42.4349L98.021 40.3565C98.2784 39.8527 98.2613 39.2537 97.9756 38.7673L96.7929 36.7542C96.0849 35.5493 97.1038 34.0605 98.4883 34.2768L100.75 34.6302C101.316 34.7186 101.889 34.5094 102.265 34.0767L103.761 32.3566Z" fill="#CBE9F8"/>
<path d="M88.3158 28.7918C88.3158 28.7013 88.3098 28.6109 88.298 28.5212C87.84 25.0433 84.7014 22.8603 80.2489 21.5074C75.6663 20.115 68.8401 19.3139 59.3239 19.1697C45.5659 18.8766 38.2575 20.9069 34.3347 23.4165C32.3364 24.6949 31.2095 26.1038 30.6027 27.372C29.9955 28.6411 29.9741 29.6347 29.9741 29.955V53.206C29.9741 55.4023 31.3676 57.5426 33.5478 59.2108C35.778 60.9173 39.0539 62.3275 43.4481 63.0933C44.0509 63.1984 44.6693 63.0317 45.1376 62.6379C45.6059 62.2441 45.8763 61.6636 45.8763 61.0517V52.0427C45.8763 50.2307 47.3923 48.9401 49.5894 48.8844C50.6307 48.858 51.558 49.1546 52.1812 49.6547C52.7483 50.1098 53.1974 50.8321 53.1974 52.0427V61.0517C53.1974 62.1962 54.1253 63.1241 55.2698 63.1241H63.3024C64.4469 63.1241 65.3748 62.1962 65.3748 61.0517V52.0427C65.3748 50.8108 65.8224 50.0878 66.3615 49.6464C66.9514 49.1632 67.8261 48.8819 68.8083 48.9205C70.8217 48.9995 72.4045 50.2668 72.4045 52.3384V61.0517C72.4045 61.6615 72.6731 62.2403 73.1387 62.6341C73.6043 63.0278 74.2197 63.1966 74.821 63.0953C79.3272 62.3366 82.61 61.0134 84.8204 59.3772C87.0188 57.75 88.3158 55.67 88.3158 53.4922V28.7918Z" stroke="white" stroke-width="4.14478" stroke-linecap="round" stroke-linejoin="round"/>
<path d="M86.243 28.7918C85.6693 24.4351 78.2105 21.5278 59.2858 21.2417C32.0462 20.6602 32.0461 29.3735 32.0461 29.955V53.206C32.0461 55.8181 35.4887 59.6025 43.8035 61.0517V52.0427C43.8035 45.36 55.2695 44.7785 55.2695 52.0427V61.0517H63.302V52.0427C63.302 44.7785 74.4765 45.3603 74.4765 52.3384V61.0517C83.0828 59.6025 86.243 56.1136 86.243 53.4922V28.7918Z" fill="#D0F2FE" stroke="#0B9BE3" stroke-width="1.65791" stroke-linecap="round" stroke-linejoin="round"/>
<path d="M86.2433 28.7921C86.2433 33.158 75.6335 36.3516 59.0038 36.3516C42.374 36.3516 32.3379 33.1579 32.3379 28.5059" stroke="#0B9BE3" stroke-width="1.65791" stroke-linecap="round" stroke-linejoin="round"/>
<path d="M36.6365 7.58105L46.9549 11.3562L36.6365 16.5898" fill="#D3EAFF"/>
<path d="M36.6365 7.58105L46.9549 11.3562L36.6365 16.5898" stroke="#0B9BE3" stroke-width="1.65791" stroke-linecap="round" stroke-linejoin="round"/>
<path d="M59.5778 3.21484L69.8962 6.99925L59.5778 11.9374" fill="#D3EAFF"/>
<path d="M59.5778 3.21484L69.8962 6.99925L59.5778 11.9374" stroke="#0B9BE3" stroke-width="1.65791" stroke-linecap="round" stroke-linejoin="round"/>
<path d="M80.5056 7.58105L90.8332 11.3562L80.5056 16.5898" fill="#D3EAFF"/>
<path d="M80.5056 7.58105L90.8332 11.3562L80.5056 16.5898" stroke="#0B9BE3" stroke-width="1.65791" stroke-linecap="round" stroke-linejoin="round"/>
<path d="M36.2815 5.47754L36.2815 23.7207" stroke="#0B9BE3" stroke-width="1.65791" stroke-linecap="round" stroke-linejoin="round"/>
<path d="M80.5056 5.25488V23.2724" stroke="#0B9BE3" stroke-width="1.65791" stroke-linecap="round" stroke-linejoin="round"/>
<path d="M59.5685 1.18457V20.5009" stroke="#0B9BE3" stroke-width="1.65791" stroke-linecap="round" stroke-linejoin="round"/>
<ellipse cx="58.8839" cy="29.68" rx="21.7256" ry="5.18098" fill="#D0F2FE"/>
<path d="M79.3314 29.6797C79.3314 28.865 78.3833 28.1464 76.7755 27.5389M38.4366 29.6797C40.1948 25.2241 58.8902 24.447 70.3856 26.083" stroke="white" stroke-width="1.65791" stroke-linecap="round"/>
</svg>
