<svg width="95" height="81" viewBox="0 0 95 81" fill="none" xmlns="http://www.w3.org/2000/svg">
<path opacity="0.2" fill-rule="evenodd" clip-rule="evenodd" d="M69.5349 15.9227C64.3773 8.86188 58.7644 -5.06701 44.7098 1.89744C30.6552 8.86188 42.5929 41.8218 21.9937 30.9157C1.39445 20.0097 -5.90465 51.338 5.12237 63.3651C16.1494 75.3922 24.914 73.419 49.7584 73.419C74.6029 73.419 94.8552 72.4769 94.8552 45.0206C94.8552 17.5643 74.5359 22.7692 69.5349 15.9227Z" fill="#12AAB3"/>
<ellipse cx="47.1001" cy="40.206" rx="30.6429" ry="30.7353" fill="white"/>
<path d="M81.1131 54.4C80.859 54.4 80.6049 54.4 80.3507 54.1466C79.8425 53.64 79.0802 53.1333 78.5719 52.88C78.0637 52.6266 77.8096 51.8666 78.3178 51.6133C78.5719 51.1066 79.3343 50.8533 79.5884 51.36C80.3507 51.8666 81.1131 52.3733 81.8754 52.88C82.3837 53.1333 82.3837 53.8933 81.8754 54.4C81.6213 54.1466 81.3672 54.4 81.1131 54.4Z" fill="#12AAB3"/>
<path d="M70.9482 77.2C69.1694 76.9466 67.6447 76.6933 66.12 75.9333C65.6118 75.68 65.3577 75.1733 65.6118 74.6666C65.8659 74.16 66.3741 73.9066 66.8824 74.16C68.1529 74.6666 69.6776 75.1733 70.9482 75.4266C71.4565 75.4266 71.9647 75.9333 71.9647 76.44C71.9647 76.6933 71.4565 77.2 70.9482 77.2ZM75.7764 76.6933C75.2682 76.6933 75.0141 76.44 74.76 75.9333C74.5059 75.4266 75.0141 74.92 75.5223 74.6666C76.7929 74.4133 78.3176 73.6533 79.3341 72.8933C79.8423 72.64 80.3505 72.64 80.8588 73.1466C81.367 73.6533 81.1129 74.16 80.6046 74.6666C79.3341 75.68 77.8094 76.44 76.0306 76.9466C75.7764 76.6933 75.7764 76.6933 75.7764 76.6933ZM83.1458 71.3733C82.8917 71.3733 82.6376 71.3733 82.6376 71.12C82.1293 70.8666 82.1293 70.1066 82.3835 69.6C83.1458 68.3333 83.654 67.0666 84.1623 65.5466C84.4164 65.04 84.9246 64.7866 85.4329 64.7866C85.9411 65.04 86.1952 65.5466 86.1952 66.0533C85.687 67.8266 85.1787 69.3466 84.1623 70.6133C83.9082 71.3733 83.3999 71.3733 83.1458 71.3733ZM85.1787 62.5066C84.6705 62.5066 84.1623 62.2533 84.1623 61.4933C83.9082 59.9733 83.654 58.7066 82.8917 57.44C82.6376 56.9333 82.8917 56.4266 83.3999 56.1733C83.9082 55.92 84.4164 56.1733 84.6705 56.68C85.4329 58.2 85.9411 59.72 86.1952 61.4933C86.4493 62 85.9411 62.5066 85.1787 62.5066C85.4329 62.5066 85.4329 62.5066 85.1787 62.5066Z" fill="#12AAB3"/>
<path d="M62.5623 73.1466C62.3082 73.1466 62.0541 73.1466 61.8 72.8933C61.2917 72.1333 60.5294 71.6266 60.0212 70.8666C59.767 70.36 59.767 69.8533 60.2753 69.3466C60.7835 69.0933 61.2917 69.0933 61.8 69.6C62.3082 70.36 62.8165 70.8666 63.3247 71.3733C63.8329 71.88 63.5788 72.3866 63.3247 72.8933C63.0706 73.1466 62.8164 73.1466 62.5623 73.1466Z" fill="#12AAB3"/>
<path d="M46.0448 43.5067C44.5201 43.5067 42.9954 43 41.9789 41.9867L39.946 40.4667C38.6754 39.4533 37.659 37.9333 37.4048 36.16L37.1507 35.4C36.1343 34.3867 35.3719 33.3733 35.3719 32.36C35.1178 31.3467 35.3719 30.3333 36.1343 29.5733C36.1343 29.0667 36.1343 28.3067 36.1343 27.8C36.1343 25.2667 37.659 21.4667 40.4542 19.44C42.233 18.1733 44.0119 17.92 46.0448 18.4267C48.0777 17.92 50.1107 18.1733 51.8895 19.44C54.4306 21.2133 55.9553 24.5067 55.9553 27.5467C55.9553 28.0533 55.9553 28.8133 55.9553 29.5733C56.7177 30.3333 57.2259 31.3467 56.9718 32.36C56.7177 33.3733 56.2094 34.3867 55.193 35.4L54.9389 36.4133C54.6847 37.9333 53.6683 39.4533 52.1436 40.72L50.1107 42.24C49.0942 43 47.5695 43.5067 46.0448 43.5067ZM44.266 20.2C43.2495 20.2 42.4872 20.4533 41.7248 20.96C39.4378 22.7333 38.1672 26.0267 38.1672 27.8C38.1672 28.3067 38.1672 29.5733 38.1672 30.08C38.1672 30.3333 37.9131 30.84 37.659 31.0933C37.4048 31.0933 37.1507 31.3467 37.1507 31.8533C37.4048 32.6133 37.9131 33.3733 38.6754 34.1333C38.9295 34.3867 38.9295 34.3867 38.9295 34.64L39.1837 35.9067C39.4378 37.1733 40.2001 38.1867 41.2166 38.9467L43.2495 40.4667C44.7742 41.7333 47.3154 41.7333 48.8401 40.4667L50.873 38.9467C51.8895 38.1867 52.6518 37.1733 52.9059 35.9067L53.1601 34.64C53.1601 34.3867 53.4142 34.1333 53.4142 34.1333C54.1765 33.3733 54.6847 32.6133 54.9389 31.8533C54.9389 31.3467 54.6847 31.0933 54.4306 30.84C53.9224 30.5867 53.9224 30.3333 53.9224 29.8267C53.9224 29.32 53.9224 28.0533 53.9224 27.2933C53.9224 24.76 52.6518 22.2267 50.6189 20.7067C49.6024 19.9467 48.0777 19.44 46.2989 20.2C46.0448 20.2 45.7907 20.2 45.5366 20.2C45.2824 20.2 44.7742 20.2 44.266 20.2Z" fill="#12AAB3"/>
<path d="M54.6849 30.8398C54.4308 30.8398 54.4308 30.8398 54.1767 30.8398L52.9061 30.3331C50.1108 29.0665 47.8238 28.0531 46.045 26.2798C44.2662 28.0531 41.9791 29.0665 39.1838 30.3331L38.1674 30.5865C37.6591 30.8398 37.1509 30.5865 36.8968 30.0798C36.6427 29.5731 36.6427 29.0665 37.1509 28.8131L38.1674 28.3065C40.9626 27.0398 42.9956 26.0265 44.7744 24.5065C45.2826 23.9998 46.2991 23.9998 46.8073 24.5065C48.332 26.2798 50.8732 27.2931 53.4143 28.3065L54.6849 28.8131C55.1932 29.0665 55.4473 29.5731 55.1932 30.0798C55.4473 30.5865 54.939 30.8398 54.6849 30.8398Z" fill="#12AAB3"/>
<path d="M60.2755 55.1602C59.7673 55.1602 59.2591 54.6535 59.2591 54.1469C59.2591 48.3202 55.4473 43.5068 50.1109 41.7335C49.6026 41.4802 49.3485 40.9735 49.3485 40.4668C49.6026 39.9602 50.1109 39.7068 50.6191 39.7068C56.972 41.7335 61.292 47.5602 61.292 54.1469C61.292 54.6535 60.7837 55.1602 60.2755 55.1602Z" fill="#12AAB3"/>
<path d="M32.0683 55.16C31.5601 55.16 31.0519 54.6533 31.0519 54.1466C31.0519 47.56 35.1177 41.7333 41.4707 39.7066C41.9789 39.4533 42.4871 39.7066 42.7412 40.4666C42.9953 40.9733 42.7412 41.48 41.9789 41.7333C36.6424 43.5066 33.0848 48.5733 33.0848 54.1466C33.0848 54.6533 32.5766 55.16 32.0683 55.16Z" fill="#12AAB3"/>
<path d="M46.8071 70.36C46.2989 70.36 45.7906 69.8533 45.7906 69.3466C45.7906 68.84 46.2989 68.3333 46.8071 68.3333C62.8164 68.3333 75.7764 55.4133 75.7764 39.4533C75.7764 38.44 75.7764 37.4266 75.5223 36.4133C75.5223 35.9066 75.7764 35.4 76.5387 35.4C77.047 35.4 77.5552 35.6533 77.5552 36.4133C77.5552 37.4266 77.8093 38.44 77.8093 39.7066C77.5552 56.68 63.8329 70.36 46.8071 70.36Z" fill="#12AAB3" stroke="white" stroke-width="0.25"/>
<path d="M23.4284 59.2133C23.1743 59.2133 22.9202 58.96 22.6661 58.96C18.3461 53.3867 15.8049 46.5467 15.8049 39.7067C15.8049 22.7333 29.7813 8.79999 46.8071 8.79999C52.9059 8.79999 58.4965 10.5733 63.5788 13.6133C64.087 13.8667 64.087 14.6267 63.8329 15.1333C63.5788 15.64 62.8165 15.64 62.3082 15.3867C57.7341 12.3467 52.1436 10.8267 46.553 10.8267C30.7978 10.8267 17.8379 23.7467 17.8379 39.7067C17.8379 46.2933 20.1249 52.6267 24.1908 57.6933C24.4449 58.2 24.4449 58.7067 23.9367 59.2133C23.9367 59.2133 23.6825 59.2133 23.4284 59.2133Z" fill="#12AAB3" stroke="white" stroke-width="0.25"/>
<path d="M77.0468 31.0933C76.5385 31.0933 76.0303 30.5867 76.0303 30.08C75.5221 25.2667 72.4727 21.4667 68.6609 20.96C68.1527 20.96 67.8986 20.4533 67.8986 19.9467C67.8986 19.44 68.1527 18.9333 68.6609 18.9333C72.4727 18.1733 75.5221 14.3733 76.0303 9.81332C76.0303 9.30665 76.5385 8.79999 77.0468 8.79999C77.555 8.79999 78.0632 9.30665 78.0632 9.81332C78.5714 14.6267 81.6208 18.4267 85.4326 18.9333C85.9408 18.9333 86.1949 19.44 86.1949 19.9467C86.1949 20.4533 85.9408 20.96 85.4326 20.96C81.6208 21.72 78.5714 25.52 78.0632 30.08C78.0632 30.84 77.555 31.0933 77.0468 31.0933ZM71.7103 19.9467C73.9974 21.2133 75.7762 23.24 77.0468 26.0267C78.0632 23.4933 80.0961 21.2133 82.3832 19.9467C80.0961 18.68 78.3173 16.6533 77.0468 13.8667C76.0303 16.6533 73.9974 18.68 71.7103 19.9467Z" fill="#12AAB3"/>
<path d="M31.0519 77.2C30.5437 77.2 30.0354 76.6933 30.0354 76.1867C29.5272 72.1333 26.986 68.84 23.6825 68.3333C23.1743 68.3333 22.9202 67.8267 22.9202 67.32C22.9202 66.8133 23.1743 66.3067 23.6825 66.3067C26.986 65.8 29.5272 62.5067 30.0354 58.4533C30.0354 57.9467 30.5437 57.44 31.0519 57.44C31.5601 57.44 32.0684 57.9467 32.0684 58.4533C32.5766 62.5067 35.1178 65.8 38.4213 66.3067C38.9295 66.3067 39.1836 66.8133 39.1836 67.32C39.1836 67.8267 38.9295 68.3333 38.4213 68.3333C35.1178 68.84 32.5766 72.1333 32.0684 76.1867C32.0684 76.9467 31.5601 77.2 31.0519 77.2ZM26.986 67.5733C28.7648 68.5867 30.2895 70.36 31.306 72.3867C32.3225 70.36 33.8472 68.5867 35.626 67.5733C33.5931 66.3067 32.0684 64.7867 31.0519 62.5067C30.2895 64.7867 28.7648 66.3067 26.986 67.5733Z" fill="#12AAB3"/>
</svg>
