<svg xmlns="http://www.w3.org/2000/svg" width="111.5" height="75.912" viewBox="0 0 111.5 75.912">
    <defs>
        <style>
            .cls-1{fill:#fff}.cls-2{fill:none;stroke:#204c82;stroke-linecap:round;stroke-linejoin:round;stroke-width:1.5px}.cls-3{fill:#204c82}
        </style>
    </defs>
    <g id="Group_43" data-name="Group 43" transform="translate(-1328.791 -1758.368)">
        <g id="Group_42" data-name="Group 42">
            <g id="Group_32" data-name="Group 32">
                <rect id="Rectangle_20" width="10.379" height="44.499" class="cls-1" data-name="Rectangle 20" rx="1.667" transform="rotate(.295 -346749.686 277215.888)"/>
                <path id="Line_74" d="M0 0l5.595.024" class="cls-2" data-name="Line 74" transform="translate(1422.797 1802.877)"/>
                <path id="Line_75" d="M0 0l5.595.024" class="cls-2" data-name="Line 75" transform="translate(1422.833 1794.343)"/>
                <path id="Line_76" d="M0 0l5.595.024" class="cls-2" data-name="Line 76" transform="translate(1422.724 1819.946)"/>
                <path id="Line_77" d="M0 0l5.595.024" class="cls-2" data-name="Line 77" transform="translate(1422.687 1828.48)"/>
                <path id="Line_78" d="M0 0l5.595.024" class="cls-2" data-name="Line 78" transform="translate(1422.76 1811.411)"/>
                <path id="Line_79" d="M0 0l2.204.009" class="cls-2" data-name="Line 79" transform="translate(1422.779 1807.035)"/>
                <path id="Line_80" d="M0 0l2.204.009" class="cls-2" data-name="Line 80" transform="translate(1422.816 1798.282)"/>
                <path id="Line_81" d="M0 0l2.204.009" class="cls-2" data-name="Line 81" transform="translate(1422.741 1815.788)"/>
                <path id="Line_82" d="M0 0l2.204.009" class="cls-2" data-name="Line 82" transform="translate(1422.704 1824.541)"/>
            </g>
            <path id="Line_83" d="M110 0H0" class="cls-2" data-name="Line 83" transform="translate(1329.541 1833.529)"/>
            <g id="Group_34" data-name="Group 34">
                <g id="Group_33" data-name="Group 33">
                    <path id="Line_84" d="M1.432 1.31L0 0" class="cls-2" data-name="Line 84" transform="translate(1362.674 1773.365)"/>
                    <path id="Line_85" d="M3.805 0L0 4.16" class="cls-2" data-name="Line 85" transform="translate(1401.098 1768.861)"/>
                    <path id="Path_44" d="M1382.258 1766.19l-.32-7.035" class="cls-2" data-name="Path 44"/>
                    <path id="Line_86" d="M1.695 0L0 .076" class="cls-2" data-name="Line 86" transform="translate(1355.575 1793.51)"/>
                    <path id="Line_87" d="M7.029 0L0 .313" class="cls-2" data-name="Line 87" transform="translate(1409.586 1790.864)"/>
                    <path id="Line_88" d="M4.118 1.493L0 0" class="cls-2" data-name="Line 88" transform="translate(1408.044 1801.28)"/>
                    <path id="Line_89" d="M6.49 2.353L0 0" class="cls-2" data-name="Line 89" transform="translate(1352.319 1781.057)"/>
                    <path id="Line_90" d="M.734 0L0 2.023" class="cls-2" data-name="Line 90" transform="translate(1392.361 1765.701)"/>
                    <path id="Line_91" d="M0 0l1.854 3.969" class="cls-2" data-name="Line 91" transform="translate(1370.482 1764.652)"/>
                    <path id="Line_92" d="M3.973 0L0 1.858" class="cls-2" data-name="Line 92" transform="translate(1355.73 1803.432)"/>
                    <path id="Line_93" d="M1.68 0L0 .785" class="cls-2" data-name="Line 93" transform="translate(1407.151 1780.466)"/>
                </g>
                <path id="Path_45" d="M1401.688 1791.193c-.118-10.177-6.162-17.074-18.634-17.5s-16.646 8.237-16.856 17.276a17.7 17.7 0 0 0 6.354 14.035 9.519 9.519 0 0 1 3.328 7.206l16.6-.193a9.544 9.544 0 0 1 3.172-7.291 17.7 17.7 0 0 0 6.036-13.533z" class="cls-1" data-name="Path 45"/>
                <rect id="Rectangle_21" width="21.453" height="3.636" class="cls-2" data-name="Rectangle 21" rx="1.52" transform="rotate(-.666 156601.49 -117219.268)"/>
                <rect id="Rectangle_22" width="19.302" height="3.636" class="cls-2" data-name="Rectangle 22" rx="1.52" transform="rotate(-.666 156913.731 -117313.637)"/>
                <path id="Path_46" d="M1376.181 1819.595s3.83 13.871 7.192 13.832 8.253-14.012 8.253-14.012z" class="cls-2" data-name="Path 46"/>
                <path id="Path_47" d="M1379.8 1829.793a7.313 7.313 0 0 1 7.107-.083s-1.825 3.693-3.511 3.713-3.596-3.63-3.596-3.63z" class="cls-3" data-name="Path 47"/>
                <path id="Path_48" d="M1381.318 1812.263s1.942-20.258-2.809-24.874-6.839 5.9-3.252 9.031 15.331 2.917 18.236-.954.293-12.22-4.22-9.694-2.816 25.782-2.816 25.782" class="cls-2" data-name="Path 48"/>
            </g>
            <g id="Group_38" data-name="Group 38">
                <g id="Group_37" data-name="Group 37">
                    <g id="Group_35" data-name="Group 35">
                        <path id="Rectangle_23" d="M0 0h.961v2.035H0z" class="cls-1" data-name="Rectangle 23" transform="translate(1402.617 1831.407)"/>
                        <path id="Rectangle_24" d="M0 0h.961v2.035H0z" class="cls-1" data-name="Rectangle 24" transform="translate(1406.181 1831.409)"/>
                        <path id="Rectangle_25" d="M0 0h.961v2.035H0z" class="cls-1" data-name="Rectangle 25" transform="translate(1409.744 1831.412)"/>
                        <path id="Rectangle_26" d="M0 0h.961v2.035H0z" class="cls-1" data-name="Rectangle 26" transform="translate(1413.307 1831.414)"/>
                    </g>
                    <g id="Group_36" data-name="Group 36">
                        <path id="Rectangle_27" d="M0 0h1.838v.962H0z" class="cls-1" data-name="Rectangle 27" transform="translate(1416.321 1827.174)"/>
                        <path id="Rectangle_28" d="M0 0h1.838v.962H0z" class="cls-1" data-name="Rectangle 28" transform="translate(1416.323 1823.611)"/>
                        <path id="Rectangle_29" d="M0 0h1.838v.962H0z" class="cls-1" data-name="Rectangle 29" transform="translate(1416.325 1820.048)"/>
                    </g>
                    <path id="Path_49" d="M1397.33 1833.427l20.564.013a.279.279 0 0 0 .279-.279l.012-19.5-21.044 19.279a.279.279 0 0 0 .189.487zm16.724-4.311l-7.067-.005 7.071-6.478z" class="cls-2" data-name="Path 49"/>
                </g>
            </g>
            <g id="Group_39" data-name="Group 39">
                <path id="Line_94" d="M0 0v4.346" class="cls-2" data-name="Line 94" transform="translate(1400.233 1818.837)"/>
                <path id="Line_95" d="M4.346 0H0" class="cls-2" data-name="Line 95" transform="translate(1398.06 1821.01)"/>
            </g>
            <g id="Group_40" data-name="Group 40">
                <path id="Line_96" d="M1.823 0L0 1.823" class="cls-2" data-name="Line 96" transform="translate(1415.311 1807.484)"/>
                <path id="Line_97" d="M1.823 1.823L0 0" class="cls-2" data-name="Line 97" transform="translate(1415.311 1807.484)"/>
            </g>
            <circle id="Ellipse_18" cx="2.606" cy="2.606" r="2.606" class="cls-2" data-name="Ellipse 18" transform="translate(1402.406 1809.307)"/>
            <g id="Group_41" data-name="Group 41">
                <path id="Rectangle_30" d="M0 0h16.414v20.014H0z" class="cls-1" data-name="Rectangle 30" transform="translate(1336.473 1813.515)"/>
                <path id="Rectangle_31" d="M0 0h32.828v20.014H0z" class="cls-2" data-name="Rectangle 31" transform="translate(1336.473 1813.515)"/>
                <path id="Line_98" d="M0 0v19.9" class="cls-2" data-name="Line 98" transform="translate(1352.887 1813.572)"/>
                <path id="Rectangle_32" d="M0 0h32.828v2.344H0z" class="cls-2" data-name="Rectangle 32" transform="translate(1336.473 1811.171)"/>
                <path id="Line_99" d="M0 0h5.258" class="cls-2" data-name="Line 99" transform="translate(1356.862 1818.358)"/>
                <path id="Line_100" d="M0 0h8.656" class="cls-2" data-name="Line 100" transform="translate(1356.862 1823.351)"/>
                <path id="Line_101" d="M0 0h6.155" class="cls-2" data-name="Line 101" transform="translate(1356.862 1828.345)"/>
                <path id="Line_102" d="M8.695 0H0" class="cls-2" data-name="Line 102" transform="translate(1340.201 1818.358)"/>
                <path id="Line_103" d="M5.371 0H0" class="cls-2" data-name="Line 103" transform="translate(1340.335 1823.351)"/>
                <path id="Line_104" d="M7.525 0H0" class="cls-2" data-name="Line 104" transform="translate(1340.201 1828.345)"/>
            </g>
        </g>
    </g>
</svg>
