<svg width="90" height="73" viewBox="0 0 90 73" fill="none" xmlns="http://www.w3.org/2000/svg">
<path d="M4.54016 71.3125L81.5201 71.3125" stroke="#B363E4" stroke-width="1.65791" stroke-linecap="round" stroke-linejoin="round"/>
<path d="M72.2539 65.1099H53.9828C52.7647 65.1099 51.7903 64.1354 51.7903 62.9174V45.4583C51.7903 44.2402 52.7647 43.2656 53.9828 43.2656H72.2539C73.4719 43.2656 74.4465 44.2402 74.4465 45.4583V62.9174C74.5277 64.0542 73.5532 65.1099 72.2539 65.1099Z" fill="#E8D8F2"/>
<path d="M69.979 55.8527V61.0499H56.093V47.2451H67.4617" stroke="#B363E4" stroke-width="1.65791" stroke-miterlimit="10" stroke-linecap="round" stroke-linejoin="round"/>
<path d="M59.8282 54.2285L63.1576 57.558L71.8465 48.8691" stroke="#B363E4" stroke-width="1.65791" stroke-miterlimit="10" stroke-linecap="round" stroke-linejoin="round"/>
<path d="M55.3237 20.5469H21.3204V33.6251H55.3237L63.1707 27.086L55.3237 20.5469Z" fill="white" stroke="#B363E4" stroke-width="1.65791" stroke-linecap="round" stroke-linejoin="round"/>
<path d="M26.5524 11.765C26.5524 9.93376 28.0369 8.44922 29.8682 8.44922H33.6991C35.5304 8.44922 37.0149 9.93377 37.0149 11.765V71.2246H26.5524V11.765Z" fill="#E8D8F2" stroke="#B363E4" stroke-width="1.65791" stroke-linecap="round" stroke-linejoin="round"/>
<path d="M8.01125 40.8464C8.16023 40.7223 8.34801 40.6543 8.54194 40.6543H42.2451V53.7325H8.54194C8.34802 53.7325 8.16023 53.6645 8.01125 53.5404L1.15908 47.8302C0.761389 47.4988 0.761389 46.888 1.15908 46.5566L8.01125 40.8464Z" fill="#E8D8F2" stroke="#B363E4" stroke-width="1.65791" stroke-linecap="round" stroke-linejoin="round"/>
<path d="M12.0026 44.8105L9.14185 47.1945L12.0026 49.5785" stroke="#B363E4" stroke-width="1.65791" stroke-linecap="round" stroke-linejoin="round"/>
<path d="M30.2123 17.1553V27.6178" stroke="white" stroke-width="1.65791" stroke-linecap="round"/>
<path d="M53.428 27.0859L42.9654 27.0859" stroke="#B363E4" stroke-width="1.65791" stroke-linecap="round"/>
<path d="M30.2123 32.3174V34.933" stroke="white" stroke-width="1.65791" stroke-linecap="round"/>
<circle cx="31.7824" cy="47.1936" r="1.30782" fill="#E8D8F2" stroke="#B363E4" stroke-width="1.65791" stroke-linecap="round" stroke-linejoin="round"/>
<path d="M65.8831 19.5003C65.8831 19.5003 68.2951 15.1489 73.0231 14.4107C74.6169 14.1618 76.2199 14.5937 77.7667 15.0518L80.1023 15.7436C81.7638 16.2357 83.4609 16.7902 84.7494 17.9489C88.4614 21.2871 87.1271 25.7923 87.1271 25.7923L65.8831 19.5003Z" fill="#E8D8F2"/>
<rect width="12.9881" height="4.58404" transform="matrix(-0.958829 -0.283986 -0.283986 0.958829 89.2968 4.67676)" fill="#E8D8F2"/>
<rect width="7.64007" height="9.16809" transform="matrix(-0.958829 -0.283986 -0.283986 0.958829 85.3079 7.72363)" fill="#E8D8F2"/>
<path d="M79.0692 23.4062L73.9413 21.8875L72.0853 33.29L71.5104 37.2589L79.0692 23.4062Z" fill="#E8D8F2"/>
</svg>
