<svg width="84" height="82" viewBox="0 0 84 82" fill="none" xmlns="http://www.w3.org/2000/svg">
<path d="M79.4836 28.9986L80.4606 23.535C80.4965 23.3358 80.4928 23.1314 80.4496 22.9337C80.4064 22.736 80.3246 22.5487 80.2089 22.3826C80.0932 22.2165 79.9459 22.0749 79.7754 21.9658C79.6049 21.8568 79.4145 21.7825 79.2152 21.7471L76.7431 21.305C76.6247 20.1343 76.3738 18.9808 75.9952 17.8666L78.0511 16.4345C78.3863 16.2009 78.615 15.8438 78.6869 15.4416C78.7589 15.0394 78.6681 14.6251 78.4346 14.2899L75.262 9.73541C75.0284 9.40021 74.6713 9.1715 74.2691 9.09958C73.8669 9.02766 73.4526 9.11842 73.1174 9.3519L71.0787 10.7721C70.1626 10.0214 69.164 9.3777 68.1021 8.85331L68.5374 6.41876C68.6094 6.01652 68.5186 5.60218 68.285 5.26689C68.0514 4.9316 67.6942 4.70283 67.292 4.6309L61.8283 3.65385C61.4261 3.58192 61.0118 3.67272 60.6765 3.90629C60.3412 4.13985 60.1124 4.49704 60.0405 4.89928L59.6096 7.3088C58.4202 7.42522 57.2481 7.67794 56.1164 8.06197L54.7267 6.06962C54.4932 5.73442 54.136 5.50571 53.7338 5.43379C53.3317 5.36187 52.9174 5.45264 52.5821 5.68611L48.0277 8.85878C47.6925 9.09235 47.4637 9.44949 47.3918 9.85166C47.3199 10.2538 47.4107 10.6681 47.6442 11.0034L49.0146 12.9707C48.2511 13.9004 47.5984 14.9158 47.0699 15.9965L44.7125 15.575C44.3103 15.503 43.8959 15.5938 43.5606 15.8274C43.2254 16.061 42.9966 16.4181 42.9246 16.8204L41.9476 22.284C41.8757 22.6863 41.9665 23.1006 42.2 23.4359C42.4336 23.7712 42.7908 24 43.193 24.0719L45.5587 24.495C45.68 25.6919 45.9403 26.8706 46.3343 28.0072L44.367 29.3777C44.0318 29.6113 43.803 29.9684 43.7311 30.3706C43.6592 30.7727 43.75 31.187 43.9834 31.5223L47.1467 36.0815C47.3802 36.4167 47.7374 36.6454 48.1395 36.7174C48.5417 36.7893 48.956 36.6985 49.2912 36.465L51.2853 35.0778C52.2137 35.8302 53.2256 36.4735 54.3009 36.9949L53.8712 39.3982C53.8353 39.5974 53.839 39.8017 53.8822 39.9994C53.9254 40.1972 54.0072 40.3845 54.1229 40.5505C54.2386 40.7166 54.3859 40.8582 54.5564 40.9673C54.7269 41.0763 54.9173 41.1507 55.1166 41.186L60.5803 42.1631C60.7795 42.199 60.9838 42.1952 61.1815 42.152C61.3793 42.1088 61.5666 42.0271 61.7326 41.9114C61.8987 41.7957 62.0403 41.6483 62.1494 41.4778C62.2584 41.3073 62.3328 41.1169 62.3681 40.9177L62.8027 38.4873C63.9806 38.3634 65.1404 38.1057 66.2599 37.719L67.6745 39.7524C67.9081 40.0876 68.2652 40.3164 68.6674 40.3883C69.0696 40.4602 69.4838 40.3694 69.8191 40.1359L74.3736 36.9633C74.7088 36.7297 74.9375 36.3726 75.0094 35.9704C75.0813 35.5682 74.9906 35.154 74.7571 34.8187L73.3249 32.7628C74.0662 31.8489 74.7013 30.8538 75.2181 29.7967L77.6902 30.2388C77.8894 30.2755 78.094 30.2726 78.292 30.2301C78.4901 30.1876 78.6779 30.1064 78.8445 29.9912C79.0111 29.876 79.1534 29.729 79.263 29.5586C79.3727 29.3883 79.4477 29.198 79.4836 28.9986Z" fill="#AEEEE3"/>
<path d="M59.5043 32.4123C64.7524 33.3508 69.7676 29.8571 70.7061 24.6091C71.6445 19.361 68.1509 14.3458 62.9029 13.4073C57.6548 12.4688 52.6396 15.9624 51.7011 21.2105C50.7626 26.4586 54.2562 31.4738 59.5043 32.4123Z" fill="white"/>
<mask id="path-3-outside-1_328_11690" maskUnits="userSpaceOnUse" x="-0.608521" y="20.7803" width="58" height="53" fill="black">
<rect fill="white" x="-0.608521" y="20.7803" width="58" height="53"/>
<path d="M53.6631 43.2751V32.7586C53.6631 30.6426 52.8225 28.6133 51.3261 27.1171C49.8298 25.6208 47.8003 24.7803 45.6841 24.7803H11.3705C9.25434 24.7803 7.22484 25.6208 5.72848 27.1171C4.23212 28.6133 3.39148 30.6426 3.39148 32.7586V49.5575C3.39148 51.6735 4.23212 53.7028 5.72848 55.199C7.22484 56.6953 9.25434 57.5358 11.3705 57.5358H16.4418C16.6994 57.5363 16.9462 57.639 17.1282 57.8213C17.3101 58.0035 17.4123 58.2505 17.4123 58.5081V68.917C17.4118 69.1092 17.4684 69.2972 17.5749 69.4571C17.6814 69.6171 17.833 69.7419 18.0105 69.8156C18.1879 69.8894 18.3833 69.9087 18.5718 69.8713C18.7604 69.8339 18.9335 69.7413 19.0694 69.6053L30.8561 57.8197C31.038 57.6373 31.2849 57.5345 31.5426 57.534H33.8454"/>
</mask>
<path d="M53.6631 43.2751V32.7586C53.6631 30.6426 52.8225 28.6133 51.3261 27.1171C49.8298 25.6208 47.8003 24.7803 45.6841 24.7803H11.3705C9.25434 24.7803 7.22484 25.6208 5.72848 27.1171C4.23212 28.6133 3.39148 30.6426 3.39148 32.7586V49.5575C3.39148 51.6735 4.23212 53.7028 5.72848 55.199C7.22484 56.6953 9.25434 57.5358 11.3705 57.5358H16.4418C16.6994 57.5363 16.9462 57.639 17.1282 57.8213C17.3101 58.0035 17.4123 58.2505 17.4123 58.5081V68.917C17.4118 69.1092 17.4684 69.2972 17.5749 69.4571C17.6814 69.6171 17.833 69.7419 18.0105 69.8156C18.1879 69.8894 18.3833 69.9087 18.5718 69.8713C18.7604 69.8339 18.9335 69.7413 19.0694 69.6053L30.8561 57.8197C31.038 57.6373 31.2849 57.5345 31.5426 57.534H33.8454" fill="#CCF3EC"/>
<path d="M50.3473 43.2751C50.3473 45.1064 51.8318 46.5909 53.6631 46.5909C55.4944 46.5909 56.9789 45.1064 56.9789 43.2751H50.3473ZM45.6841 24.7803V28.0961V24.7803ZM3.39148 49.5575H0.0756524H3.39148ZM16.4418 57.5358L16.4482 54.22H16.4418V57.5358ZM17.4123 58.5081L14.0965 58.5081V58.5081H17.4123ZM17.4123 68.917L20.7281 68.9257V68.917H17.4123ZM19.0694 69.6053L16.7248 67.2606L16.7236 67.2618L19.0694 69.6053ZM30.8561 57.8197L33.2006 60.1645L33.2039 60.1611L30.8561 57.8197ZM31.5426 57.534V54.2181L31.536 54.2182L31.5426 57.534ZM33.8454 60.8498C35.6767 60.8498 37.1612 59.3653 37.1612 57.534C37.1612 55.7027 35.6767 54.2182 33.8454 54.2182V60.8498ZM56.9789 43.2751V32.7586H50.3473V43.2751H56.9789ZM56.9789 32.7586C56.9789 29.7631 55.7889 26.8903 53.6706 24.7723L48.9816 29.4618C49.8561 30.3362 50.3473 31.5221 50.3473 32.7586H56.9789ZM53.6706 24.7723C51.5524 22.6543 48.6796 21.4644 45.6841 21.4644V28.0961C46.9209 28.0961 48.1071 28.5874 48.9816 29.4618L53.6706 24.7723ZM45.6841 21.4644H11.3705V28.0961H45.6841V21.4644ZM11.3705 21.4644C8.37503 21.4644 5.50216 22.6543 3.38394 24.7723L8.07301 29.4618C8.94751 28.5874 10.1337 28.0961 11.3705 28.0961V21.4644ZM3.38394 24.7723C1.2657 26.8904 0.0756524 29.7631 0.0756524 32.7586H6.70731C6.70731 31.5221 7.19853 30.3362 8.07301 29.4618L3.38394 24.7723ZM0.0756524 32.7586V49.5575H6.70731V32.7586H0.0756524ZM0.0756524 49.5575C0.0756524 52.553 1.2657 55.4258 3.38394 57.5438L8.07301 52.8543C7.19853 51.9799 6.70731 50.794 6.70731 49.5575H0.0756524ZM3.38394 57.5438C5.50217 59.6618 8.37504 60.8517 11.3705 60.8517V54.22C10.1336 54.22 8.9475 53.7287 8.07301 52.8543L3.38394 57.5438ZM11.3705 60.8517H16.4418V54.22H11.3705V60.8517ZM16.4355 60.8517C15.8148 60.8505 15.22 60.6031 14.7814 60.1638L19.475 55.4787C18.6725 54.6748 17.5839 54.2222 16.4482 54.22L16.4355 60.8517ZM14.7814 60.1638C14.3429 59.7244 14.0965 59.129 14.0965 58.5081L20.7281 58.5081C20.7281 57.3721 20.2774 56.2826 19.475 55.4787L14.7814 60.1638ZM14.0965 58.5081V68.917H20.7281V58.5081H14.0965ZM14.0965 68.9083C14.0943 69.7572 14.3442 70.5876 14.8146 71.2944L20.3352 67.6199C20.5926 68.0067 20.7293 68.4611 20.7281 68.9257L14.0965 68.9083ZM14.8146 71.2944C15.285 72.0011 15.9546 72.5521 16.7384 72.8778L19.2825 66.7535C19.7114 66.9317 20.0778 67.2332 20.3352 67.6199L14.8146 71.2944ZM16.7384 72.8778C17.5223 73.2034 18.3852 73.289 19.2178 73.1236L17.9259 66.619C18.3815 66.5285 18.8536 66.5753 19.2825 66.7535L16.7384 72.8778ZM19.2178 73.1236C20.0503 72.9583 20.8151 72.5495 21.4151 71.9489L16.7236 67.2618C17.052 66.9331 17.4704 66.7095 17.9259 66.619L19.2178 73.1236ZM21.4139 71.9501L33.2006 60.1645L28.5115 55.475L16.7248 67.2606L21.4139 71.9501ZM33.2039 60.1611C32.7654 60.6009 32.1703 60.8486 31.5493 60.8498L31.536 54.2182C30.3996 54.2204 29.3106 54.6737 28.5082 55.4783L33.2039 60.1611ZM31.5426 60.8498H33.8454V54.2182H31.5426V60.8498Z" fill="white" mask="url(#path-3-outside-1_328_11690)"/>
<path d="M53.6631 43.2751V32.7586C53.6631 30.6426 52.8225 28.6133 51.3261 27.1171C49.8298 25.6208 47.8003 24.7803 45.6841 24.7803H11.3705C9.25434 24.7803 7.22484 25.6208 5.72848 27.1171C4.23212 28.6133 3.39148 30.6426 3.39148 32.7586V49.5575C3.39148 51.6735 4.23212 53.7028 5.72848 55.199C7.22484 56.6953 9.25434 57.5358 11.3705 57.5358H16.4418C16.6994 57.5363 16.9462 57.639 17.1282 57.8213C17.3101 58.0035 17.4123 58.2505 17.4123 58.5081V68.917C17.4118 69.1092 17.4684 69.2972 17.5749 69.4571C17.6814 69.6171 17.833 69.7419 18.0105 69.8156C18.1879 69.8894 18.3833 69.9087 18.5718 69.8713C18.7604 69.8339 18.9335 69.7413 19.0694 69.6053L30.8561 57.8197C31.038 57.6373 31.2849 57.5345 31.5426 57.534H33.8454" fill="#CCF3EC"/>
<path d="M53.6631 43.2751V32.7586C53.6631 30.6426 52.8225 28.6133 51.3261 27.1171C49.8298 25.6208 47.8003 24.7803 45.6841 24.7803H11.3705C9.25434 24.7803 7.22484 25.6208 5.72848 27.1171C4.23212 28.6133 3.39148 30.6426 3.39148 32.7586V49.5575C3.39148 51.6735 4.23212 53.7028 5.72848 55.199C7.22484 56.6953 9.25434 57.5358 11.3705 57.5358H16.4418C16.6994 57.5363 16.9462 57.639 17.1282 57.8213C17.3101 58.0035 17.4123 58.2505 17.4123 58.5081V68.917C17.4118 69.1092 17.4684 69.2972 17.5749 69.4571C17.6814 69.6171 17.833 69.7419 18.0105 69.8156C18.1879 69.8894 18.3833 69.9087 18.5718 69.8713C18.7604 69.8339 18.9335 69.7413 19.0694 69.6053L30.8561 57.8197C31.038 57.6373 31.2849 57.5345 31.5426 57.534H33.8454" stroke="#02B696" stroke-width="1.65791" stroke-linecap="round" stroke-linejoin="round"/>
<path d="M42.5487 28.4336C42.5487 28.4336 21.1486 28.4336 14.4314 28.4336C7.71425 28.4336 7.76051 34.0586 7.76051 39.3852" stroke="white" stroke-width="1.65791" stroke-linecap="round" stroke-linejoin="round"/>
<path d="M15.1263 48.4873H25.7941" stroke="#02B696" stroke-width="1.65791" stroke-linecap="round" stroke-linejoin="round"/>
<path d="M15.1021 42.041H30.6909" stroke="#02B696" stroke-width="1.65791" stroke-linecap="round" stroke-linejoin="round"/>
<path d="M15.1021 35.5938H41.9506" stroke="#02B696" stroke-width="1.65791" stroke-linecap="round" stroke-linejoin="round"/>
<path d="M51.8466 69.7895C51.7654 69.7561 51.6784 69.739 51.5906 69.7392L62.9681 77.5691V77.5673V71.3972H64.6206C65.5591 71.3972 66.4884 71.2123 67.3555 70.8532C68.2225 70.4941 69.0104 69.9677 69.674 69.3041C70.3377 68.6405 70.8641 67.8527 71.2233 66.9857C71.5825 66.1187 71.7673 65.1894 71.7673 64.2509V52.6954C71.7673 51.7569 71.5825 50.8276 71.2233 49.9606C70.8641 49.0935 70.3377 48.3057 69.674 47.6422C69.0104 46.9786 68.2225 46.4522 67.3555 46.0931C66.4884 45.734 65.5591 45.5491 64.6206 45.5491H43.5504C41.655 45.5491 39.8372 46.302 38.4969 47.6422C37.1566 48.9823 36.4036 50.8 36.4036 52.6954V64.2509C36.4036 66.1463 37.1566 67.964 38.4969 69.3041C39.8372 70.6443 41.655 71.3972 43.5504 71.3972H51.1823M51.8466 69.7895L51.5934 70.4045L51.5923 70.4056L51.5906 70.4073L50.8915 71.1064L50.8936 71.1084M51.8466 69.7895L51.5934 70.4045L52.0638 69.9341C52.0016 69.8721 51.9278 69.823 51.8466 69.7895ZM50.8936 71.1084L51.1823 71.3972M50.8936 71.1084C50.9858 71.2003 51.0951 71.2731 51.2154 71.3226L51.5906 70.4113L51.5923 70.4073L51.5906 70.4089L50.8936 71.1084ZM51.1823 71.3972L58.9933 79.2074C58.9945 79.2087 58.9958 79.2099 58.997 79.2112C59.3211 79.5367 59.7345 79.759 60.185 79.8497C60.6371 79.9408 61.1062 79.8954 61.5324 79.7191C61.9587 79.5427 62.3228 79.2436 62.5785 78.8597L51.1823 71.3972Z" stroke="white" stroke-width="3.31583" stroke-linecap="round" stroke-linejoin="round"/>
<path d="M43.5499 47.207H64.6201C65.3409 47.207 66.0546 47.349 66.7206 47.6248C67.3865 47.9006 67.9916 48.3049 68.5013 48.8145C69.011 49.3242 69.4153 49.9292 69.6911 50.5951C69.967 51.2609 70.1089 51.9746 70.1089 52.6954V64.2509C70.1089 64.9716 69.967 65.6853 69.6911 66.3512C69.4153 67.0171 69.011 67.6221 68.5013 68.1317C67.9916 68.6414 67.3865 69.0456 66.7206 69.3215C66.0546 69.5973 65.3409 69.7392 64.6201 69.7392H61.9777C61.8006 69.7392 61.6307 69.8096 61.5054 69.9349C61.3801 70.0601 61.3097 70.23 61.3097 70.4072V77.5691C61.3102 77.7013 61.2713 77.8307 61.198 77.9407C61.1248 78.0507 61.0204 78.1365 60.8982 78.187C60.776 78.2376 60.6416 78.2506 60.512 78.2245C60.3824 78.1984 60.2635 78.1343 60.1704 78.0404L52.0633 69.9341C52.0011 69.8721 51.9273 69.823 51.8461 69.7895C51.7649 69.7561 51.678 69.739 51.5901 69.7392H43.5499C42.0941 69.7392 40.698 69.161 39.6687 68.1317C38.6393 67.1025 38.061 65.7065 38.061 64.2509V52.6954C38.061 51.2398 38.6393 49.8438 39.6687 48.8145C40.698 47.7853 42.0941 47.207 43.5499 47.207Z" fill="#CCF3EC" stroke="#02B696" stroke-width="1.65791" stroke-linecap="round" stroke-linejoin="round"/>
<path d="M59.4434 58.3926H48.7274" stroke="#02B696" stroke-width="1.65791" stroke-linecap="round" stroke-linejoin="round"/>
</svg>
