<svg width="95" height="83" viewBox="0 0 95 83" fill="none" xmlns="http://www.w3.org/2000/svg">
<path opacity="0.2" fill-rule="evenodd" clip-rule="evenodd" d="M26.5263 17.8877C32.1933 11.1016 31.3105 -2.0306 48.3159 0.962198C65.3214 3.955 39.0839 34.8132 68.4943 17.8877C97.9048 0.962198 102.629 40.5842 83.7182 45.8701C64.8073 51.156 84.9602 69.0178 64.8073 78.9969C44.6545 88.976 0.0585938 80.1949 0.0585938 53.8069C0.0585938 27.4189 21.0314 24.4678 26.5263 17.8877Z" fill="#00AEEF"/>
<g clip-path="url(#clip0_158_5062)">
<path d="M82.533 58.0661C82.533 67.6979 62.3939 83.9592 49.9269 66.2176C47.6542 65.0663 40.4624 65.9526 37.9393 64.2996C20.1977 81.5617 2.93567 71.4921 2.93567 57.1071C2.93567 38.886 22.2428 38.886 43.6933 38.886C65.1439 38.886 82.533 40.3245 82.533 58.0661Z" fill="white"/>
<path d="M64.9659 39.5172H50.9886V36.1114C50.9886 35.6228 50.7929 35.1542 50.4446 34.8087C50.0963 34.4632 49.6239 34.2691 49.1313 34.2691H43.9575V10.3501C43.9689 10.3063 43.9751 10.2612 43.9761 10.2159C43.9595 9.35529 44.114 8.49987 44.4307 7.69848C44.7475 6.89709 45.2202 6.16543 45.822 5.54527C46.4238 4.92511 47.1428 4.42861 47.938 4.0841C48.7332 3.73958 49.589 3.55381 50.4566 3.5374C51.3242 3.52098 52.1866 3.67423 52.9944 3.98841C53.8023 4.30259 54.5399 4.77154 55.1651 5.36848C55.7903 5.96542 56.2908 6.67866 56.6381 7.46748C56.9854 8.2563 57.1727 9.10527 57.1892 9.96588C57.1878 9.98603 57.1878 10.0063 57.1892 10.0264C57.1879 10.0474 57.1879 10.0685 57.1892 10.0896V21.4437C57.1963 21.4917 57.1963 21.5405 57.1892 21.5885C57.2294 23.5881 58.0572 25.4927 59.4952 26.8946C60.9333 28.2965 62.8674 29.0844 64.8836 29.0895H65.0322C67.0483 29.0509 68.9688 28.2302 70.3819 26.8033C71.7951 25.3765 72.5882 23.4571 72.5913 21.4569C72.5913 21.4569 72.5913 21.4411 72.5913 21.4332V6.94706C72.5966 6.87216 72.5862 6.79698 72.5609 6.72621C72.5356 6.65544 72.4959 6.59058 72.4443 6.53568C72.3927 6.48078 72.3302 6.437 72.2608 6.40706C72.1914 6.37713 72.1165 6.36168 72.0408 6.36168C71.9651 6.36168 71.8902 6.37713 71.8208 6.40706C71.7514 6.437 71.6889 6.48078 71.6372 6.53568C71.5856 6.59058 71.5459 6.65544 71.5206 6.72621C71.4953 6.79698 71.485 6.87216 71.4902 6.94706V21.32C71.5236 23.0584 70.8595 24.7388 69.6439 25.9915C68.4283 27.2442 66.7609 27.9667 65.0083 27.9998H64.881C63.151 27.9974 61.4908 27.3231 60.2559 26.1213C59.0211 24.9195 58.3098 23.2857 58.2744 21.57C58.277 21.5491 58.277 21.5279 58.2744 21.5069C58.2759 21.4858 58.2759 21.4647 58.2744 21.4437V10.0896C58.2744 10.0659 58.2744 10.0422 58.2744 10.0159C58.277 9.99227 58.277 9.96844 58.2744 9.94482C58.2727 7.91774 57.4592 5.97438 56.013 4.54225C54.5668 3.11012 52.6063 2.30655 50.5628 2.30829C48.5193 2.31004 46.5602 3.11696 45.1164 4.55156C43.6727 5.98615 42.8626 7.9309 42.8644 9.95798C42.8528 10.0009 42.8466 10.0451 42.8458 10.0896V34.2612H37.8338C37.3412 34.2612 36.8688 34.4553 36.5205 34.8008C36.1722 35.1463 35.9765 35.6149 35.9765 36.1035V39.5093H20.5161C17.5995 39.5088 14.7286 40.2287 12.1626 41.604C9.59662 42.9792 7.41617 44.9666 5.81804 47.3868C4.21991 49.807 3.25439 52.5838 3.0086 55.4667C2.76281 58.3496 3.24449 61.2478 4.41016 63.8999C5.57584 66.5519 7.38884 68.8744 9.68556 70.6576C11.9823 72.4408 14.6905 73.6287 17.5657 74.1142C20.441 74.5996 23.3928 74.3673 26.1549 73.4381C28.9171 72.509 31.4025 70.9123 33.387 68.7921C34.5152 67.5909 35.8802 66.6326 37.3973 65.9765C38.9145 65.3205 40.5513 64.9807 42.2064 64.9784H43.2889C44.9413 64.9844 46.575 65.3267 48.0887 65.984C49.6025 66.6413 50.9642 67.5998 52.0897 68.8C54.0742 70.9202 56.5596 72.5169 59.3217 73.446C62.0838 74.3752 65.0357 74.6075 67.911 74.1221C70.7862 73.6367 73.4944 72.4487 75.7911 70.6655C78.0878 68.8822 79.9008 66.5598 81.0665 63.9078C82.2322 61.2557 82.7139 58.3575 82.4681 55.4746C82.2223 52.5917 81.2568 49.8149 79.6586 47.3947C78.0605 44.9745 75.8801 42.9871 73.314 41.6118C70.748 40.2366 67.8772 39.5167 64.9606 39.5172H64.9659ZM37.067 36.1114C37.0677 35.9099 37.1487 35.7169 37.2924 35.5744C37.436 35.4319 37.6307 35.3515 37.8338 35.3508H49.1234C49.3265 35.3515 49.5211 35.4319 49.6648 35.5744C49.8084 35.7169 49.8895 35.9099 49.8902 36.1114V39.5172H37.067V36.1114ZM64.9659 73.2927C62.7014 73.289 60.4618 72.8239 58.3861 71.9261C56.3103 71.0283 54.4426 69.717 52.8989 68.0736C51.6684 66.7621 50.1791 65.7157 48.5236 64.9994C46.8681 64.2831 45.0818 63.9122 43.2756 63.9098H42.1931C40.3865 63.912 38.5997 64.2828 36.9438 64.9991C35.2878 65.7154 33.7981 66.7619 32.5671 68.0736C30.705 70.0575 28.3743 71.5505 25.7853 72.418C23.1963 73.2854 20.4303 73.5001 17.7368 73.0425C15.0433 72.585 12.507 71.4697 10.3564 69.7971C8.20589 68.1246 6.5088 65.9474 5.41818 63.4619C4.32756 60.9764 3.8777 58.2607 4.10916 55.5597C4.34061 52.8587 5.24611 50.2573 6.744 47.99C8.2419 45.7228 10.2851 43.861 12.6894 42.5725C15.0936 41.284 17.7834 40.6094 20.5161 40.6094H64.9659C67.146 40.582 69.3099 40.9842 71.3321 41.7928C73.3543 42.6014 75.1945 43.8002 76.7459 45.3198C78.2974 46.8394 79.5292 48.6494 80.3699 50.6449C81.2107 52.6404 81.6436 54.7817 81.6436 56.9445C81.6436 59.1072 81.2107 61.2485 80.3699 63.244C79.5292 65.2395 78.2974 67.0495 76.7459 68.5691C75.1945 70.0887 73.3543 71.2875 71.3321 72.0961C69.3099 72.9047 67.146 73.307 64.9659 73.2795V73.2927Z" fill="#00AEEF" stroke="#00AEEF" stroke-width="0.5"/>
<path d="M65.3878 53.4374C66.1859 53.4374 66.9662 53.2026 67.6298 52.7628C68.2935 52.3229 68.8107 51.6977 69.1162 50.9662C69.4216 50.2347 69.5015 49.4298 69.3458 48.6533C69.1901 47.8767 68.8057 47.1634 68.2413 46.6036C67.677 46.0437 66.9579 45.6625 66.1751 45.508C65.3922 45.3535 64.5808 45.4328 63.8434 45.7358C63.106 46.0388 62.4757 46.5519 62.0323 47.2102C61.5889 47.8685 61.3522 48.6425 61.3522 49.4343C61.3529 50.4957 61.7783 51.5136 62.5349 52.2641C63.2916 53.0147 64.3177 53.4367 65.3878 53.4374ZM65.3878 46.5233C65.9688 46.5233 66.5368 46.6943 67.0198 47.0146C67.5029 47.3348 67.8793 47.79 68.1016 48.3225C68.3238 48.8551 68.3818 49.441 68.2683 50.0063C68.1547 50.5715 67.8747 51.0906 67.4637 51.498C67.0527 51.9054 66.5291 52.1826 65.9591 52.2948C65.3892 52.4069 64.7986 52.3488 64.2619 52.1279C63.7253 51.907 63.2667 51.5331 62.9443 51.0537C62.6219 50.5742 62.4501 50.0106 62.4506 49.4343C62.452 48.6622 62.762 47.9222 63.3126 47.3765C63.8632 46.8309 64.6095 46.524 65.3878 46.5233Z" fill="#00AEEF" stroke="#00AEEF" stroke-width="0.5"/>
<path d="M65.3877 60.4515C64.5893 60.451 63.8087 60.6854 63.1447 61.1251C62.4806 61.5648 61.963 62.19 61.6572 62.9215C61.3514 63.6531 61.2713 64.4583 61.4269 65.235C61.5825 66.0118 61.9669 66.7254 62.5315 67.2854C63.096 67.8454 63.8153 68.2267 64.5984 68.3811C65.3815 68.5355 66.1931 68.4559 66.9307 68.1526C67.6682 67.8493 68.2984 67.3358 68.7416 66.6771C69.1849 66.0184 69.4212 65.244 69.4207 64.4521C69.4193 63.3915 68.9939 62.3747 68.2379 61.6248C67.4819 60.8749 66.4569 60.4529 65.3877 60.4515ZM65.3877 67.363C64.8073 67.363 64.24 67.1923 63.7574 66.8724C63.2748 66.5526 62.8987 66.0979 62.6766 65.566C62.4545 65.0341 62.3964 64.4488 62.5096 63.8842C62.6229 63.3195 62.9023 62.8008 63.3127 62.3937C63.7231 61.9866 64.246 61.7094 64.8152 61.5971C65.3845 61.4848 65.9745 61.5424 66.5107 61.7627C67.0469 61.9831 67.5052 62.3562 67.8277 62.8349C68.1501 63.3135 68.3222 63.8763 68.3222 64.4521C68.3215 65.2239 68.0121 65.9639 67.4619 66.5096C66.9118 67.0554 66.1658 67.3623 65.3877 67.363Z" fill="#00AEEF" stroke="#00AEEF" stroke-width="0.5"/>
<path d="M72.9548 52.9426C72.1565 52.9426 71.3762 53.1775 70.7125 53.6175C70.0487 54.0575 69.5315 54.6828 69.2261 55.4145C68.9208 56.1461 68.841 56.9511 68.9969 57.7277C69.1529 58.5043 69.5375 59.2176 70.1021 59.7774C70.6668 60.3371 71.3861 60.7182 72.1691 60.8724C72.9521 61.0265 73.7636 60.9469 74.501 60.6435C75.2383 60.3401 75.8684 59.8266 76.3115 59.1679C76.7546 58.5092 76.9909 57.735 76.9904 56.9432C76.989 55.8821 76.5632 54.865 75.8067 54.115C75.0501 53.365 74.0244 52.9433 72.9548 52.9426ZM72.9548 59.8567C72.3739 59.8567 71.806 59.6858 71.323 59.3657C70.84 59.0455 70.4635 58.5905 70.2412 58.0581C70.0189 57.5257 69.9607 56.9399 70.0741 56.3748C70.1874 55.8096 70.4671 55.2904 70.8779 54.883C71.2887 54.4755 71.812 54.198 72.3818 54.0856C72.9515 53.9732 73.5421 54.0309 74.0788 54.2514C74.6155 54.4719 75.0742 54.8453 75.3969 55.3245C75.7197 55.8036 75.8919 56.3669 75.8919 56.9432C75.8933 57.3268 75.8184 57.7069 75.6714 58.0618C75.5245 58.4166 75.3084 58.7392 75.0356 59.0111C74.7627 59.283 74.4385 59.4988 74.0814 59.6461C73.7244 59.7935 73.3415 59.8695 72.9548 59.8699V59.8567Z" fill="#00AEEF" stroke="#00AEEF" stroke-width="0.5"/>
<path d="M57.818 52.9426C57.0196 52.9421 56.239 53.1765 55.575 53.6162C54.9109 54.0559 54.3933 54.681 54.0875 55.4126C53.7817 56.1442 53.7016 56.9493 53.8572 57.7261C54.0128 58.5029 54.3972 59.2164 54.9618 59.7764C55.5263 60.3365 56.2456 60.7178 57.0287 60.8722C57.8118 61.0265 58.6234 60.947 59.361 60.6437C60.0985 60.3404 60.7287 59.8269 61.1719 59.1682C61.6152 58.5095 61.8515 57.7351 61.851 56.9432C61.8496 55.8826 61.4242 54.8658 60.6682 54.1159C59.9122 53.366 58.8872 52.944 57.818 52.9426ZM57.818 59.8567C57.237 59.8572 56.6689 59.6868 56.1855 59.367C55.7022 59.0471 55.3253 58.5923 55.1026 58.0599C54.8799 57.5276 54.8213 56.9417 54.9343 56.3764C55.0474 55.811 55.3269 55.2916 55.7376 54.8839C56.1482 54.4762 56.6716 54.1984 57.2414 54.0858C57.8112 53.9732 58.4019 54.0307 58.9388 54.2511C59.4756 54.4716 59.9345 54.845 60.2573 55.3242C60.5802 55.8034 60.7525 56.3668 60.7525 56.9432C60.7536 57.3265 60.6785 57.7062 60.5316 58.0607C60.3847 58.4153 60.1688 58.7376 59.8963 59.0094C59.6238 59.2812 59.3 59.497 58.9434 59.6447C58.5869 59.7923 58.2044 59.8688 57.818 59.8699V59.8567Z" fill="#00AEEF" stroke="#00AEEF" stroke-width="0.5"/>
<path d="M47.8976 55.4904H39.0596C38.9139 55.4904 38.7742 55.5478 38.6712 55.6499C38.5682 55.7521 38.5104 55.8907 38.5104 56.0352C38.5104 56.1797 38.5682 56.3182 38.6712 56.4204C38.7742 56.5226 38.9139 56.58 39.0596 56.58H47.8976C48.0432 56.58 48.1829 56.5226 48.2859 56.4204C48.3889 56.3182 48.4468 56.1797 48.4468 56.0352C48.4468 55.8907 48.3889 55.7521 48.2859 55.6499C48.1829 55.5478 48.0432 55.4904 47.8976 55.4904Z" fill="#00AEEF" stroke="#00AEEF" stroke-width="0.5"/>
<path d="M47.8976 58.946H39.0596C38.9139 58.946 38.7742 59.0034 38.6712 59.1056C38.5682 59.2078 38.5104 59.3464 38.5104 59.4909C38.5104 59.6353 38.5682 59.7739 38.6712 59.8761C38.7742 59.9783 38.9139 60.0357 39.0596 60.0357H47.8976C48.0432 60.0357 48.1829 59.9783 48.2859 59.8761C48.3889 59.7739 48.4468 59.6353 48.4468 59.4909C48.4468 59.3464 48.3889 59.2078 48.2859 59.1056C48.1829 59.0034 48.0432 58.946 47.8976 58.946Z" fill="#00AEEF" stroke="#00AEEF" stroke-width="0.5"/>
<path d="M29.5636 52.6952H25.6474C25.4546 52.6952 25.2697 52.6192 25.1334 52.484C24.9971 52.3487 24.9205 52.1653 24.9205 51.9741V48.0893C24.9198 47.6093 24.7272 47.1491 24.385 46.8097C24.0428 46.4703 23.5789 46.2793 23.095 46.2786H18.1812C17.6973 46.2793 17.2334 46.4703 16.8912 46.8097C16.549 47.1491 16.3565 47.6093 16.3558 48.0893V51.9741C16.3551 52.1656 16.2779 52.349 16.1411 52.4841C16.0044 52.6193 15.8192 52.6952 15.6261 52.6952H11.7126C11.228 52.6959 10.7634 52.8872 10.4207 53.2271C10.078 53.567 9.88522 54.0279 9.88452 54.5086V59.3803C9.88732 59.8597 10.0811 60.3185 10.4235 60.6567C10.766 60.9949 11.2294 61.1851 11.7126 61.1858H15.6261C15.8192 61.1858 16.0044 61.2617 16.1411 61.3969C16.2779 61.532 16.3551 61.7154 16.3558 61.9069V65.789C16.3558 66.2695 16.548 66.7304 16.8903 67.0704C17.2325 67.4104 17.6968 67.6017 18.1812 67.6024H23.095C23.5794 67.6017 24.0437 67.4104 24.386 67.0704C24.7282 66.7304 24.9205 66.2695 24.9205 65.789V61.9148C24.9194 61.8195 24.9374 61.7249 24.9735 61.6364C25.0096 61.548 25.0629 61.4676 25.1306 61.3998C25.1982 61.332 25.2787 61.2782 25.3674 61.2414C25.4561 61.2047 25.5513 61.1858 25.6474 61.1858H29.5636C30.048 61.1851 30.5123 60.9937 30.8546 60.6537C31.1968 60.3137 31.3891 59.8529 31.3891 59.3724V54.5086C31.3891 54.0281 31.1968 53.5673 30.8546 53.2273C30.5123 52.8873 30.048 52.6959 29.5636 52.6952ZM30.2906 59.3803C30.2906 59.475 30.2718 59.5688 30.2353 59.6563C30.1988 59.7438 30.1452 59.8233 30.0777 59.8902C30.0102 59.9572 29.93 60.0103 29.8418 60.0466C29.7536 60.0828 29.6591 60.1014 29.5636 60.1014H25.6474C25.1631 60.1021 24.6988 60.2935 24.3565 60.6335C24.0143 60.9735 23.822 61.4344 23.822 61.9148V65.7969C23.822 65.9882 23.7454 66.1716 23.6091 66.3069C23.4727 66.4421 23.2878 66.5181 23.095 66.5181H18.1812C17.9884 66.5181 17.8035 66.4421 17.6672 66.3069C17.5308 66.1716 17.4542 65.9882 17.4542 65.7969V61.9148C17.4535 61.4341 17.2607 60.9733 16.918 60.6334C16.5753 60.2934 16.1108 60.1021 15.6261 60.1014H11.7126C11.6171 60.1014 11.5226 60.0828 11.4344 60.0466C11.3462 60.0103 11.2661 59.9572 11.1985 59.8902C11.131 59.8233 11.0775 59.7438 11.041 59.6563C11.0044 59.5688 10.9856 59.475 10.9856 59.3803V54.5086C10.9856 54.3171 11.0621 54.1334 11.1984 53.9977C11.3346 53.8621 11.5196 53.7855 11.7126 53.7848H15.6261C16.1105 53.7848 16.5751 53.5941 16.9179 53.2546C17.2606 52.9151 17.4535 52.4545 17.4542 51.9741V48.0893C17.4542 47.8981 17.5308 47.7146 17.6672 47.5794C17.8035 47.4442 17.9884 47.3682 18.1812 47.3682H23.095C23.2878 47.3682 23.4727 47.4442 23.6091 47.5794C23.7454 47.7146 23.822 47.8981 23.822 48.0893V51.9741C23.8227 52.4541 24.0153 52.9143 24.3574 53.2537C24.6996 53.5931 25.1635 53.7841 25.6474 53.7848H29.5636C29.7567 53.7855 29.9416 53.8621 30.0779 53.9977C30.2141 54.1334 30.2906 54.3171 30.2906 54.5086V59.3803Z" fill="#00AEEF" stroke="#00AEEF" stroke-width="0.5"/>
</g>
<defs>
<clipPath id="clip0_158_5062">
<rect width="79.5973" height="71.9253" fill="white" transform="translate(2.93567 2.44385)"/>
</clipPath>
</defs>
</svg>
