<svg width="260" height="163" viewBox="0 0 260 163" fill="none" xmlns="http://www.w3.org/2000/svg">
<path d="M86.2054 39.1811L127.801 37.2893C128.663 37.2501 129.341 36.5333 129.302 35.676L127.873 4.2708C127.834 3.41345 127.094 2.76119 126.233 2.80036L84.6365 4.69224C83.7751 4.73142 83.0973 5.44817 83.1363 6.30552L84.5649 37.7107C84.6039 38.568 85.344 39.2203 86.2054 39.1811Z" fill="white" stroke="#4FAE15" stroke-width="0.55571"/>
<path d="M97.6936 15.4921L93.2199 17.6712L108.859 19.2671L113.127 17.0431L97.6936 15.4921Z" fill="#EC5F67"/>
<path d="M109.352 28.753L93.7198 27.1636L93.2199 17.6715L108.859 19.2674L109.352 28.753Z" fill="#00AEEF"/>
<path d="M113.629 26.5292L109.354 28.7532L108.86 19.2675L113.129 17.0435L113.629 26.5292Z" fill="#FFC90D"/>
<path d="M91.6366 18.6974C91.6081 18.6976 91.5806 18.6873 91.5593 18.6683C91.538 18.6494 91.5244 18.6233 91.5213 18.5949V18.2681C91.5173 18.252 91.517 18.2353 91.5204 18.2191C91.5239 18.2029 91.531 18.1877 91.5412 18.1747C91.5514 18.1616 91.5644 18.1511 91.5792 18.1438C91.5941 18.1366 91.6104 18.1329 91.627 18.1329C91.6435 18.1329 91.6599 18.1366 91.6748 18.1438C91.6896 18.1511 91.7026 18.1616 91.7128 18.1747C91.723 18.1877 91.7301 18.2029 91.7335 18.2191C91.737 18.2353 91.7367 18.252 91.7328 18.2681V18.5949C91.7314 18.6206 91.721 18.645 91.7034 18.6638C91.6858 18.6826 91.6622 18.6944 91.6366 18.6974V18.6974Z" fill="#145D93"/>
<path d="M92.034 26.2796C92.0055 26.2797 91.978 26.2692 91.9567 26.2503C91.9354 26.2314 91.9218 26.2052 91.9186 26.1769L91.8866 25.536C91.8866 25.5071 91.898 25.4794 91.9185 25.459C91.9389 25.4386 91.9666 25.4271 91.9955 25.4271C92.0244 25.4271 92.0522 25.4386 92.0726 25.459C92.093 25.4794 92.1045 25.5071 92.1045 25.536V26.1769C92.1046 26.1992 92.0979 26.221 92.0853 26.2393C92.0727 26.2577 92.0548 26.2717 92.034 26.2796ZM91.9699 24.9977C91.9556 24.9986 91.9413 24.9966 91.9277 24.9919C91.9142 24.9872 91.9017 24.9799 91.8909 24.9703C91.8802 24.9608 91.8714 24.9493 91.8652 24.9364C91.859 24.9235 91.8554 24.9094 91.8546 24.8951V24.2541C91.8544 24.2256 91.8647 24.1981 91.8837 24.1768C91.9026 24.1555 91.9287 24.142 91.957 24.1388C91.9856 24.1386 92.0131 24.149 92.0344 24.1679C92.0557 24.1869 92.0693 24.213 92.0725 24.2413L92.1045 24.8822C92.1089 24.8996 92.1089 24.918 92.1046 24.9354C92.1003 24.9529 92.0917 24.9689 92.0797 24.9822C92.0676 24.9955 92.0524 25.0058 92.0355 25.0118C92.0186 25.0178 92.0005 25.0195 91.9827 25.0168L91.9699 24.9977ZM91.8994 23.7159C91.8716 23.7159 91.8448 23.7052 91.8245 23.6861C91.8043 23.6671 91.792 23.641 91.7904 23.6132L91.752 22.9723C91.7518 22.9438 91.7622 22.9163 91.7811 22.895C91.8 22.8737 91.8262 22.8601 91.8546 22.857C91.8689 22.8561 91.8832 22.8581 91.8967 22.8628C91.9103 22.8675 91.9228 22.8748 91.9335 22.8844C91.9442 22.8939 91.9529 22.9054 91.9592 22.9183C91.9654 22.9312 91.9691 22.9452 91.9699 22.9595V23.6004C91.9771 23.6149 91.9809 23.631 91.9811 23.6472C91.9814 23.6634 91.978 23.6794 91.9713 23.6941C91.9645 23.7089 91.9545 23.7219 91.9421 23.7323C91.9297 23.7427 91.9151 23.7502 91.8994 23.7542V23.7159ZM91.8353 22.434C91.8058 22.4341 91.7774 22.4227 91.7559 22.4024C91.7344 22.3822 91.7215 22.3544 91.7199 22.325V21.684C91.7199 21.6551 91.7314 21.6275 91.7518 21.6071C91.7723 21.5866 91.8 21.5751 91.8289 21.5751C91.8578 21.5751 91.8855 21.5866 91.906 21.6071C91.9264 21.6275 91.9379 21.6551 91.9379 21.684L91.9699 22.325C91.9911 22.3428 92.0044 22.3684 92.0068 22.396C92.0092 22.4236 92.0006 22.4511 91.9827 22.4724C91.9649 22.4936 91.9393 22.5069 91.9117 22.5093C91.884 22.5117 91.8566 22.503 91.8353 22.4852V22.434ZM91.7712 21.1522C91.7567 21.154 91.742 21.1526 91.728 21.1483C91.7141 21.1439 91.7012 21.1367 91.6903 21.127C91.6793 21.1173 91.6706 21.1053 91.6647 21.0919C91.6587 21.0786 91.6557 21.0642 91.6558 21.0495V20.4086C91.654 20.3941 91.6553 20.3794 91.6597 20.3654C91.664 20.3515 91.6712 20.3386 91.6809 20.3277C91.6907 20.3168 91.7026 20.308 91.7159 20.3021C91.7293 20.2961 91.7438 20.2932 91.7584 20.2933C91.7869 20.2931 91.8145 20.3035 91.8358 20.3224C91.8571 20.3413 91.8706 20.3675 91.8737 20.3958V21.0367C91.892 21.0532 91.9043 21.0753 91.9084 21.0996C91.9125 21.1239 91.9082 21.1489 91.8963 21.1705C91.8844 21.192 91.8656 21.2089 91.8429 21.2184C91.8202 21.2278 91.7949 21.2293 91.7712 21.2226V21.1522ZM91.7007 19.8703C91.6867 19.8712 91.6727 19.8692 91.6595 19.8644C91.6463 19.8596 91.6342 19.8523 91.624 19.8426C91.6138 19.833 91.6057 19.8214 91.6001 19.8085C91.5946 19.7957 91.5917 19.7817 91.5917 19.7677L91.5533 19.1268C91.5531 19.0983 91.5635 19.0708 91.5824 19.0495C91.6014 19.0282 91.6275 19.0146 91.6558 19.0114C91.6703 19.0096 91.6851 19.0109 91.699 19.0152C91.713 19.0195 91.7259 19.0268 91.7368 19.0365C91.7477 19.0462 91.7565 19.0582 91.7624 19.0715C91.7683 19.0849 91.7713 19.0993 91.7712 19.1139V19.7549C91.7958 19.7661 91.8153 19.7862 91.826 19.811C91.8367 19.8359 91.8378 19.8638 91.829 19.8894C91.8202 19.915 91.8021 19.9365 91.7784 19.9495C91.7547 19.9626 91.7271 19.9663 91.7007 19.96V19.8703Z" fill="#145D93"/>
<path d="M92.0852 27.2339C92.0709 27.2348 92.0565 27.2328 92.043 27.2281C92.0294 27.2234 92.0169 27.216 92.0062 27.2065C91.9955 27.197 91.9868 27.1855 91.9805 27.1726C91.9743 27.1597 91.9706 27.1456 91.9698 27.1313V26.8108C91.9689 26.7965 91.9709 26.7821 91.9756 26.7685C91.9803 26.755 91.9876 26.7426 91.9971 26.7319C92.0066 26.7212 92.0182 26.7124 92.0311 26.7061C92.0441 26.6999 92.0581 26.6963 92.0724 26.6955C92.0869 26.6936 92.1016 26.6949 92.1156 26.6992C92.1295 26.7036 92.1424 26.7108 92.1534 26.7205C92.1643 26.7302 92.173 26.7422 92.1789 26.7556C92.1849 26.7689 92.1878 26.7833 92.1877 26.798V27.1248C92.1886 27.1388 92.1866 27.153 92.1818 27.1661C92.1771 27.1793 92.1697 27.1913 92.1601 27.2015C92.1505 27.2117 92.1388 27.2199 92.126 27.2255C92.1131 27.231 92.0992 27.2339 92.0852 27.2339V27.2339Z" fill="#145D93"/>
<path d="M91.6943 16.8635C91.6725 16.8661 91.6503 16.8619 91.6309 16.8517C91.6114 16.8414 91.5956 16.8255 91.5854 16.806C91.5739 16.7794 91.5728 16.7495 91.5823 16.7222C91.5918 16.6949 91.6111 16.6722 91.6366 16.6586L92.2199 16.3764C92.2329 16.3699 92.2471 16.3661 92.2616 16.3652C92.2761 16.3642 92.2906 16.3662 92.3044 16.371C92.3181 16.3757 92.3308 16.3833 92.3416 16.393C92.3524 16.4028 92.3611 16.4146 92.3673 16.4278C92.3737 16.4403 92.3775 16.4541 92.3783 16.4681C92.3792 16.4822 92.3771 16.4962 92.3723 16.5094C92.3675 16.5227 92.3601 16.5347 92.3504 16.545C92.3407 16.5552 92.329 16.5632 92.316 16.5687L91.7328 16.8571L91.6943 16.8635ZM92.8672 16.2996C92.8448 16.3007 92.8225 16.2952 92.8032 16.2838C92.7838 16.2724 92.7682 16.2556 92.7582 16.2355C92.7519 16.2229 92.7482 16.2093 92.7473 16.1952C92.7464 16.1812 92.7484 16.167 92.7532 16.1538C92.7581 16.1405 92.7655 16.1285 92.7752 16.1183C92.7849 16.108 92.7966 16.1 92.8096 16.0945L93.3928 15.8061C93.4058 15.7996 93.42 15.7958 93.4346 15.7948C93.4491 15.7939 93.4636 15.7958 93.4773 15.8006C93.4911 15.8054 93.5037 15.8129 93.5145 15.8227C93.5253 15.8324 93.5341 15.8442 93.5403 15.8574C93.5517 15.8839 93.5528 15.9137 93.5433 15.941C93.5338 15.9683 93.5144 15.9911 93.4889 16.0048L92.9057 16.2868L92.8672 16.2996ZM94.0401 15.7291C94.0177 15.7302 93.9955 15.7247 93.9761 15.7133C93.9568 15.7019 93.9412 15.6852 93.9312 15.6651C93.9246 15.653 93.9205 15.6396 93.9192 15.6258C93.9179 15.6121 93.9194 15.5982 93.9235 15.585C93.9277 15.5718 93.9346 15.5596 93.9436 15.5492C93.9526 15.5387 93.9636 15.5302 93.976 15.5241L94.5657 15.2356C94.5913 15.2244 94.6202 15.2237 94.6465 15.2332C94.6727 15.2428 94.6943 15.2619 94.7067 15.2869C94.7132 15.2999 94.7171 15.3142 94.718 15.3287C94.7189 15.3432 94.717 15.3577 94.7122 15.3714C94.7074 15.3851 94.6999 15.3978 94.6901 15.4086C94.6804 15.4194 94.6687 15.4281 94.6555 15.4343L94.0722 15.7163L94.0401 15.7291ZM95.2067 15.1587C95.1842 15.1598 95.162 15.1543 95.1426 15.1429C95.1232 15.1316 95.1076 15.1147 95.0977 15.0946C95.0913 15.0821 95.0875 15.0684 95.0867 15.0544C95.0858 15.0403 95.0879 15.0263 95.0927 15.0131C95.0975 14.9998 95.105 14.9876 95.1147 14.9774C95.1244 14.9672 95.136 14.9591 95.1489 14.9536L95.7322 14.6652C95.7587 14.6538 95.7886 14.6526 95.8159 14.6621C95.8432 14.6716 95.8659 14.6911 95.8796 14.7165C95.8911 14.7431 95.8922 14.773 95.8827 14.8003C95.8732 14.8276 95.8538 14.8503 95.8284 14.8639L95.2451 15.1459L95.2067 15.1587ZM96.3796 14.5884C96.3569 14.5914 96.3338 14.5867 96.3141 14.5751C96.2943 14.5635 96.279 14.5456 96.2706 14.5242C96.264 14.5121 96.2599 14.4987 96.2586 14.485C96.2573 14.4712 96.2588 14.4573 96.263 14.4441C96.2672 14.431 96.274 14.4188 96.283 14.4083C96.292 14.3978 96.3031 14.3894 96.3155 14.3833L96.668 14.2102C96.6944 14.1974 96.7247 14.1957 96.7523 14.2053C96.7799 14.215 96.8027 14.2352 96.8154 14.2615C96.8282 14.2879 96.8299 14.3181 96.8203 14.3457C96.8107 14.3733 96.7905 14.3962 96.7641 14.4089L96.4116 14.5756L96.3796 14.5884Z" fill="#145D93"/>
<path d="M90.284 23.4337C90.2572 23.4441 90.2275 23.4441 90.2007 23.4337L89.0471 22.3955C89.0272 22.3756 89.0157 22.3488 89.0151 22.3207C89.0145 22.2926 89.0248 22.2653 89.0438 22.2446C89.0629 22.2239 89.0892 22.2113 89.1172 22.2096C89.1453 22.2078 89.173 22.2171 89.1945 22.2352L90.3417 23.2734C90.3516 23.283 90.3595 23.2946 90.3648 23.3072C90.3702 23.3199 90.373 23.3334 90.373 23.3471C90.373 23.3609 90.3702 23.3745 90.3648 23.3872C90.3595 23.3999 90.3516 23.4113 90.3417 23.4208C90.3245 23.4315 90.3041 23.436 90.284 23.4337V23.4337Z" fill="#145D93"/>
<path d="M89.1881 23.4844C89.161 23.4928 89.1319 23.4928 89.1048 23.4844C89.0844 23.464 89.073 23.4363 89.073 23.4074C89.073 23.3786 89.0844 23.351 89.1048 23.3306L90.1367 22.1769C90.1578 22.158 90.1852 22.1475 90.2136 22.1475C90.242 22.1475 90.2694 22.158 90.2905 22.1769C90.3109 22.1973 90.3223 22.2251 90.3223 22.2539C90.3223 22.2827 90.3109 22.3103 90.2905 22.3307L89.2522 23.478C89.232 23.4865 89.2096 23.4888 89.1881 23.4844Z" fill="#145D93"/>
<path d="M92.8865 13.7111C92.8598 13.7221 92.8298 13.7221 92.8031 13.7111L92.2327 13.1919C92.2123 13.1715 92.2009 13.1439 92.2009 13.1151C92.2009 13.0863 92.2123 13.0585 92.2327 13.0381C92.2538 13.0192 92.2812 13.0087 92.3096 13.0087C92.338 13.0087 92.3654 13.0192 92.3865 13.0381L92.9634 13.5573C92.9837 13.5777 92.9951 13.6053 92.9951 13.6341C92.9951 13.6629 92.9837 13.6907 92.9634 13.7111C92.9387 13.7211 92.9111 13.7211 92.8865 13.7111Z" fill="#145D93"/>
<path d="M92.9313 14.5502C92.9028 14.5504 92.8753 14.54 92.854 14.5211C92.8327 14.5022 92.8192 14.4759 92.816 14.4476L92.7775 13.6081C92.7722 13.596 92.7695 13.5828 92.7695 13.5696C92.7695 13.5564 92.7722 13.5432 92.7775 13.5311L93.2967 12.9607C93.3047 12.9467 93.3158 12.9346 93.329 12.9254C93.3423 12.9161 93.3574 12.9099 93.3734 12.9072C93.3894 12.9046 93.4057 12.9054 93.4213 12.9099C93.4368 12.9143 93.4512 12.9222 93.4633 12.9329C93.4754 12.9436 93.4851 12.9568 93.4915 12.9717C93.4978 12.9866 93.5008 13.0026 93.5002 13.0188C93.4996 13.035 93.4954 13.0508 93.4879 13.0651C93.4805 13.0794 93.4699 13.092 93.457 13.1017L92.9698 13.6464L93.0083 14.4347C93.0108 14.4599 93.0045 14.4852 92.9905 14.5062C92.9765 14.5273 92.9556 14.5429 92.9313 14.5502Z" fill="#145D93"/>
<path d="M125.966 10.7895L120.844 11.0225L121.311 21.2913L126.433 21.0584L125.966 10.7895Z" fill="#F3F3F3"/>
<path d="M101.11 31.3617L92.9044 31.7917C92.5509 31.8102 92.2794 32.1118 92.2979 32.4653L92.42 34.795C92.4385 35.1485 92.7401 35.42 93.0936 35.4015L101.299 34.9714C101.653 34.9529 101.924 34.6513 101.906 34.2979L101.784 31.9682C101.765 31.6147 101.464 31.3431 101.11 31.3617Z" fill="#C5EEFE"/>
<path d="M113.295 30.7192L105.09 31.1493C104.736 31.1678 104.465 31.4694 104.483 31.8228L104.605 34.1525C104.624 34.506 104.925 34.7776 105.279 34.759L113.484 34.329C113.838 34.3105 114.109 34.0089 114.091 33.6554L113.969 31.3257C113.95 30.9722 113.649 30.7007 113.295 30.7192Z" fill="#C5EEFE"/>
<path d="M94.2774 34.0475C94.262 34.0479 94.2468 34.0453 94.2325 34.0398C94.2182 34.0343 94.2051 34.026 94.194 34.0154L93.2583 33.1759C93.2384 33.156 93.227 33.1292 93.2264 33.1011C93.2258 33.073 93.2361 33.0457 93.2552 33.025C93.2742 33.0044 93.3005 32.9917 93.3286 32.99C93.3566 32.9882 93.3842 32.9975 93.4057 33.0157L94.3415 33.8551C94.3619 33.8756 94.3733 33.9033 94.3733 33.9321C94.3733 33.961 94.3619 33.9885 94.3415 34.009C94.3236 34.0269 94.3016 34.0401 94.2774 34.0475V34.0475Z" fill="#145D93"/>
<path d="M93.3861 34.0921C93.359 34.1005 93.33 34.1005 93.3029 34.0921C93.2825 34.0717 93.2711 34.044 93.2711 34.0151C93.2711 33.9863 93.2825 33.9587 93.3029 33.9383L94.1489 33.0026C94.1585 32.9927 94.1699 32.9848 94.1825 32.9794C94.1952 32.9741 94.2089 32.9713 94.2226 32.9713C94.2364 32.9713 94.25 32.9741 94.2627 32.9794C94.2753 32.9848 94.2867 32.9927 94.2963 33.0026C94.3167 33.023 94.3281 33.0506 94.3281 33.0794C94.3281 33.1082 94.3167 33.136 94.2963 33.1564L93.4503 34.0921C93.4294 34.0985 93.407 34.0985 93.3861 34.0921V34.0921Z" fill="#145D93"/>
<path d="M105.88 32.8674C105.867 32.8741 105.852 32.8777 105.838 32.8777C105.823 32.8777 105.809 32.8741 105.796 32.8674L105.328 32.4444C105.318 32.4348 105.311 32.4234 105.305 32.4108C105.3 32.3981 105.297 32.3845 105.297 32.3707C105.297 32.3569 105.3 32.3433 105.305 32.3306C105.311 32.318 105.318 32.3066 105.328 32.297C105.349 32.2766 105.376 32.2652 105.405 32.2652C105.434 32.2652 105.462 32.2766 105.482 32.297L105.95 32.72C105.97 32.7404 105.982 32.7681 105.982 32.7969C105.982 32.8258 105.97 32.8533 105.95 32.8738C105.927 32.8801 105.902 32.8778 105.88 32.8674V32.8674Z" fill="#145D93"/>
<path d="M105.918 33.5533C105.889 33.5534 105.862 33.5431 105.84 33.5242C105.819 33.5052 105.806 33.4791 105.802 33.4508V32.7714C105.797 32.7582 105.793 32.7441 105.793 32.7297C105.793 32.7154 105.797 32.7012 105.802 32.6881L106.225 32.2201C106.245 32.2002 106.272 32.1889 106.3 32.1883C106.328 32.1877 106.355 32.1979 106.376 32.217C106.397 32.236 106.409 32.2623 106.411 32.2904C106.413 32.3184 106.404 32.3462 106.386 32.3677L105.995 32.8034L106.027 33.4444C106.027 33.4733 106.015 33.5009 105.995 33.5213C105.974 33.5418 105.947 33.5533 105.918 33.5533Z" fill="#145D93"/>
<rect x="83.473" y="7.58955" width="44.2273" height="3.20461" transform="rotate(-2.60436 83.473 7.58955)" fill="#4FAE15"/>
<rect width="44.2273" height="1.92277" transform="matrix(0.998967 -0.0454378 0.0454401 0.998967 83.6187 10.7912)" fill="#F3F3F3"/>
<rect width="5.1275" height="1.92277" transform="matrix(0.998967 -0.0454352 0.0454427 0.998967 120.844 11.0225)" fill="#82C021"/>
<rect width="5.1275" height="1.92277" transform="matrix(0.998967 -0.0454352 0.0454427 0.998967 121.077 16.145)" fill="#2EA7DE"/>
<path d="M109.863 49.0643C111.62 51.5128 116.941 57.5837 122.75 60.2403C123.584 60.6246 124.804 61.0998 126.214 61.6109C126.781 61.8142 129.361 62.8044 130.39 63.1156C131.42 63.4269 132.628 56.2512 132.628 56.2512C132.628 56.2512 129.094 55.4671 128.423 55.3032C127.15 54.9925 125.901 54.5898 124.687 54.0979C119.985 52.2188 113.951 46.1615 113.659 45.8508C113.142 46.657 112.511 47.3845 111.786 48.0108C111.258 48.5372 110.591 48.9025 109.863 49.0643Z" fill="#FFAC93"/>
<path d="M140.308 66.1245C140.15 66.2028 139.971 66.2292 139.797 66.2001C138.639 65.8949 136.588 65.228 134.652 64.58C132.279 63.8126 130.092 63.055 129.98 62.9849C131.466 61.0294 132.307 58.6606 132.387 56.2062C135.47 56.5395 138.572 56.6716 141.672 56.6015C146.32 56.4689 146.945 56.2965 148.259 56.0965C150.07 55.8202 142.845 65.1228 140.308 66.1245Z" fill="#214775"/>
<path d="M104.738 42.324C104.881 41.3239 106.16 39.7101 107.686 38.8859C107.262 38.1831 106.506 36.9364 105.906 36.1409C105.822 36.0466 105.759 35.9361 105.719 35.8162C105.68 35.6963 105.665 35.5694 105.677 35.4437C105.688 35.318 105.725 35.1959 105.786 35.0851C105.847 34.9743 105.929 34.8772 106.029 34.7996C106.269 34.6498 106.557 34.5966 106.836 34.6506C107.114 34.7046 107.361 34.8618 107.528 35.0907C109.152 37.1535 110.32 38.4861 111.036 39.506C113.147 40.4842 114.049 41.1545 113.646 45.8569C113.246 46.5776 112.718 47.2196 112.089 47.7514C111.461 48.3748 110.683 48.8264 109.831 49.0631C107.805 47.5503 104.388 44.693 104.738 42.324Z" fill="#FFAC93"/>
<path d="M105.068 44.0874C105.488 44.5547 106.063 44.8545 106.687 44.9311C107.31 45.0078 107.94 44.8562 108.461 44.5045C108.232 44.3917 108.033 44.2254 107.882 44.0196C107.731 43.8139 107.632 43.5748 107.593 43.3225C107.519 42.5292 108.871 41.0091 109.511 40.4333C109.82 40.1608 109.957 40.4953 109.584 40.9954C109.211 41.4955 108.492 42.2213 108.349 42.8555C108.247 43.3379 108.698 44.0229 109.217 43.9284C110.016 43.6841 110.729 43.2163 111.271 42.5802C111.536 42.3054 111.721 42.6874 111.455 42.9942C111.087 43.4366 110.823 43.9559 110.682 44.5138C110.541 45.0718 110.528 45.6542 110.642 46.2181C110.85 46.922 111.264 47.5475 111.831 48.0139C111.273 48.5085 110.608 48.8666 109.888 49.06C108.3 47.9105 105.956 45.9893 105.068 44.0874Z" fill="#E97C6B"/>
<path d="M140.309 66.1254C140.151 66.2037 139.972 66.2301 139.798 66.201C138.639 65.8958 136.589 65.2289 134.652 64.5809C137.061 63.9446 139.864 63.1239 142.136 62.4097C142.293 63.1947 141.241 65.0066 140.309 66.1254Z" fill="#153A5E"/>
<path d="M163.068 73.7994C163.044 74.2474 162.975 74.6996 162.925 75.1526C162.836 76.0015 162.725 76.8686 162.609 77.7417C162.266 80.3293 161.854 83.0288 161.502 85.802C161.391 86.6691 161.287 87.5493 161.196 88.4302C161.187 88.5966 161.178 88.7629 161.169 88.9357L139.982 87.8142C140.296 84.6795 140.449 81.7866 140.449 81.7866L139.949 81.5228C139.793 81.4375 139.632 81.339 139.483 81.2413C139.183 81.0532 138.898 80.843 138.63 80.6122C138.454 80.4745 138.286 80.3263 138.128 80.1684L137.853 79.8907C137.355 79.3675 136.926 78.7818 136.578 78.1481C136.496 78.0026 136.421 77.8508 136.352 77.6996C136.283 77.5483 136.215 77.3778 136.153 77.2205C136.091 77.0568 136.035 76.8934 135.992 76.7371C135.949 76.5808 135.911 76.4568 135.88 76.314C135.88 76.2734 135.882 76.2328 135.886 76.1924C135.893 76.058 135.836 75.9201 135.824 75.7847C135.762 75.3592 135.754 74.9274 135.802 74.4999C136.149 71.4696 137.595 69.9737 139.647 66.1351C139.897 65.6669 140.161 65.1611 140.427 64.6168C140.758 63.9412 141.14 63.2747 141.476 62.6314C142.983 59.9898 144.771 57.729 146.858 56.62L147.024 56.5325C147.538 56.3949 148.073 56.3493 148.603 56.3979L148.77 56.4067C150.648 56.4626 152.521 56.6368 154.378 56.9282C154.779 57.0256 155.173 57.1494 155.558 57.2988C155.6 57.307 155.641 57.3222 155.678 57.3437C156.084 57.501 156.48 57.6849 156.862 57.8941C157.068 58.0077 157.273 58.1275 157.485 58.2543C157.604 58.325 157.72 58.4019 157.832 58.4845C161.337 60.9036 163.443 65.3731 163.369 69.9197C163.271 71.1724 163.189 72.4709 163.068 73.7994Z" fill="#214775"/>
<path d="M163.068 73.7994C163.044 74.2474 162.975 74.6995 162.926 75.1526C162.836 76.0014 162.726 76.8685 162.609 77.7416C162.266 80.3293 161.854 83.0287 161.502 85.802C161.392 86.669 161.287 87.5493 161.196 88.4301C161.187 88.5966 161.178 88.7628 161.169 88.9356L152.579 88.481C152.263 84.5106 150.44 83.4195 147.92 82.7726C145.46 82.2425 142.962 81.9127 140.449 81.7866L139.95 81.5227C139.794 81.4375 139.632 81.339 139.483 81.2412C139.185 81.051 138.9 80.8409 138.631 80.6121C138.454 80.4744 138.286 80.3263 138.128 80.1684L137.854 79.8906C137.355 79.3675 136.926 78.7818 136.579 78.1481C136.497 78.0025 136.421 77.8508 136.352 77.6995C136.283 77.5483 136.215 77.3778 136.153 77.2205C136.091 77.0567 136.035 76.8933 135.992 76.737C135.949 76.5807 135.911 76.4568 135.88 76.314C135.88 76.2733 135.882 76.2328 135.886 76.1924C135.855 76.0495 135.831 75.907 135.813 75.7648C136.981 77.9446 138.054 78.4122 146.452 79.1006C148.094 79.2325 152.795 79.1925 154.944 74.6146C155.761 72.763 156.345 70.8168 156.682 68.821L157.051 68.8791L163.338 69.9115C163.271 71.1724 163.19 72.4708 163.068 73.7994Z" fill="#153A5E"/>
<path d="M173.431 82.6912C173.47 84.6187 169.77 87.3367 166.743 89.2303L160.343 88.8915C160.212 88.2453 160.217 87.5792 160.357 86.9349L161.501 85.8016L164.793 82.5422L165.467 81.9361L164.704 80.8237L162.595 77.747L161.094 75.5559L160.891 75.2692L160.843 75.196L163.048 73.8108L167.623 70.921L168.426 70.4115L168.631 70.7946C169.585 72.5331 173.371 79.8191 173.431 82.6912Z" fill="#FFAC93"/>
<path d="M164.718 80.8183L165.481 81.9306L164.807 82.5367C165.809 82.5101 166.813 82.5374 167.813 82.6188C166.84 81.9233 165.804 81.3205 164.718 80.8183V80.8183Z" fill="#E97C6B"/>
<path d="M161.482 88.9517L153.949 88.5529C154.109 87.9031 154.411 87.2968 154.832 86.777C155.916 85.4737 158.259 86.9071 160.357 86.9347L161.195 88.4296L161.482 88.9517Z" fill="#FFAC93"/>
<path d="M157.842 56.9695C157.56 56.8648 157.27 56.7723 156.971 56.6923C156.686 56.613 156.394 56.5463 156.089 56.4916C155.923 56.4828 155.79 56.5592 155.683 56.7589C155.663 56.7846 155.648 56.8146 155.64 56.8466C155.577 56.9909 155.529 57.1409 155.495 57.2945C155.42 57.641 155.37 57.9921 155.343 58.3454C155.248 59.3994 155.215 60.7519 155.195 61.9895C155.184 62.2007 155.173 62.4055 155.161 62.6295C155.226 64.837 155.854 66.9913 156.986 68.8877C158.213 71.1733 159.795 73.298 160.85 75.1895C160.866 75.2145 160.88 75.2411 160.891 75.2687L161.055 75.5598L161.094 75.5618C161.717 75.5285 162.331 75.394 162.912 75.1638C164.875 74.4205 166.639 73.2306 168.063 71.6883C168.292 71.4157 168.484 71.1154 168.637 70.7944C168.637 70.7944 168.637 70.7944 168.637 70.7944C165.632 65.0066 163.341 58.9357 157.842 56.9695Z" fill="#214775"/>
<path d="M168.658 70.7699C168.505 71.0964 168.31 71.4012 168.077 71.6762C163.16 62.9568 160.881 59.8068 158.297 58.6816C157.8 58.4724 157.28 58.3221 156.748 58.2338L156.971 56.6924C163.11 58.3139 165.475 64.6903 168.658 70.7699Z" fill="#153A5E"/>
<path d="M149.5 64.5577C155.753 64.8887 157.808 57.1095 157.841 56.9573C156.092 56.226 154.221 55.8328 152.325 55.7988C150.525 55.7614 148.725 55.9114 146.955 56.2463C146.955 56.2463 143.247 64.2139 149.5 64.5577Z" fill="white"/>
<path d="M138.832 53.2875C139.305 54.1726 141.972 54.5834 144.723 54.883L146.37 55.0601C149.97 55.4368 153.992 55.7267 157.564 55.7874C162.797 55.8718 167.075 55.4564 167.695 54.0516C169.628 49.6612 168.497 33.5558 168.497 33.5558C168.497 33.5558 141.364 34.9116 139.842 38.8039C138.876 41.2943 138.272 52.2309 138.832 53.2875Z" fill="#8D3825"/>
<path d="M139.599 43.0399C139.742 45.6662 140.101 51.622 144.75 54.8653L146.396 55.0424C149.997 55.4191 154.019 55.709 157.591 55.7697C163.435 52.0741 163.169 42.0605 163.169 42.0605L139.599 43.0399Z" fill="#77281B"/>
<path d="M149.656 62.8139C145.315 62.1284 148.805 56.2223 148.805 56.2223L149.116 48.89C149.158 47.978 149.559 47.1195 150.231 46.502C150.904 45.8846 151.793 45.5585 152.705 45.5949V45.5949C153.617 45.6363 154.476 46.0371 155.093 46.7096C155.711 47.3821 156.037 48.2716 156 49.1839L155.671 56.8682C155.607 58.0651 153.998 63.4994 149.656 62.8139Z" fill="#FFAC93"/>
<path d="M148.9 53.7109L149.097 48.8885C149.139 47.9765 149.539 47.118 150.212 46.5005C150.884 45.8831 151.774 45.557 152.686 45.5934C153.598 45.6348 154.457 46.0356 155.074 46.7081C155.692 47.3806 156.018 48.2701 155.981 49.1824L155.652 56.8667C154.136 54.9445 151.863 53.8678 148.9 53.7109Z" fill="#E97C6B"/>
<path d="M152.945 20.223C146.717 19.8933 138.631 24.6961 139.999 34.3893L163.128 40.6455L163.44 45.7966C165.9 43.9308 167.873 40.9737 168.422 36.5549C169.266 30.5601 165.44 20.8587 152.945 20.223Z" fill="#8D3825"/>
<path d="M147.455 52.6203C142.938 51.7393 137.177 46.7042 139.815 35.1884C140.058 34.1102 140.679 31.961 140.942 30.8774C142.693 23.6212 147.384 22.9131 153.682 24.2413C159.978 25.5758 163.853 31.6728 162.311 38.9785L161.721 41.765C160.172 49.0703 154.622 54.0073 147.455 52.6203Z" fill="#FFAC93"/>
<path d="M153.974 50.7194C156.091 49.413 157.985 46.2401 159.181 42.0866C159.181 42.0866 160.936 42.5196 161.515 42.608C159.735 49.4454 154.342 53.9544 147.455 52.6207C146.165 52.3601 144.944 51.8297 143.873 51.064C146.221 52.4142 150.73 52.7234 153.974 50.7194Z" fill="#E97C6B"/>
<path d="M140.318 33.226C141.807 29.332 148.807 32.2955 157.116 30.4183C156.149 35.7135 158.186 39.5566 161.1 40.0382L162.131 43.5971C164.069 39.1235 165.313 30.1846 158.782 25.1408C154.268 21.6543 146.956 23.135 144.136 24.6288C140.675 26.4801 140.318 33.226 140.318 33.226Z" fill="#8D3825"/>
<path d="M147.317 43.4607C147.019 43.3844 146.743 43.2402 146.51 43.0393C146.277 42.8384 146.094 42.5862 145.975 42.3027C145.855 42.0191 145.803 41.7118 145.823 41.4048C145.842 41.0978 145.932 40.7995 146.086 40.5331C146.31 40.0636 146.985 40.5166 146.762 40.9797C146.674 41.1422 146.625 41.3231 146.621 41.5078C146.616 41.6925 146.654 41.8758 146.734 42.0426C146.813 42.2095 146.931 42.3553 147.077 42.4681C147.224 42.5808 147.395 42.6573 147.576 42.6915C148.076 42.8398 147.823 43.6095 147.317 43.4607V43.4607Z" fill="#E97C6B"/>
<path d="M141.225 34.6344C141.697 34.2663 142.242 34.0031 142.824 33.8624C143.406 33.7216 144.011 33.7067 144.6 33.8183C145.114 33.9225 144.848 34.6915 144.347 34.5879C143.892 34.51 143.425 34.5276 142.977 34.6398C142.529 34.752 142.11 34.9563 141.745 35.2396C141.331 35.545 140.785 34.9448 141.2 34.633L141.225 34.6344Z" fill="#8B3927"/>
<path d="M154.354 36.7478C154.044 36.3852 153.66 36.0927 153.229 35.8895C152.797 35.6863 152.327 35.5771 151.849 35.5691C151.331 35.5416 151.372 34.7608 151.893 34.7562C152.473 34.7727 153.044 34.9096 153.569 35.1584C154.094 35.4071 154.561 35.7623 154.942 36.2013C155.287 36.5918 154.687 37.1376 154.342 36.7471L154.354 36.7478Z" fill="#8B3927"/>
<path d="M164.024 41.3028C163.771 42.2387 163.191 43.0531 162.39 43.5992C161.589 44.1453 160.619 44.387 159.656 44.2807C158.728 44.1097 158.989 43.0516 159.363 41.1973C159.521 40.3906 159.709 39.5149 159.878 38.7473C159.943 38.4515 160.08 38.1762 160.276 37.9455C160.472 37.7148 160.722 37.5356 161.003 37.4238C161.285 37.3121 161.589 37.271 161.89 37.3042C162.191 37.3375 162.48 37.4441 162.73 37.6146C163.33 37.9935 163.784 38.5639 164.019 39.2334C164.254 39.903 164.256 40.6322 164.024 41.3028V41.3028Z" fill="#E97C6B"/>
<path d="M162.097 41.5794C162.053 41.8748 161.906 42.1455 161.684 42.3446C161.461 42.5437 161.176 42.6589 160.877 42.6701C160.589 42.6549 160.537 42.3118 160.613 41.7318C160.772 40.5464 161.017 40.2706 161.551 40.4978C161.754 40.5861 161.919 40.7425 162.019 40.94C162.119 41.1375 162.146 41.3637 162.097 41.5794V41.5794Z" fill="#D75A50"/>
<path d="M162.329 40.219C162.285 39.96 162.146 39.5675 161.813 39.5498C161.48 39.5322 161.409 39.9009 161.339 40.1282C161.199 40.6707 161.103 41.2236 161.053 41.7817C161.039 42.0441 160.604 42.0211 160.643 41.76C160.746 41.0402 160.745 39.84 161.318 39.3248C161.891 38.8096 162.592 39.5077 162.732 40.1313C162.776 40.3903 162.374 40.4781 162.329 40.219Z" fill="#D75A50"/>
<path d="M161.536 44.528C161.46 44.7204 161.327 44.8858 161.156 45.0029C160.985 45.1199 160.783 45.1834 160.576 45.1854C160.369 45.1874 160.166 45.1277 159.993 45.014C159.819 44.9002 159.684 44.7376 159.603 44.5466C159.523 44.3557 159.501 44.1452 159.54 43.9418C159.58 43.7384 159.679 43.5513 159.825 43.4043C159.971 43.2574 160.158 43.1572 160.361 43.1165C160.564 43.0758 160.775 43.0964 160.966 43.1758C161.22 43.281 161.422 43.4818 161.529 43.7349C161.635 43.988 161.638 44.2729 161.536 44.528V44.528Z" fill="white"/>
<path d="M151.613 37.7454C151.545 38.2938 151.796 38.7757 152.197 38.8226C152.599 38.8696 152.942 38.4641 153.009 37.9157C153.077 37.3673 152.806 37.032 152.417 36.9793C152.028 36.9266 151.7 37.1916 151.613 37.7454Z" fill="#422826"/>
<path d="M144.023 36.6947C143.956 37.243 143.594 37.6539 143.211 37.608C142.829 37.562 142.598 37.0749 142.627 36.5245C142.656 35.9741 143.042 35.7121 143.424 35.7645C143.807 35.8168 144.097 36.1466 144.023 36.6947Z" fill="#422826"/>
<path d="M143.842 45.0939C143.861 45.3335 143.898 45.5715 143.952 45.8058C144.09 46.4497 144.413 47.0394 144.881 47.503C145.349 47.9666 145.941 48.2839 146.587 48.4161L146.74 48.4243L146.817 48.4283L147.054 48.4409L147.156 48.4463C147.789 48.5135 148.428 48.3978 148.997 48.1128C149.566 47.8278 150.042 47.3855 150.367 46.8384C150.491 46.6402 150.597 46.4309 150.683 46.2133C150.749 46.0422 150.806 45.8674 150.852 45.6896L143.842 45.0939Z" fill="#9B123E"/>
<path d="M150.364 46.8891C150.039 47.4362 149.564 47.8786 148.995 48.1636C148.426 48.4486 147.787 48.5643 147.154 48.497L147.058 48.4919L146.814 48.4791L146.738 48.475L146.584 48.4669L146.437 48.4591C146.647 46.917 148.445 46.5372 150.364 46.8891Z" fill="#F75063"/>
<path d="M143.842 45.0939C143.861 45.3335 143.898 45.5715 143.952 45.8058C145.75 46.2732 149.062 46.2751 150.681 46.2453C150.748 46.0742 150.804 45.8993 150.85 45.7215L143.842 45.0939Z" fill="white"/>
<ellipse cx="144.017" cy="7.60118" rx="6.80504" ry="6.80487" fill="#70E038"/>
<path d="M141.465 8.45175L143.592 10.153L146.994 5.04932" stroke="white" stroke-width="1.66713" stroke-linecap="round" stroke-linejoin="round"/>
<path d="M143.061 138.269C142.2 121.739 154.99 118.899 174.968 110.718C204.178 98.753 215.594 112.107 215.594 128.659C215.594 145.211 196.424 157.187 174.839 157.187C151.353 157.187 143.499 146.699 143.061 138.269Z" fill="#7DB6FA"/>
<path d="M142.368 121.468C145.448 122.087 144.394 124.12 143.502 124.742C136.163 129.866 134.684 126.692 132.608 122.8C130.187 118.259 141.099 121.213 142.368 121.468Z" fill="#7DB6FA"/>
<path d="M224.235 137.95C225.204 134.544 225.497 128.2 227.266 125.361C229.861 121.192 233.104 126.286 233.372 128.673C234.676 140.197 227.132 149.012 222.254 152.325C214.041 157.891 206.684 157.341 208.437 154.628C209.148 153.529 211.181 152.865 212.335 152.254C214.8 150.94 221.691 146.882 224.235 137.95Z" fill="#7DB6FA"/>
<path d="M196.024 162.105C196.706 162.37 197.439 162.475 198.167 162.411C198.895 162.348 199.599 162.117 200.224 161.738C200.885 161.336 201.456 160.732 201.696 159.994C201.935 159.256 201.79 158.361 201.222 157.831C199.969 156.665 197.178 157.353 195.927 158.234C194.676 159.114 194.462 161.484 196.024 162.105Z" fill="#7DB6FA"/>
<path d="M138.131 129.931C137.574 130.566 137.881 133.673 140.455 132.338C141.57 131.76 142.446 130.156 141.782 129.428C141.259 128.853 138.852 129.11 138.131 129.931Z" fill="#7DB6FA"/>
<path d="M172.166 135.033C172.166 135.033 162.614 130.525 166.697 124.561C170.779 118.598 166.846 119.876 167.765 115.216C168.684 110.557 173.696 104.543 182.52 106.974C198.872 111.449 191.575 134.137 191.575 134.137L172.166 135.033Z" fill="#FFBF4D"/>
<path d="M175.375 136.894C176.367 135.966 176.351 133.588 176.351 133.588C168.795 132.699 170.167 118.79 171.569 115.436C171.569 115.436 179.837 110.363 183.522 115.397C185.043 117.541 186.007 120.026 186.325 122.628C187.518 121.748 189.046 122.527 189.078 124.454C189.11 126.381 187.181 126.558 186.496 126.482C186.146 128.178 185.103 134.575 188.427 136.922C188.762 137.159 189.129 137.347 189.516 137.482C196.307 139.873 189.518 144.83 189.518 144.83L166.799 141.072C169.759 138.781 170.698 138.099 174.351 137.236C174.582 137.262 174.815 137.224 175.025 137.126C175.155 137.07 175.273 136.991 175.375 136.894Z" fill="#FFD2C0"/>
<path d="M170.564 115.19C171.155 116.898 174.743 116.427 175.742 114.711C175.742 114.711 184.258 123.68 186.346 122.62C186.557 122.205 186.649 121.74 186.613 121.276C186.078 117.651 182.994 106.809 170.564 115.19Z" fill="#FFBF4D"/>
<path d="M173.201 121.276C172.928 121.256 172.732 120.879 172.764 120.435C172.796 119.991 173.043 119.648 173.316 119.669C173.589 119.689 173.784 120.066 173.752 120.51C173.721 120.954 173.474 121.297 173.201 121.276Z" fill="#662626"/>
<path d="M180.045 121.952C179.772 121.931 179.577 121.555 179.608 121.111C179.64 120.667 179.887 120.324 180.16 120.344C180.433 120.365 180.629 120.742 180.597 121.186C180.565 121.63 180.318 121.973 180.045 121.952Z" fill="#662626"/>
<path d="M176.511 121.801C176.316 124.505 173.862 126.343 177.068 126.294" stroke="#662626" stroke-width="0.55571" stroke-linecap="round" stroke-linejoin="round"/>
<path d="M183.915 131.339C183.358 133.102 182.208 134.618 180.657 135.632C179.106 136.645 177.249 137.094 175.399 136.904C176.391 135.977 176.375 133.602 176.375 133.602C179.091 133.838 181.79 133.028 183.915 131.339V131.339Z" fill="#EFB8AF"/>
<path d="M175.905 129.495C176.131 129.696 176.396 129.85 176.682 129.95C176.968 130.049 177.272 130.092 177.574 130.075C177.876 130.059 178.172 129.983 178.445 129.852C178.717 129.722 178.96 129.539 179.161 129.315L179.222 129.255" stroke="#662626" stroke-width="0.55571" stroke-linecap="round" stroke-linejoin="round"/>
<path d="M161.231 142.202C171.64 151.051 181.825 152.406 194.609 146.152C194.609 146.152 196.109 140.128 189.899 137.731C189.787 137.679 189.671 137.635 189.552 137.6L189.463 137.593C189.078 137.456 188.712 137.269 188.376 137.035C186.778 138.623 178.955 142.536 176.088 142.029C173.221 141.521 174.856 137.502 174.948 137.243C174.733 137.307 174.509 137.339 174.284 137.338C174.284 137.338 173.97 137.314 173.429 137.273C173.35 137.259 173.268 137.253 173.187 137.255C171.159 137.262 164.815 139.386 161.231 142.202Z" fill="#FF9F5E"/>
<path d="M171.612 125.031C171.143 124.995 170.804 124.401 170.854 123.704C170.904 123.006 171.324 122.47 171.793 122.505C172.262 122.541 172.602 123.135 172.552 123.833C172.502 124.53 172.081 125.066 171.612 125.031Z" fill="#FFAA9D"/>
<path d="M181.38 125.841C180.911 125.806 180.571 125.211 180.621 124.514C180.672 123.817 181.092 123.28 181.561 123.316C182.03 123.351 182.37 123.945 182.32 124.643C182.27 125.34 181.849 125.877 181.38 125.841Z" fill="#FFAA9D"/>
<path d="M168.887 114.401C168.887 114.401 167.254 116.23 167.829 120.08C168.403 123.929 166.564 125.329 166.564 125.329" stroke="#FFB149" stroke-width="0.277855" stroke-linecap="round" stroke-linejoin="round"/>
<path d="M166.77 126.67C166.77 126.67 165.613 128.855 169.996 132.577" stroke="#BF7C2C" stroke-width="0.277855" stroke-linecap="round" stroke-linejoin="round"/>
<path d="M171.184 131.265C171.809 132.297 172.609 133.214 173.548 133.974" stroke="#BF7C2C" stroke-width="0.277855" stroke-linecap="round" stroke-linejoin="round"/>
<path d="M178.633 110.313C178.633 110.313 184.6 108.005 186.072 114.969" stroke="#BF7C2C" stroke-width="0.277855" stroke-linecap="round" stroke-linejoin="round"/>
<path d="M175.82 108.477C189.615 106.949 185.586 114.367 190.525 117.663" stroke="#BF7C2C" stroke-width="0.277855" stroke-linecap="round" stroke-linejoin="round"/>
<path d="M191.63 116.298C194.158 121.964 194.342 128.375 192.143 134.153" stroke="#FFB149" stroke-width="0.277855" stroke-linecap="round" stroke-linejoin="round"/>
<path d="M175.143 143.599C180.086 144.78 186.915 140.032 189.896 137.702L189.549 137.571L189.46 137.564C189.074 137.427 188.709 137.24 188.373 137.006C186.775 138.594 178.952 142.501 176.085 142.001C173.217 141.502 174.853 137.473 174.944 137.214C174.729 137.278 174.506 137.31 174.281 137.309C173.997 137.271 173.712 137.25 173.426 137.244C172.101 139.539 171.18 142.654 175.143 143.599Z" fill="white"/>
<path d="M48.0241 120.782C48.0241 103.43 60.2792 98.5113 77.4139 101.232C96.7685 104.303 112.174 116.804 114.3 128.397C117.43 145.464 98.6919 151.291 81.3393 151.291C63.9866 151.291 48.0241 138.133 48.0241 120.782Z" fill="#5ACCC5"/>
<path d="M90.3203 112.557C90.3203 112.557 94.4957 112.037 94.6606 106.429C94.8255 100.822 89.2787 98.4091 85.0165 100.414C81.8483 101.717 78.4811 102.472 75.0596 102.645C74.6776 102.351 74.2162 102.178 73.7351 102.149C73.2539 102.119 72.775 102.235 72.3601 102.48C70.8496 103.348 71.414 105.622 71.414 105.622C71.414 105.622 63.3843 121.532 74.4001 122.166L90.3203 112.557Z" fill="#282828"/>
<path d="M85.077 133.224C84.0788 132.148 84.2785 129.587 84.2785 129.587C92.4383 129.249 92.0305 114.18 90.7979 110.491C90.7979 110.491 82.334 104.363 78.0024 109.476C76.168 111.681 74.8989 114.3 74.3047 117.106C73.0894 116.064 71.5181 115.899 70.7803 116.741C70.0424 117.583 70.3983 119.154 71.6483 120.213C72.2856 120.805 73.1218 121.137 73.9918 121.142C74.2349 123.008 74.8603 129.96 71.1189 132.209C70.743 132.436 70.3366 132.608 69.9122 132.721C62.4555 134.743 60.3635 137.929 60.3635 137.929H98.0895C93.2544 133.493 86.2232 133.719 86.2232 133.719C85.976 133.734 85.7293 133.68 85.5111 133.563C85.3453 133.48 85.1977 133.365 85.077 133.224V133.224Z" fill="#7F4C26"/>
<path d="M91.9268 110.283C92.6126 110.9 88.4547 110.735 86.4149 109.346C86.4149 109.346 80.3912 113.365 77.6482 108.599C77.6569 108.608 84.0973 103.244 91.9268 110.283Z" fill="#282828"/>
<path d="M75.2509 113.339C75.2509 113.339 76.6831 118.773 75.2509 118.486C73.8187 118.2 73.5149 114.146 73.5149 114.146L75.2509 113.339Z" fill="#282828"/>
<path d="M88.6371 116.602C88.3447 116.602 88.1078 116.213 88.1078 115.734C88.1078 115.255 88.3447 114.866 88.6371 114.866C88.9296 114.866 89.1665 115.255 89.1665 115.734C89.1665 116.213 88.9296 116.602 88.6371 116.602Z" fill="#282828"/>
<path d="M81.2413 116.785C80.9488 116.785 80.7119 116.396 80.7119 115.917C80.7119 115.437 80.9488 115.049 81.2413 115.049C81.5337 115.049 81.7711 115.437 81.7711 115.917C81.7711 116.396 81.5337 116.785 81.2413 116.785Z" fill="#282828"/>
<path d="M85.0346 116.906C85.0346 119.822 87.5171 121.992 84.0971 121.688" stroke="#282828" stroke-width="0.55571" stroke-linecap="round" stroke-linejoin="round"/>
<path d="M76.3463 126.55C76.8045 128.502 77.9247 130.236 79.5166 131.456C81.1085 132.676 83.0735 133.307 85.0781 133.242C84.0799 132.166 84.2796 129.605 84.2796 129.605C81.3413 129.641 78.5016 128.547 76.3463 126.55V126.55Z" fill="#663A1D"/>
<path d="M85.3036 125.89C85.3036 125.89 82.3002 126.689 81.0936 124.64" stroke="#282828" stroke-width="0.55571" stroke-linecap="round" stroke-linejoin="round"/>
<path d="M60.3375 137.903C73.5581 145.715 86.206 146.583 98.0551 137.903C95.0462 135.381 91.2916 133.917 87.3692 133.737C86.6313 133.685 86.1887 133.694 86.1887 133.694C85.9408 133.705 85.6941 133.648 85.4766 133.529C84.3134 134.605 82.5946 136.228 80.4852 136.002C77.7161 135.699 72.673 134.067 71.1018 132.218C70.7251 132.443 70.319 132.616 69.8951 132.73H69.7997C62.4125 134.779 60.3375 137.903 60.3375 137.903Z" fill="#F48691"/>
<path d="M69.8015 132.765C71.7979 134.926 77.735 136.705 81.1637 136.931C84.1323 137.139 86.4671 134.796 87.3699 133.737C86.6321 133.685 86.1895 133.694 86.1895 133.694C85.9416 133.705 85.695 133.648 85.4774 133.529C84.3143 134.605 82.5956 136.228 80.4864 136.002C77.7174 135.699 72.6746 134.067 71.1035 132.218C70.7268 132.443 70.3207 132.616 69.8968 132.73L69.8015 132.765Z" fill="white"/>
<path d="M106.901 147.995C109.717 146.536 112.25 143.452 114.141 140.905C114.81 140.005 115.357 138.989 116.234 138.286C117.11 137.584 118.451 137.278 119.334 137.969C120 138.49 120.209 139.407 120.229 140.252C120.278 142.385 119.387 144.468 118.047 146.131C116.706 147.794 114.952 149.074 113.112 150.153C107.26 153.571 100.504 155.122 93.7468 154.596C92.6308 154.503 90.3865 153.774 91.294 152.189C91.9067 151.118 94.6758 151.197 95.7479 150.931C99.546 149.988 103.441 149.788 106.901 147.995Z" fill="#5ACCC5"/>
<path d="M44.4493 106.432C43.4278 104.973 45.1976 100.975 46.5915 99.3668C48.6373 97.003 51.3913 95.7186 54.4726 95.3445C54.8275 95.2977 55.1849 95.2721 55.5428 95.2678C55.904 95.2606 56.2641 95.3098 56.6101 95.4137C56.9488 95.5222 57.1854 95.6896 57.2986 95.8992C57.3716 96.0367 57.2846 96.2397 57.0451 96.3847C55.8954 97.0806 53.3164 97.1798 50.235 100.067C47.7449 102.406 47.7037 105.52 46.4137 106.694C45.815 107.246 44.8338 106.981 44.4493 106.432Z" fill="#5ACCC5"/>
<path d="M43.3819 111.739C43.4399 112.047 43.583 112.364 43.8599 112.511C44.0625 112.6 44.2862 112.631 44.5054 112.599C44.7008 112.596 44.8912 112.537 45.0536 112.428C45.2668 112.261 45.3342 111.971 45.38 111.704C45.4736 111.198 45.5213 110.628 45.2126 110.218C44.9254 109.837 44.2425 109.69 43.8365 109.979C43.3632 110.316 43.2846 111.222 43.3819 111.739Z" fill="#5ACCC5"/>
<path d="M3.85541 54.4527C-8.52476 41.7255 10.6192 32.3302 36.952 35.1482C49.5199 36.494 66.7976 44.6682 68.7743 62.4457C70.5676 78.5768 54.0873 85.116 32.6729 81.4423C11.5335 77.8159 14.4908 65.3863 3.85541 54.4527Z" fill="#F09AF5"/>
<path d="M54.2121 67.832C56.7609 65.1811 57.0993 56.9925 52.2062 52.5088C47.313 48.0251 51.8912 47.6475 51.3327 43.0694C51.1429 41.5128 50.618 40.016 49.7939 38.6818C48.9698 37.3476 47.8663 36.2079 46.5592 35.3414C45.2522 34.4748 43.7727 33.9019 42.2229 33.6621C40.6731 33.4224 39.0894 33.5216 37.5816 33.9527C28.9281 35.9114 31.2882 43.2425 26.875 44.6741C22.4617 46.1058 20.9277 51.3526 24.9555 56.8039C28.9833 62.2551 18.5203 59.7535 19.0789 69.0749L54.2121 67.832Z" fill="#662626"/>
<path d="M42.4509 63.5923C41.5463 62.6169 41.7273 60.2964 41.7273 60.2964C49.1142 59.9897 48.7525 46.3341 47.6354 42.9909C47.6354 42.9909 39.9651 37.4373 36.0396 42.0705C34.4099 44.0466 33.301 46.3995 32.8141 48.9142C31.7207 47.9624 30.1866 48.6074 30.0135 50.4874C29.8404 52.3674 31.7127 52.6663 32.3735 52.6427C32.5938 54.3339 33.1606 60.6347 29.77 62.6799C29.4293 62.8856 29.061 63.0418 28.6764 63.1439C21.9188 64.9688 20.0229 67.8636 20.0229 67.8636H54.2119C49.8301 63.844 43.4581 64.0486 43.4581 64.0486C43.2334 64.0592 43.0099 64.0074 42.8128 63.899C42.6709 63.8249 42.5473 63.7202 42.4509 63.5923V63.5923Z" fill="#F9AB93"/>
<path d="M48.658 42.8099C47.9736 44.4304 44.5205 43.7066 43.6709 41.9603C43.6709 41.9603 34.5378 49.9916 32.587 48.7959C32.587 48.7959 35.0807 32.0491 48.658 42.8099Z" fill="#662626"/>
<path d="M45.6766 48.5364C45.4116 48.5364 45.1969 48.1842 45.1969 47.7498C45.1969 47.3153 45.4116 46.9632 45.6766 46.9632C45.9416 46.9632 46.1564 47.3153 46.1564 47.7498C46.1564 48.1842 45.9416 48.5364 45.6766 48.5364Z" fill="#662626"/>
<path d="M38.9745 48.6944C38.7095 48.6944 38.4948 48.3422 38.4948 47.9078C38.4948 47.4734 38.7095 47.1212 38.9745 47.1212C39.2396 47.1212 39.4543 47.4734 39.4543 47.9078C39.4543 48.3422 39.2396 48.6944 38.9745 48.6944Z" fill="#662626"/>
<path d="M42.4203 48.795C42.4203 51.4459 44.6623 53.4124 41.563 53.1371" stroke="#662626" stroke-width="0.55571" stroke-linecap="round" stroke-linejoin="round"/>
<path d="M34.5383 57.5265C34.9536 59.296 35.9691 60.8671 37.4117 61.9727C38.8544 63.0783 40.6352 63.6503 42.4519 63.5913C41.5472 62.6159 41.7282 60.2954 41.7282 60.2954C39.0654 60.3278 36.4916 59.3366 34.5383 57.5265V57.5265Z" fill="#ED8979"/>
<path d="M42.7582 56.5907C42.591 56.9033 42.3077 57.1377 41.9693 57.2437C41.6309 57.3496 41.2648 57.3185 40.9491 57.1571C40.7029 57.0261 40.5025 56.823 40.3749 56.575" stroke="#662626" stroke-width="0.55571" stroke-linecap="round" stroke-linejoin="round"/>
<path d="M20.0306 67.8319C32.0117 74.9114 43.4738 75.698 54.2119 67.8319C51.4852 65.5458 48.0826 64.2193 44.5279 64.0563C43.8592 64.0091 43.4581 64.0563 43.4581 64.0563C43.2331 64.0709 43.0085 64.0188 42.8128 63.9067C41.7586 64.8821 40.201 66.3531 38.2894 66.1486C35.7799 65.8733 31.2096 64.3944 29.7857 62.7189C29.4444 62.9232 29.0763 63.0795 28.6921 63.1831H28.6057C21.9111 64.9766 20.0306 67.8319 20.0306 67.8319Z" fill="#44AA02"/>
<path d="M46.9512 52.2962C46.4907 52.2962 46.1173 51.7434 46.1173 51.0613C46.1173 50.3793 46.4907 49.8263 46.9512 49.8263C47.4117 49.8263 47.7851 50.3793 47.7851 51.0613C47.7851 51.7434 47.4117 52.2962 46.9512 52.2962Z" fill="#E97C6B"/>
<path d="M37.402 52.3834C36.9415 52.3834 36.5681 51.8304 36.5681 51.1484C36.5681 50.4663 36.9415 49.9135 37.402 49.9135C37.8625 49.9135 38.2359 50.4663 38.2359 51.1484C38.2359 51.8304 37.8625 52.3834 37.402 52.3834Z" fill="#E97C6B"/>
<path d="M24.6324 47.671C22.7209 49.5904 21.069 52.7762 23.5155 56.3238C24.41 57.432 24.8294 58.8492 24.682 60.2657C24.5346 61.6822 23.8324 62.9829 22.7288 63.8832" stroke="#662626" stroke-width="0.277855" stroke-miterlimit="10"/>
<path d="M41.9801 35.1792C26.4519 34.6365 31.1085 43.533 25.1616 46.3885" stroke="#662626" stroke-width="0.277855" stroke-miterlimit="10"/>
<path d="M50.3654 42.1648C50.3654 42.1648 52.041 45.5787 50.8217 47.7733C49.6024 49.968 51.8441 52.965 51.8441 52.965" stroke="#662626" stroke-width="0.277855" stroke-miterlimit="10"/>
<path d="M50.617 52.9413C52.2992 54.4797 53.4434 56.5174 53.8814 58.7545" stroke="#4C1A1A" stroke-width="0.277855" stroke-linecap="round" stroke-linejoin="round"/>
<path d="M51.3251 56.45C51.9318 57.4584 52.3552 58.5664 52.5757 59.7224" stroke="#4C1A1A" stroke-width="0.277855" stroke-linecap="round" stroke-linejoin="round"/>
<path d="M27.7948 45.759C27.7948 45.759 21.73 47.2851 24.5304 53.6252" stroke="#4C1A1A" stroke-width="0.277855" stroke-linecap="round" stroke-linejoin="round"/>
<path d="M45.0162 36.7447C31.7221 34.2276 35.1125 41.7712 30.0702 44.6109" stroke="#4C1A1A" stroke-width="0.277855" stroke-linecap="round" stroke-linejoin="round"/>
<path d="M55.8729 28.1734C59.2427 29.3192 62.6527 30.76 65.0638 33.3743C65.4974 33.8431 65.9232 34.4246 65.8278 35.0586C65.7256 35.813 64.9492 36.2827 64.214 36.4823C61.6739 37.1717 59.0116 35.9323 56.8612 34.4075C54.7107 32.8826 52.7522 31.0102 50.2599 30.1508C48.1725 29.4328 45.9113 29.5015 43.7045 29.4414C43.4314 29.4338 43.1487 29.4213 42.9043 29.3001C41.8252 28.7625 42.4698 27.3312 43.2299 26.8557C44.1323 26.2914 45.6105 26.3726 46.6332 26.3602C49.792 26.3229 52.9021 27.166 55.8729 28.1734Z" fill="#F09AF5"/>
<path d="M35.3795 27.0089C34.8228 27.2629 34.3196 27.6916 34.1133 28.2664C34.0236 28.5156 33.9959 28.8049 34.1219 29.0379C34.2086 29.1837 34.333 29.3034 34.4819 29.3845C34.9813 29.6814 35.5924 29.6996 36.173 29.7091C36.3414 29.7222 36.5109 29.705 36.6733 29.6585C36.8271 29.5968 36.9656 29.5023 37.0791 29.3816C37.4939 28.9734 37.7695 28.4449 37.8669 27.8711C38.1237 26.331 36.193 26.6384 35.3795 27.0089Z" fill="#F09AF5"/>
<path d="M26.4394 83.612C26.0335 83.7295 25.6048 84.0197 25.6449 84.5668C25.6643 84.7487 25.7171 84.9254 25.8006 85.0882C25.9582 85.4172 26.1877 85.7067 26.4721 85.9353C26.7565 86.1638 27.0886 86.3256 27.4439 86.4087C28.1963 86.5596 30.2759 86.2435 29.9704 84.8485C29.6133 83.2186 27.2004 83.3886 26.4394 83.612Z" fill="#F09AF5"/>
<path d="M12.3912 74.8437C10.619 71.8837 9.9411 68.983 7.32576 66.2035C6.76622 65.6096 5.73116 64.6662 4.9033 64.6643C2.72433 65.0815 2.72051 69.4384 7.5702 76.0267C8.89744 77.8314 12.2958 80.4247 14.0355 81.5361C16.5888 83.1669 23.5449 85.49 22.4888 83.2089C22.1059 82.3849 16.4179 81.5685 12.3912 74.8437Z" fill="#F09AF5"/>
<path d="M195.765 60.5342C193.567 38.8485 215.116 23.171 237.462 46.9642C248.19 58.3913 260.52 58.8314 259.263 74.6103C257.935 91.2916 200.936 111.504 195.765 60.5342Z" fill="#FFCE38"/>
<path d="M214.148 73.3622C214.603 74.1156 216.959 74.3518 219.383 74.4867L220.834 74.5655C224.005 74.7285 227.542 74.796 230.674 74.6835C235.262 74.5149 238.99 73.9526 239.468 72.6931C240.958 68.7574 239.221 54.701 239.221 54.701C239.221 54.701 215.514 57.1469 214.362 60.6272C213.631 62.8537 213.608 72.4626 214.148 73.3622Z" fill="#242424"/>
<path d="M214.292 63.8206C214.524 66.219 215.077 71.6566 219.032 74.4018L220.391 74.4842C223.361 74.6547 226.674 74.7252 229.607 74.6076C234.242 70.9395 233.589 61.7808 233.589 61.7808L214.292 63.8206Z" fill="black"/>
<path d="M224.978 43.742C219.507 43.742 212.647 48.3243 214.294 56.7525L234.846 61.1606L235.358 65.6586C237.427 63.91 239.019 61.2281 239.294 57.3316C239.755 52.0408 235.954 43.7195 224.978 43.742Z" fill="#242424"/>
<path d="M220.785 75.5874C221.718 74.5808 221.532 72.1862 221.532 72.1862C213.909 71.8696 213.139 59.4333 214.292 55.9834C214.292 55.9834 225.704 48.6251 229.755 53.4064C231.437 55.4457 230.873 56.9188 231.375 59.5138C232.333 59.2046 233.443 59.1972 233.621 61.1373C233.8 63.0775 232.512 63.3859 231.83 63.3616C231.603 65.1068 230.372 72.5352 233.871 74.6458C234.223 74.8581 234.603 75.0192 235 75.1246C241.973 77.0079 243.93 79.9952 243.93 79.9952H208.648C213.17 75.8471 219.745 76.0583 219.745 76.0583C219.977 76.0692 220.208 76.0157 220.411 75.9039C220.558 75.8274 220.685 75.7193 220.785 75.5874Z" fill="#FDBCA0"/>
<path d="M228.951 69.3278C228.523 71.1539 227.475 72.7752 225.986 73.9161C224.497 75.0571 222.659 75.6473 220.785 75.5864C221.718 74.5798 221.532 72.1852 221.532 72.1852C224.28 72.2186 226.936 71.1958 228.951 69.3278V69.3278Z" fill="#ED9789"/>
<path d="M243.922 79.9626C231.558 87.2685 219.73 88.0802 208.648 79.9626C211.462 77.6034 214.973 76.2345 218.642 76.0663C219.332 76.0176 219.746 76.0663 219.746 76.0663C219.978 76.0814 220.21 76.0276 220.412 75.9119C221.5 76.9185 223.107 78.4366 225.08 78.2255C227.669 77.9414 232.386 76.4152 233.855 74.6862C234.208 74.897 234.587 75.0583 234.984 75.1652H235.073C241.982 77.016 243.922 79.9626 243.922 79.9626Z" fill="#7676CE"/>
<path d="M220.246 67.488C220.246 67.488 222.469 69.0425 224.066 66.9354" stroke="#8D3825" stroke-width="0.55571" stroke-linecap="round" stroke-linejoin="round"/>
<path d="M220.062 60.4931C220.062 62.8391 218.302 64.5794 220.735 64.3358" stroke="#8D3825" stroke-width="0.55571" stroke-linecap="round" stroke-linejoin="round"/>
<path d="M214.519 55.7183C215.644 52.2379 221.913 54.5094 229.104 52.4797C228.503 57.1633 231.045 58.9175 233.62 59.2042L234.108 63.7922C235.599 59.7833 236.273 51.8949 230.319 47.7792C226.203 44.9342 219.866 46.5704 217.465 48.0098C214.519 49.7922 214.519 55.7183 214.519 55.7183Z" fill="#242424"/>
<path d="M215.38 56.9104C215.777 56.566 216.242 56.3102 216.745 56.1599C217.249 56.0096 217.778 55.9685 218.299 56.039C218.754 56.1064 218.557 56.7924 218.113 56.7249C217.711 56.6778 217.303 56.7148 216.916 56.8339C216.528 56.953 216.17 57.1514 215.864 57.4165C215.515 57.7032 215.009 57.2027 215.358 56.9104H215.38Z" fill="#8B3927"/>
<path d="M226.981 58.1523C226.692 57.8491 226.343 57.6106 225.955 57.4527C225.567 57.2947 225.15 57.2208 224.732 57.2359C224.277 57.2359 224.277 56.5499 224.732 56.5218C225.241 56.5093 225.748 56.6028 226.219 56.7964C226.691 56.9899 227.117 57.2794 227.47 57.6463C227.791 57.9724 227.29 58.4784 226.97 58.1523H226.981Z" fill="#8B3927"/>
<path d="M224.625 59.1533C224.591 59.6369 224.833 60.0474 225.187 60.0699C225.541 60.0924 225.823 59.7213 225.856 59.2378C225.89 58.7542 225.637 58.473 225.294 58.4449C224.951 58.4168 224.676 58.6642 224.625 59.1533Z" fill="#422826"/>
<path d="M217.927 58.5861C217.893 59.0697 217.595 59.4464 217.258 59.4239C216.92 59.4014 216.695 58.9854 216.695 58.5018C216.695 58.0183 217.021 57.7709 217.359 57.799C217.696 57.8271 217.966 58.1026 217.927 58.5861Z" fill="#422826"/>
<path d="M217.173 102.823C217.625 103.88 218.646 104.536 219.847 104.544C220.546 104.551 221.229 104.33 221.791 103.914C222.392 103.462 222.857 102.713 222.857 102.039C222.857 100.553 220.798 99.7499 219.518 99.8294C218.238 99.9089 216.65 101.607 217.173 102.823Z" fill="#FFCE38"/>
<path d="M242.113 95.8479C237.597 97.0206 233.583 96.7617 228.972 99.1267C227.985 99.6329 226.363 100.632 226.039 101.732C225.731 104.795 236.438 107.98 251.408 96.3382C254.671 93.8006 260.219 85.2785 256.861 85.7705C255.643 85.9467 252.375 93.1786 242.113 95.8479Z" fill="#FFCE38"/>
<path d="M215.784 31.8428C223.437 31.4825 228.529 34.8108 233.893 38.4371C234.882 39.105 237.146 41.2123 238.102 40.7889C240.605 39.6792 237.69 34.0175 235.694 32.3012C227.923 25.6175 221.744 25.2958 212.065 27.7993C208.45 28.7337 201.721 31.7017 203.016 33.4329C204.311 35.1641 211.38 32.0497 215.784 31.8428Z" fill="#FFCE38"/>
<path d="M245.395 49.1626C247.068 49.7517 249.016 49.6661 249.187 48.7508C249.474 47.2169 247.057 47.7606 245.048 44.6385C244.313 43.4941 242.825 43.569 242.356 44.175C241.04 45.8782 243.327 48.4353 245.395 49.1626Z" fill="#FFCE38"/>
</svg>
