<svg width="94" height="79" viewBox="0 0 94 79" fill="none" xmlns="http://www.w3.org/2000/svg">
<path opacity="0.2" fill-rule="evenodd" clip-rule="evenodd" d="M68.4743 16.292C63.3954 9.06742 57.868 -5.18453 44.0278 1.94144C30.1876 9.06742 41.9432 42.7918 21.6582 31.6328C1.37322 20.4738 -5.81453 52.5287 5.04427 64.8348C15.9031 77.1408 24.534 75.1219 48.9995 75.1219C73.4649 75.1219 93.4083 74.1579 93.4083 46.0648C93.4083 17.9716 73.399 23.2973 68.4743 16.292Z" fill="#52B700"/>
<path d="M77.1581 1.27173V45.0518H50.613V44.4175C50.6157 42.1683 50.0404 39.9563 48.9423 37.9935L59.5746 27.37C59.8807 27.0646 60.1234 26.7018 60.2891 26.3024C60.4548 25.9031 60.5401 25.4749 60.5401 25.0425C60.5401 24.6101 60.4548 24.182 60.2891 23.7826C60.1234 23.3832 59.8807 23.0204 59.5746 22.715C59.271 22.4057 58.9088 22.1603 58.5092 21.9926C58.1095 21.8248 57.6805 21.7382 57.2471 21.7382C56.8136 21.7382 56.3846 21.8248 55.985 21.9926C55.5854 22.1603 55.2232 22.4057 54.9196 22.715L44.3587 33.1954C43.6264 32.74 42.8513 32.3571 42.0446 32.052L37.4343 36.6978L32.8241 32.052C30.2928 33.0572 28.1223 34.8001 26.5943 37.0546C25.0663 39.3091 24.2515 41.971 24.2557 44.6945V45.0252H19.7883V1.24512L77.1581 1.27173Z" fill="white" stroke="#5ABE37" stroke-width="1.5" stroke-linecap="round" stroke-linejoin="round"/>
<path d="M24.2557 45.016H16.0089V48.849H24.2557V45.016Z" stroke="#5ABE37" stroke-width="1.5" stroke-linecap="round" stroke-linejoin="round"/>
<path d="M80.9648 45.0161H50.5957V48.8491H80.9648V45.0161Z" stroke="#5ABE37" stroke-width="1.5" stroke-linecap="round" stroke-linejoin="round"/>
<path d="M37.8455 29.2641C42.6961 29.2641 46.6283 25.3319 46.6283 20.4813C46.6283 15.6307 42.6961 11.6985 37.8455 11.6985C32.9949 11.6985 29.0627 15.6307 29.0627 20.4813C29.0627 25.3319 32.9949 29.2641 37.8455 29.2641Z" stroke="#5ABE37" stroke-width="1.5" stroke-linecap="round" stroke-linejoin="round"/>
<path d="M59.5478 27.3342L48.9155 37.9577C50.0136 39.9205 50.5889 42.1325 50.5862 44.3817V51.6634H24.2557V44.6945C24.2526 41.9735 25.067 39.3142 26.5931 37.0616C28.1193 34.809 30.287 33.0667 32.8152 32.0607L37.4254 36.7069L42.0358 32.0607C42.8425 32.3658 43.6174 32.7491 44.3498 33.2046L54.8839 22.6884C55.1875 22.3791 55.5496 22.1332 55.9492 21.9655C56.3489 21.7978 56.778 21.7116 57.2114 21.7116C57.6448 21.7116 58.0738 21.7978 58.4734 21.9655C58.8731 22.1332 59.2353 22.3791 59.5388 22.6884C60.1555 23.3037 60.5027 24.1383 60.5044 25.0093C60.5061 25.8804 60.162 26.7166 59.5478 27.3342Z" fill="white" stroke="#5ABE37" stroke-width="1.5" stroke-linecap="round" stroke-linejoin="round"/>
<path d="M32.8154 32.0518H42.045" stroke="#5ABE37" stroke-width="1.5" stroke-linecap="round" stroke-linejoin="round"/>
<path d="M29.3663 19.3108C29.3663 19.3108 31.3587 19.7666 35.29 16.3089C35.29 16.3089 40.8027 20.3117 46.4137 18.5783" stroke="#5ABE37" stroke-width="1.5" stroke-linecap="round" stroke-linejoin="round"/>
<path d="M54.9199 8.68799H71.9495" stroke="#5ABE37" stroke-width="1.5" stroke-linecap="round" stroke-linejoin="round"/>
<path d="M58.3955 14.0303H71.9495" stroke="#5ABE37" stroke-width="1.5" stroke-linecap="round" stroke-linejoin="round"/>
<path d="M65.6055 18.9627H71.9492" stroke="#5ABE37" stroke-width="1.5" stroke-linecap="round" stroke-linejoin="round"/>
<path d="M68.0273 24.3052H71.9497" stroke="#5ABE37" stroke-width="1.5" stroke-linecap="round" stroke-linejoin="round"/>
<path d="M25.3908 68.6303C28.1443 68.6303 30.3764 66.3982 30.3764 63.6447C30.3764 60.8913 28.1443 58.6592 25.3908 58.6592C22.6374 58.6592 20.4053 60.8913 20.4053 63.6447C20.4053 66.3982 22.6374 68.6303 25.3908 68.6303Z" stroke="#5ABE37" stroke-width="1.5" stroke-linecap="round" stroke-linejoin="round"/>
<path d="M16 78.1373C16 76.6894 16.5752 75.3005 17.5989 74.2768C18.6227 73.253 20.0112 72.6779 21.4591 72.6779H29.3216C30.0385 72.6779 30.7484 72.8193 31.4107 73.0936C32.0731 73.368 32.6749 73.7698 33.1818 74.2768C33.6887 74.7837 34.0908 75.3857 34.3652 76.048C34.6395 76.7103 34.7808 77.4204 34.7808 78.1373" stroke="#5ABE37" stroke-width="1.5" stroke-linecap="round" stroke-linejoin="round"/>
<path d="M48.4866 68.6305C51.2401 68.6305 53.4722 66.3984 53.4722 63.6449C53.4722 60.8915 51.2401 58.6594 48.4866 58.6594C45.7332 58.6594 43.5011 60.8915 43.5011 63.6449C43.5011 66.3984 45.7332 68.6305 48.4866 68.6305Z" stroke="#5ABE37" stroke-width="1.5" stroke-linecap="round" stroke-linejoin="round"/>
<path d="M39.0967 78.1372C39.0967 76.6909 39.6706 75.3037 40.6925 74.2801C41.7143 73.2566 43.1006 72.6801 44.5469 72.6777H52.4005C53.8476 72.6801 55.2348 73.256 56.258 74.2793C57.2813 75.3025 57.8572 76.69 57.8596 78.1372V78.1372" stroke="#5ABE37" stroke-width="1.5" stroke-linecap="round" stroke-linejoin="round"/>
<path d="M71.5832 68.6303C74.3367 68.6303 76.5688 66.3982 76.5688 63.6447C76.5688 60.8913 74.3367 58.6592 71.5832 58.6592C68.8298 58.6592 66.5977 60.8913 66.5977 63.6447C66.5977 66.3982 68.8298 68.6303 71.5832 68.6303Z" stroke="#5ABE37" stroke-width="1.5" stroke-linecap="round" stroke-linejoin="round"/>
<path d="M62.2285 78.1372C62.2285 76.6909 62.8024 75.3037 63.8243 74.2801C64.8461 73.2566 66.2324 72.6801 67.6787 72.6777H75.5501C76.9964 72.6801 78.3827 73.2566 79.4045 74.2801C80.4264 75.3037 81.0003 76.6909 81.0003 78.1372V78.1372" stroke="#5ABE37" stroke-width="1.5" stroke-linecap="round" stroke-linejoin="round"/>
<path d="M29.3664 44.5959V51.6722" stroke="#5ABE37" stroke-width="1.5" stroke-linecap="round" stroke-linejoin="round"/>
<path d="M37.5502 41.7191C38.1276 41.7191 38.5956 41.2511 38.5956 40.6738C38.5956 40.0964 38.1276 39.6284 37.5502 39.6284C36.9729 39.6284 36.5049 40.0964 36.5049 40.6738C36.5049 41.2511 36.9729 41.7191 37.5502 41.7191Z" stroke="#5ABE37" stroke-width="1.5" stroke-linecap="round" stroke-linejoin="round"/>
<path d="M37.5502 46.0351C38.1276 46.0351 38.5956 45.567 38.5956 44.9897C38.5956 44.4124 38.1276 43.9443 37.5502 43.9443C36.9729 43.9443 36.5049 44.4124 36.5049 44.9897C36.5049 45.567 36.9729 46.0351 37.5502 46.0351Z" stroke="#5ABE37" stroke-width="1.5" stroke-linecap="round" stroke-linejoin="round"/>
</svg>
