<svg width="232" height="162" viewBox="0 0 232 162" fill="none" xmlns="http://www.w3.org/2000/svg">
<circle opacity="0.2" cx="116" cy="75.0002" r="70" fill="#7A67D7"/>
<mask id="mask0_445_42592" style="mask-type:alpha" maskUnits="userSpaceOnUse" x="46" y="-20" width="140" height="166">
<path d="M186 75.0002C186 113.66 154.66 145 116 145C77.3401 145 46 113.66 46 75.0002C46 36.3403 77.3401 -20 116 -20C154.66 -20 186 36.3403 186 75.0002Z" fill="#7A67D7"/>
</mask>
<g mask="url(#mask0_445_42592)">
</g>
<path d="M105.651 51.6266L104.348 53.2797L100.482 58.163L98.9629 60.0775L94.7086 65.447L93.1892 67.3858L89.1233 72.5061L84.2278 78.6718L79.539 84.637L78.2353 86.2779L76.3574 84.798L70.8875 80.4708L69.0247 78.9939L70.3284 77.3408L95.1249 45.9957L96.4437 44.3548L97.9631 45.5703L101.044 48.0013L104.114 50.4324L105.651 51.6266Z" fill="#71C1EF"/>
<path d="M68.7117 83.1996L74.1816 87.5299L76.3543 84.7859L70.8845 80.4586L68.7117 83.1996Z" fill="#7DB0FB"/>
<path d="M97.9692 45.549L104.12 50.4111L104.603 49.8003L106.444 47.4756L108.362 45.0537L102.214 40.1855L97.9692 45.549Z" fill="#7DB0FB"/>
<path d="M101.801 39.8695L108.763 45.3819C108.868 45.465 108.988 45.5267 109.117 45.5632C109.246 45.5998 109.38 45.6107 109.513 45.5952C109.646 45.5796 109.775 45.538 109.892 45.4728C110.008 45.4075 110.111 45.3198 110.194 45.2148L110.237 45.1662C110.404 44.9535 110.48 44.6833 110.449 44.4145C110.418 44.1458 110.281 43.9004 110.07 43.7319L103.105 38.2225C103 38.1389 102.88 38.0767 102.751 38.0396C102.623 38.0026 102.488 37.9914 102.355 38.0066C102.222 38.0219 102.093 38.0633 101.976 38.1285C101.859 38.1937 101.756 38.2815 101.673 38.3866L101.634 38.4383C101.551 38.5432 101.489 38.6634 101.453 38.7922C101.416 38.9209 101.405 39.0556 101.421 39.1886C101.436 39.3215 101.478 39.4501 101.543 39.567C101.608 39.6838 101.696 39.7866 101.801 39.8695Z" fill="#4C2EDF"/>
<path d="M54 86.1054L73.2291 101.324L74.619 99.5683L55.3899 84.3493L54 86.1054Z" fill="#71C1EF"/>
<path d="M91.5969 63.332C91.5962 63.4812 91.6034 63.6303 91.6182 63.7787C91.7239 65.1717 92.3161 66.4832 93.2912 67.4836C94.2663 68.4839 95.5622 69.1095 96.9521 69.2508C98.3419 69.392 99.7372 69.04 100.894 68.2563C102.05 67.4726 102.894 66.3071 103.278 64.9638C103.431 64.4335 103.508 63.884 103.506 63.332C103.524 62.5387 103.383 61.7499 103.092 61.0117C102.801 60.2736 102.365 59.6011 101.81 59.0338C101.255 58.4664 100.593 58.0156 99.8617 57.7078C99.1303 57.4 98.3448 57.2415 97.5514 57.2415C96.7579 57.2415 95.9724 57.4 95.241 57.7078C94.5097 58.0156 93.8472 58.4664 93.2925 59.0338C92.7378 59.6011 92.3021 60.2736 92.0109 61.0117C91.7197 61.7499 91.579 62.5387 91.5969 63.332Z" fill="#4C2EDF"/>
<path d="M94.0096 63.3351C94.0096 64.0352 94.2173 64.7197 94.6063 65.3019C94.9953 65.884 95.5482 66.3378 96.1951 66.6058C96.842 66.8737 97.5538 66.9438 98.2405 66.8072C98.9272 66.6706 99.558 66.3334 100.053 65.8383C100.548 65.3432 100.885 64.7124 101.022 64.0257C101.159 63.339 101.089 62.6272 100.821 61.9803C100.553 61.3334 100.099 60.7805 99.5167 60.3915C98.9345 60.0025 98.25 59.7949 97.5499 59.7949C96.6112 59.7957 95.7112 60.1689 95.0475 60.8327C94.3837 61.4964 94.0104 62.3964 94.0096 63.3351Z" fill="white"/>
<path d="M103.278 64.9638C102.848 66.473 101.84 67.7517 100.473 68.5223C104.309 71.7386 107.061 76.0573 108.358 80.892C109.654 85.7268 109.431 90.8433 107.719 95.5471C106.008 100.251 102.89 104.314 98.7896 107.185C94.6891 110.055 89.8046 111.595 84.799 111.594C82.3265 111.588 79.8686 111.214 77.506 110.485C70.0913 108.148 65.8918 102.848 64.345 100.66V97.1719L69.438 101.204L70.8632 99.4024L64.345 94.2365L62.546 92.8082L56.9516 88.3807L55.5234 90.1827L59.252 93.1334V100.654C60.8443 103.389 66.0863 111.612 76.2844 114.836C82.6743 116.806 89.549 116.5 95.7387 113.971C101.928 111.442 107.05 106.846 110.233 100.965C113.415 95.0847 114.461 88.283 113.193 81.718C111.925 75.1529 108.421 69.2301 103.278 64.9578V64.9638Z" fill="#7DB0FB"/>
<path d="M104.393 132.954C104.378 132.811 104.369 132.674 104.354 132.531C104.161 131.601 103.654 130.766 102.918 130.165C102.182 129.564 101.262 129.234 100.312 129.231H91.5513C91.5868 128.986 91.6041 128.738 91.6029 128.49V113.97C91.6056 112.868 91.2805 111.79 90.669 110.873C90.0576 109.956 89.1873 109.242 88.1688 108.821C87.1503 108.4 86.0295 108.291 84.9491 108.508C83.8686 108.725 82.8771 109.259 82.1006 110.041C81.5815 110.555 81.1696 111.167 80.889 111.842C80.6083 112.516 80.4645 113.24 80.4658 113.97V128.484C80.4646 128.732 80.4819 128.979 80.5174 129.225H71.7688C70.8188 129.228 69.8988 129.558 69.1629 130.159C68.4271 130.76 67.9202 131.595 67.7272 132.525C67.7272 132.668 67.7029 132.805 67.6877 132.948C67.6725 133.09 67.6573 133.215 67.6451 133.349V134.999H104.436V133.349C104.424 133.215 104.408 133.078 104.393 132.954Z" fill="#71C1EF"/>
<path d="M67.639 133.349V134.999H104.436V133.349C104.436 133.215 104.408 133.078 104.393 132.948H67.6816C67.6664 133.078 67.6512 133.215 67.639 133.349Z" fill="#4C2EDF"/>
<path d="M94.8422 45.7587L104.636 53.5076C104.741 53.5909 104.861 53.6528 104.99 53.6896C105.118 53.7264 105.253 53.7375 105.386 53.7223C105.519 53.7071 105.647 53.6658 105.764 53.6008C105.881 53.5358 105.984 53.4484 106.068 53.3436L106.107 53.2919C106.19 53.187 106.252 53.0667 106.288 52.938C106.325 52.8092 106.336 52.6745 106.32 52.5416C106.305 52.4086 106.263 52.2801 106.198 52.1632C106.133 52.0464 106.045 51.9436 105.94 51.8606L96.1489 44.1087C96.044 44.0256 95.9238 43.9639 95.795 43.9273C95.6663 43.8907 95.5316 43.8799 95.3987 43.8954C95.2657 43.9109 95.1371 43.9525 95.0203 44.0178C94.9034 44.0831 94.8006 44.1707 94.7177 44.2758L94.6751 44.3244C94.5078 44.5371 94.4315 44.8073 94.4628 45.076C94.4941 45.3448 94.6306 45.5902 94.8422 45.7587Z" fill="#4C2EDF"/>
<path d="M83.149 113.639C83.1484 114.211 83.3175 114.77 83.6348 115.246C83.9521 115.722 84.4034 116.092 84.9316 116.312C85.4598 116.531 86.041 116.588 86.6019 116.477C87.1628 116.365 87.678 116.09 88.0824 115.686C88.4867 115.281 88.762 114.766 88.8734 114.205C88.9848 113.644 88.9273 113.063 88.7082 112.535C88.4891 112.007 88.1183 111.555 87.6426 111.238C87.1669 110.921 86.6077 110.752 86.0359 110.752C85.2702 110.752 84.5359 111.056 83.9945 111.598C83.4531 112.139 83.149 112.874 83.149 113.639Z" fill="white"/>
<path d="M84.319 113.639C84.3184 113.98 84.4188 114.313 84.6076 114.596C84.7963 114.879 85.0649 115.1 85.3793 115.231C85.6937 115.361 86.0398 115.396 86.3737 115.329C86.7076 115.263 87.0144 115.099 87.2551 114.858C87.4958 114.618 87.6597 114.311 87.726 113.977C87.7922 113.643 87.7579 113.297 87.6274 112.983C87.4968 112.668 87.2759 112.4 86.9926 112.211C86.7093 112.022 86.3763 111.922 86.0359 111.922C85.8104 111.922 85.5871 111.967 85.3788 112.053C85.1705 112.139 84.9813 112.266 84.8218 112.425C84.6624 112.585 84.5359 112.774 84.4496 112.982C84.3633 113.19 84.319 113.414 84.319 113.639Z" fill="#4C2EDF"/>
<path d="M68.73 78.7447L78.524 86.4966C78.6289 86.5798 78.7491 86.6414 78.8779 86.678C79.0066 86.7146 79.1413 86.7254 79.2743 86.7099C79.4072 86.6944 79.5358 86.6528 79.6526 86.5875C79.7695 86.5222 79.8723 86.4346 79.9552 86.3295L79.9948 86.2778C80.0779 86.1729 80.1395 86.0527 80.1761 85.9239C80.2127 85.7952 80.2235 85.6605 80.208 85.5276C80.1925 85.3946 80.1509 85.266 80.0857 85.1492C80.0204 85.0323 79.9327 84.9295 79.8276 84.8466L70.0367 77.0946C69.9318 77.0115 69.8115 76.9499 69.6827 76.9133C69.554 76.8767 69.4193 76.8659 69.2864 76.8814C69.1535 76.8969 69.0249 76.9385 68.908 77.0038C68.7912 77.069 68.6883 77.1567 68.6054 77.2618L68.5659 77.3134C68.4822 77.418 68.4201 77.538 68.383 77.6667C68.3459 77.7954 68.3347 77.9302 68.35 78.0632C68.3652 78.1963 68.4067 78.325 68.4719 78.4419C68.5371 78.5589 68.6248 78.6618 68.73 78.7447Z" fill="#4C2EDF"/>
<g clip-path="url(#clip0_445_42592)">
<path d="M154.83 91.64C147.943 91.64 141.211 89.5979 135.485 85.7718C129.759 81.9457 125.296 76.5076 122.661 70.1451C120.025 63.7825 119.336 56.7814 120.679 50.027C122.023 43.2725 125.339 37.0682 130.209 32.1986C135.078 27.3289 141.283 24.0126 148.037 22.6691C154.791 21.3255 161.792 22.0151 168.155 24.6505C174.518 27.286 179.956 31.7489 183.782 37.475C187.608 43.2012 189.65 49.9333 189.65 56.82C189.637 66.0508 185.964 74.8997 179.437 81.4269C172.91 87.954 164.061 91.6268 154.83 91.64Z" fill="#AB9BFF"/>
<path d="M183.96 56.82C183.962 62.5842 182.254 68.2195 179.053 73.0131C175.852 77.8067 171.301 81.5432 165.976 83.7499C160.651 85.9567 154.791 86.5346 149.137 85.4106C143.484 84.2865 138.291 81.511 134.215 77.4351C130.139 73.3592 127.363 68.166 126.239 62.5125C125.115 56.8589 125.693 50.999 127.9 45.674C130.107 40.3489 133.843 35.798 138.637 32.5968C143.431 29.3956 149.066 27.688 154.83 27.69C162.556 27.69 169.965 30.7591 175.428 36.222C180.891 41.6849 183.96 49.0943 183.96 56.82Z" fill="white"/>
<path d="M155.47 27.7V85.94C163.061 85.741 170.274 82.5858 175.573 77.1464C180.872 71.707 183.837 64.4136 183.837 56.82C183.837 49.2264 180.872 41.933 175.573 36.4936C170.274 31.0543 163.061 27.899 155.47 27.7Z" fill="#F0E7FF"/>
<path d="M149.03 43.89H133.64C133.11 43.89 132.68 44.3198 132.68 44.85V45.23C132.68 45.7602 133.11 46.19 133.64 46.19H149.03C149.56 46.19 149.99 45.7602 149.99 45.23V44.85C149.99 44.3198 149.56 43.89 149.03 43.89Z" fill="#539DC7"/>
<path d="M155.44 46.18C155.175 46.18 154.92 46.0746 154.733 45.8871C154.545 45.6995 154.44 45.4452 154.44 45.18V44.8C154.44 44.5348 154.545 44.2804 154.733 44.0929C154.92 43.9053 155.175 43.8 155.44 43.8H170.82C171.085 43.8 171.34 43.9053 171.527 44.0929C171.715 44.2804 171.82 44.5348 171.82 44.8V45.18C171.82 45.4452 171.715 45.6995 171.527 45.8871C171.34 46.0746 171.085 46.18 170.82 46.18H155.44Z" fill="#539DC7"/>
<path d="M142.77 42.22C142.77 42.4852 142.665 42.7396 142.477 42.9271C142.29 43.1146 142.035 43.22 141.77 43.22H141.39C141.125 43.22 140.87 43.1146 140.683 42.9271C140.495 42.7396 140.39 42.4852 140.39 42.22V36.3C140.39 36.0348 140.495 35.7804 140.683 35.5929C140.87 35.4053 141.125 35.3 141.39 35.3H141.77C142.035 35.3 142.29 35.4053 142.477 35.5929C142.665 35.7804 142.77 36.0348 142.77 36.3V42.22Z" fill="#539DC7"/>
<path d="M147.12 35.34H146.74C146.21 35.34 145.78 35.7698 145.78 36.3V42.22C145.78 42.7502 146.21 43.18 146.74 43.18H147.12C147.65 43.18 148.08 42.7502 148.08 42.22V36.3C148.08 35.7698 147.65 35.34 147.12 35.34Z" fill="#539DC7"/>
<path d="M153.38 42.22C153.38 42.4852 153.275 42.7396 153.087 42.9271C152.9 43.1146 152.645 43.22 152.38 43.22H152.02C151.755 43.22 151.5 43.1146 151.313 42.9271C151.125 42.7396 151.02 42.4852 151.02 42.22V36.3C151.02 36.0348 151.125 35.7804 151.313 35.5929C151.5 35.4053 151.755 35.3 152.02 35.3H152.4C152.665 35.3 152.92 35.4053 153.107 35.5929C153.295 35.7804 153.4 36.0348 153.4 36.3L153.38 42.22Z" fill="#539DC7"/>
<path d="M158.69 42.22C158.69 42.4852 158.585 42.7396 158.397 42.9271C158.21 43.1146 157.955 43.22 157.69 43.22H157.31C157.045 43.22 156.79 43.1146 156.603 42.9271C156.415 42.7396 156.31 42.4852 156.31 42.22V36.3C156.31 36.0348 156.415 35.7804 156.603 35.5929C156.79 35.4053 157.045 35.3 157.31 35.3H157.69C157.955 35.3 158.21 35.4053 158.397 35.5929C158.585 35.7804 158.69 36.0348 158.69 36.3V42.22Z" fill="#539DC7"/>
<path d="M164.02 42.22C164.02 42.4852 163.915 42.7396 163.727 42.9271C163.54 43.1146 163.285 43.22 163.02 43.22H162.64C162.375 43.22 162.12 43.1146 161.933 42.9271C161.745 42.7396 161.64 42.4852 161.64 42.22V36.3C161.64 36.0348 161.745 35.7804 161.933 35.5929C162.12 35.4053 162.375 35.3 162.64 35.3H163.02C163.285 35.3 163.54 35.4053 163.727 35.5929C163.915 35.7804 164.02 36.0348 164.02 36.3V42.22Z" fill="#539DC7"/>
<path d="M142.77 53.76C142.77 54.0252 142.665 54.2795 142.477 54.4671C142.29 54.6546 142.035 54.76 141.77 54.76H141.39C141.125 54.76 140.87 54.6546 140.683 54.4671C140.495 54.2795 140.39 54.0252 140.39 53.76V47.84C140.39 47.5747 140.495 47.3204 140.683 47.1329C140.87 46.9453 141.125 46.84 141.39 46.84H141.77C142.035 46.84 142.29 46.9453 142.477 47.1329C142.665 47.3204 142.77 47.5747 142.77 47.84V53.76Z" fill="#539DC7"/>
<path d="M147.12 46.88H146.74C146.21 46.88 145.78 47.3098 145.78 47.84V53.76C145.78 54.2902 146.21 54.72 146.74 54.72H147.12C147.65 54.72 148.08 54.2902 148.08 53.76V47.84C148.08 47.3098 147.65 46.88 147.12 46.88Z" fill="#539DC7"/>
<path d="M153.38 53.76C153.38 54.0252 153.275 54.2795 153.087 54.4671C152.9 54.6546 152.645 54.76 152.38 54.76H152.02C151.755 54.76 151.5 54.6546 151.313 54.4671C151.125 54.2795 151.02 54.0252 151.02 53.76V47.84C151.02 47.5747 151.125 47.3204 151.313 47.1329C151.5 46.9453 151.755 46.84 152.02 46.84H152.4C152.665 46.84 152.92 46.9453 153.107 47.1329C153.295 47.3204 153.4 47.5747 153.4 47.84L153.38 53.76Z" fill="#539DC7"/>
<path d="M158.69 53.76C158.69 54.0252 158.585 54.2795 158.397 54.4671C158.21 54.6546 157.955 54.76 157.69 54.76H157.31C157.045 54.76 156.79 54.6546 156.603 54.4671C156.415 54.2795 156.31 54.0252 156.31 53.76V47.84C156.31 47.5747 156.415 47.3204 156.603 47.1329C156.79 46.9453 157.045 46.84 157.31 46.84H157.69C157.955 46.84 158.21 46.9453 158.397 47.1329C158.585 47.3204 158.69 47.5747 158.69 47.84V53.76Z" fill="#539DC7"/>
<path d="M164.02 53.76C164.02 54.0252 163.915 54.2795 163.727 54.4671C163.54 54.6546 163.285 54.76 163.02 54.76H162.64C162.375 54.76 162.12 54.6546 161.933 54.4671C161.745 54.2795 161.64 54.0252 161.64 53.76V47.84C161.64 47.5747 161.745 47.3204 161.933 47.1329C162.12 46.9453 162.375 46.84 162.64 46.84H163.02C163.285 46.84 163.54 46.9453 163.727 47.1329C163.915 47.3204 164.02 47.5747 164.02 47.84V53.76Z" fill="#539DC7"/>
<path d="M141.5 42.55C141.671 42.7349 141.767 42.9778 141.767 43.23C141.767 43.4822 141.671 43.7251 141.5 43.91L141.23 44.17C141.045 44.3415 140.802 44.4368 140.55 44.4368C140.298 44.4368 140.055 44.3415 139.87 44.17L135.68 39.99C135.508 39.805 135.413 39.5622 135.413 39.31C135.413 39.0578 135.508 38.8149 135.68 38.63L135.95 38.36C136.135 38.1885 136.378 38.0932 136.63 38.0932C136.882 38.0932 137.125 38.1885 137.31 38.36L141.5 42.55Z" fill="#539DC7"/>
<path d="M168.78 50.07C168.952 50.2549 169.047 50.4978 169.047 50.75C169.047 51.0022 168.952 51.245 168.78 51.43L168.52 51.7C168.335 51.8744 168.09 51.9714 167.835 51.9714C167.58 51.9714 167.335 51.8744 167.15 51.7L163.02 47.51C162.849 47.3251 162.753 47.0822 162.753 46.83C162.753 46.5778 162.849 46.3349 163.02 46.15L163.29 45.88C163.474 45.7113 163.715 45.6178 163.965 45.6178C164.215 45.6178 164.456 45.7113 164.64 45.88L168.78 50.07Z" fill="#539DC7"/>
<path d="M167.15 38.36C167.335 38.1885 167.578 38.0932 167.83 38.0932C168.082 38.0932 168.325 38.1885 168.51 38.36L168.78 38.63C168.952 38.8149 169.047 39.0578 169.047 39.31C169.047 39.5622 168.952 39.805 168.78 39.99L164.6 44.13C164.415 44.3043 164.17 44.4014 163.915 44.4014C163.66 44.4014 163.415 44.3043 163.23 44.13L162.97 43.87C162.799 43.685 162.703 43.4422 162.703 43.19C162.703 42.9378 162.799 42.6949 162.97 42.51L167.15 38.36Z" fill="#539DC7"/>
<path d="M139.88 45.89C140.064 45.7214 140.305 45.6278 140.555 45.6278C140.805 45.6278 141.046 45.7214 141.23 45.89L141.5 46.16C141.671 46.3449 141.767 46.5878 141.767 46.84C141.767 47.0922 141.671 47.3351 141.5 47.52L137.32 51.7C137.135 51.8715 136.892 51.9668 136.64 51.9668C136.388 51.9668 136.145 51.8715 135.96 51.7L135.69 51.43C135.518 51.2451 135.423 51.0022 135.423 50.75C135.423 50.4978 135.518 50.2549 135.69 50.07L139.88 45.89Z" fill="#539DC7"/>
<path d="M167.02 45.03C167.02 46.3561 166.493 47.6278 165.556 48.5655C164.618 49.5032 163.346 50.03 162.02 50.03H142.48C141.154 50.03 139.882 49.5032 138.944 48.5655C138.007 47.6278 137.48 46.3561 137.48 45.03C137.48 43.7039 138.007 42.4321 138.944 41.4944C139.882 40.5568 141.154 40.03 142.48 40.03H162.02C163.346 40.03 164.618 40.5568 165.556 41.4944C166.493 42.4321 167.02 43.7039 167.02 45.03Z" fill="#FEC107"/>
<path d="M142.48 50.05H162.02C163.346 50.05 164.618 49.5232 165.556 48.5855C166.493 47.6478 167.02 46.3761 167.02 45.05H137.46C137.46 45.7083 137.59 46.3601 137.843 46.968C138.095 47.576 138.465 48.128 138.932 48.5926C139.398 49.0571 139.952 49.425 140.56 49.6751C141.169 49.9252 141.822 50.0526 142.48 50.05Z" fill="#FF9801"/>
<path d="M164.5 45.03C164.5 45.5838 164.336 46.1251 164.028 46.5856C163.72 47.046 163.283 47.4049 162.772 47.6169C162.26 47.8288 161.697 47.8842 161.154 47.7762C160.611 47.6681 160.112 47.4015 159.72 47.0099C159.329 46.6183 159.062 46.1194 158.954 45.5762C158.846 45.0331 158.901 44.4701 159.113 43.9585C159.325 43.4468 159.684 43.0095 160.144 42.7019C160.605 42.3942 161.146 42.23 161.7 42.23C162.443 42.23 163.155 42.525 163.68 43.0501C164.205 43.5752 164.5 44.2874 164.5 45.03Z" fill="#F16F00"/>
<path d="M164.5 45.03C164.5 44.2874 164.205 43.5752 163.68 43.0501C163.155 42.525 162.443 42.23 161.7 42.23V47.82C162.441 47.82 163.152 47.5264 163.676 47.0034C164.201 46.4805 164.497 45.7708 164.5 45.03Z" fill="#F15700"/>
<path d="M177.41 64.51C177.41 66.0309 176.959 67.5177 176.114 68.7823C175.269 70.047 174.068 71.0326 172.663 71.6146C171.258 72.1967 169.711 72.349 168.22 72.0522C166.728 71.7555 165.358 71.0231 164.282 69.9477C163.207 68.8722 162.475 67.502 162.178 66.0103C161.881 64.5185 162.033 62.9723 162.615 61.5672C163.197 60.162 164.183 58.961 165.448 58.116C166.712 57.271 168.199 56.82 169.72 56.82C171.76 56.82 173.715 57.6302 175.158 59.0724C176.6 60.5145 177.41 62.4705 177.41 64.51Z" fill="#F16F00"/>
<path d="M177.41 64.51C177.41 62.4705 176.6 60.5145 175.158 59.0724C173.715 57.6302 171.76 56.82 169.72 56.82V72.2C171.76 72.2 173.715 71.3898 175.158 69.9477C176.6 68.5055 177.41 66.5495 177.41 64.51Z" fill="#F15700"/>
<path d="M170.91 63.41C170.912 64.0275 170.731 64.6317 170.389 65.1461C170.047 65.6605 169.561 66.0619 168.991 66.2996C168.421 66.5373 167.793 66.6005 167.188 66.4812C166.582 66.362 166.025 66.0656 165.587 65.6297C165.15 65.1938 164.852 64.6378 164.731 64.0323C164.61 63.4269 164.671 62.799 164.907 62.2283C165.142 61.6576 165.542 61.1698 166.056 60.8265C166.569 60.4832 167.173 60.3 167.79 60.3C168.615 60.3026 169.405 60.6308 169.99 61.2132C170.574 61.7956 170.905 62.585 170.91 63.41Z" fill="#FEC107"/>
<path d="M170.91 63.41C170.907 62.5842 170.577 61.7932 169.993 61.2103C169.408 60.6273 168.616 60.3 167.79 60.3V66.54C168.618 66.5373 169.412 66.2064 169.997 65.6197C170.582 65.033 170.91 64.2384 170.91 63.41Z" fill="#FF9801"/>
<path d="M172.64 66.26C172.733 66.3609 172.805 66.4799 172.85 66.6096C172.895 66.7393 172.913 66.8769 172.903 67.0139C172.893 67.1509 172.854 67.2843 172.79 67.4058C172.726 67.5273 172.637 67.6342 172.53 67.72L169.53 70.35C169.43 70.4438 169.311 70.516 169.182 70.5621C169.053 70.6081 168.915 70.627 168.778 70.6176C168.641 70.6083 168.508 70.5708 168.386 70.5075C168.264 70.4443 168.157 70.3566 168.07 70.25C167.977 70.1491 167.905 70.0301 167.86 69.9004C167.815 69.7707 167.797 69.633 167.807 69.4961C167.817 69.3591 167.856 69.2257 167.92 69.1042C167.984 68.9827 168.073 68.8758 168.18 68.79L171.18 66.16C171.28 66.0662 171.399 65.994 171.528 65.9479C171.657 65.9019 171.795 65.883 171.932 65.8924C172.069 65.9017 172.202 65.9392 172.324 66.0025C172.446 66.0657 172.554 66.1534 172.64 66.26Z" fill="#4DC5EB"/>
<path d="M172.13 59.4C172.248 59.3309 172.38 59.287 172.516 59.2708C172.652 59.2546 172.79 59.2666 172.921 59.306C173.052 59.3454 173.174 59.4113 173.279 59.4997C173.384 59.5882 173.469 59.6972 173.53 59.82L175.42 63.37C175.489 63.4884 175.533 63.6197 175.549 63.7558C175.565 63.8919 175.553 64.0299 175.514 64.1612C175.475 64.2925 175.409 64.4143 175.32 64.519C175.232 64.6237 175.123 64.7092 175 64.77C174.881 64.8387 174.749 64.8822 174.613 64.8976C174.476 64.9131 174.338 64.9003 174.206 64.8599C174.075 64.8196 173.953 64.7526 173.849 64.6631C173.745 64.5737 173.66 64.4637 173.6 64.34L171.7 60.8C171.631 60.681 171.588 60.5491 171.572 60.4125C171.557 60.276 171.57 60.1377 171.61 60.0063C171.65 59.875 171.717 59.7533 171.807 59.649C171.896 59.5447 172.006 59.4599 172.13 59.4Z" fill="#4DC5EB"/>
<path d="M148.44 65.2C148.44 65.4652 148.335 65.7195 148.147 65.9071C147.96 66.0946 147.705 66.2 147.44 66.2H147.07C146.805 66.2 146.55 66.0946 146.363 65.9071C146.175 65.7195 146.07 65.4652 146.07 65.2V59.28C146.07 59.0148 146.175 58.7604 146.363 58.5729C146.55 58.3853 146.805 58.28 147.07 58.28H147.44C147.705 58.28 147.96 58.3853 148.147 58.5729C148.335 58.7604 148.44 59.0148 148.44 59.28V65.2Z" fill="#C0C3CF"/>
<path d="M148.44 80.57C148.44 80.8352 148.335 81.0895 148.147 81.2771C147.96 81.4646 147.705 81.57 147.44 81.57H147.07C146.805 81.57 146.55 81.4646 146.363 81.2771C146.175 81.0895 146.07 80.8352 146.07 80.57V74.66C146.07 74.3948 146.175 74.1404 146.363 73.9529C146.55 73.7653 146.805 73.66 147.07 73.66H147.44C147.705 73.66 147.96 73.7653 148.147 73.9529C148.335 74.1404 148.44 74.3948 148.44 74.66V80.57Z" fill="#C0C3CF"/>
<path d="M142.56 68.78C142.825 68.78 143.08 68.8854 143.267 69.0729C143.455 69.2604 143.56 69.5148 143.56 69.78V70.13C143.56 70.3952 143.455 70.6496 143.267 70.8371C143.08 71.0246 142.825 71.13 142.56 71.13H136.64C136.375 71.13 136.12 71.0246 135.933 70.8371C135.745 70.6496 135.64 70.3952 135.64 70.13V69.75C135.64 69.4848 135.745 69.2304 135.933 69.0429C136.12 68.8554 136.375 68.75 136.64 68.75L142.56 68.78Z" fill="#C0C3CF"/>
<path d="M157.94 68.78C158.205 68.78 158.46 68.8854 158.647 69.0729C158.835 69.2604 158.94 69.5148 158.94 69.78V70.13C158.94 70.3952 158.835 70.6496 158.647 70.8371C158.46 71.0246 158.205 71.13 157.94 71.13H152.02C151.755 71.13 151.5 71.0246 151.313 70.8371C151.125 70.6496 151.02 70.3952 151.02 70.13V69.75C151.02 69.4848 151.125 69.2304 151.313 69.0429C151.5 68.8554 151.755 68.75 152.02 68.75L157.94 68.78Z" fill="#C0C3CF"/>
<path d="M143.13 72.46C143.315 72.2885 143.558 72.1932 143.81 72.1932C144.062 72.1932 144.305 72.2885 144.49 72.46L144.76 72.73C144.934 72.9154 145.031 73.1604 145.031 73.415C145.031 73.6695 144.934 73.9145 144.76 74.1L140.58 78.28C140.395 78.4543 140.15 78.5514 139.895 78.5514C139.64 78.5514 139.395 78.4543 139.21 78.28L138.94 78.01C138.768 77.8251 138.673 77.5822 138.673 77.33C138.673 77.0778 138.768 76.8349 138.94 76.65L143.13 72.46Z" fill="#C0C3CF"/>
<path d="M154.02 61.59C154.205 61.4185 154.448 61.3232 154.7 61.3232C154.952 61.3232 155.195 61.4185 155.38 61.59L155.64 61.86C155.811 62.0449 155.907 62.2878 155.907 62.54C155.907 62.7922 155.811 63.0351 155.64 63.22L151.46 67.4C151.275 67.5715 151.032 67.6667 150.78 67.6667C150.528 67.6667 150.285 67.5715 150.1 67.4L149.83 67.14C149.659 66.9551 149.563 66.7122 149.563 66.46C149.563 66.2078 149.659 65.9649 149.83 65.78L154.02 61.59Z" fill="#C0C3CF"/>
<path d="M149.82 74.13C149.651 73.9457 149.558 73.7049 149.558 73.455C149.558 73.2052 149.651 72.9643 149.82 72.78L150.09 72.51C150.275 72.3385 150.518 72.2432 150.77 72.2432C151.022 72.2432 151.265 72.3385 151.45 72.51L155.63 76.69C155.801 76.8749 155.897 77.1178 155.897 77.37C155.897 77.6222 155.801 77.8651 155.63 78.05L155.37 78.32C155.185 78.4915 154.942 78.5868 154.69 78.5868C154.438 78.5868 154.195 78.4915 154.01 78.32L149.82 74.13Z" fill="#C0C3CF"/>
<path d="M138.95 63.21C138.779 63.0251 138.683 62.7822 138.683 62.53C138.683 62.2778 138.779 62.0349 138.95 61.85L139.22 61.58C139.405 61.4056 139.65 61.3085 139.905 61.3085C140.16 61.3085 140.405 61.4056 140.59 61.58L144.77 65.76C144.941 65.9449 145.037 66.1878 145.037 66.44C145.037 66.6922 144.941 66.9351 144.77 67.12L144.5 67.39C144.315 67.5615 144.072 67.6568 143.82 67.6568C143.568 67.6568 143.325 67.5615 143.14 67.39L138.95 63.21Z" fill="#C0C3CF"/>
<path d="M151.22 72.8C150.992 72.6948 150.813 72.5079 150.716 72.2764C150.62 72.0449 150.614 71.7856 150.7 71.55L150.84 71.2C150.945 70.9701 151.134 70.7886 151.368 70.6921C151.601 70.5956 151.863 70.5913 152.1 70.68L157.56 72.94C157.792 73.0436 157.975 73.2313 158.074 73.4653C158.172 73.6993 158.178 73.962 158.09 74.2L157.94 74.55C157.835 74.7776 157.648 74.9574 157.416 75.0537C157.185 75.15 156.926 75.1559 156.69 75.07L151.22 72.8Z" fill="#C0C3CF"/>
<path d="M137.02 66.91C136.788 66.8065 136.604 66.6187 136.506 66.3847C136.408 66.1507 136.402 65.8881 136.49 65.65L136.64 65.31C136.745 65.08 136.934 64.8986 137.168 64.8021C137.401 64.7056 137.663 64.7013 137.9 64.79L143.36 67.05C143.59 67.1553 143.771 67.3439 143.868 67.5777C143.964 67.8115 143.969 68.0731 143.88 68.31L143.74 68.66C143.633 68.8881 143.444 69.0675 143.21 69.162C142.976 69.2566 142.716 69.2594 142.48 69.17L137.02 66.91Z" fill="#C0C3CF"/>
<path d="M152.1 69.18C151.863 69.2687 151.601 69.2644 151.368 69.1679C151.134 69.0714 150.945 68.89 150.84 68.66L150.7 68.31C150.615 68.0732 150.622 67.813 150.72 67.5813C150.819 67.3496 151.001 67.1634 151.23 67.06L156.69 64.8C156.927 64.7113 157.189 64.7156 157.422 64.8121C157.656 64.9086 157.845 65.0901 157.95 65.32L158.1 65.67C158.185 65.9068 158.178 66.167 158.08 66.3987C157.981 66.6304 157.799 66.8166 157.57 66.92L152.1 69.18Z" fill="#C0C3CF"/>
<path d="M137.89 75.05C137.654 75.1394 137.394 75.1366 137.16 75.042C136.926 74.9474 136.737 74.7682 136.63 74.54L136.49 74.19C136.401 73.9532 136.406 73.6915 136.502 73.4577C136.599 73.2239 136.78 73.0353 137.01 72.93L142.48 70.67C142.717 70.5813 142.979 70.5856 143.212 70.6821C143.446 70.7786 143.635 70.96 143.74 71.19L143.88 71.54C143.969 71.7769 143.964 72.0385 143.868 72.2723C143.771 72.5061 143.59 72.6947 143.36 72.8L137.89 75.05Z" fill="#C0C3CF"/>
<path d="M150.17 66C150.065 66.2299 149.876 66.4114 149.642 66.5079C149.409 66.6044 149.147 66.6087 148.91 66.52L148.56 66.37C148.331 66.2685 148.149 66.0847 148.049 65.8551C147.949 65.6255 147.938 65.3668 148.02 65.13L150.29 59.67C150.395 59.44 150.584 59.2586 150.818 59.1621C151.051 59.0656 151.313 59.0612 151.55 59.15L151.9 59.3C152.017 59.347 152.123 59.4169 152.212 59.5058C152.302 59.5946 152.372 59.7004 152.42 59.817C152.467 59.9336 152.491 60.0586 152.489 60.1845C152.488 60.3104 152.461 60.4347 152.41 60.55L150.17 66Z" fill="#C0C3CF"/>
<path d="M144.27 80.2C144.167 80.4294 143.98 80.6114 143.749 80.7097C143.517 80.8079 143.257 80.8152 143.02 80.73L142.67 80.58C142.44 80.4747 142.259 80.2861 142.162 80.0523C142.066 79.8185 142.061 79.5569 142.15 79.32L144.42 73.86C144.524 73.6283 144.711 73.4445 144.945 73.3461C145.179 73.2477 145.442 73.2419 145.68 73.33L146.02 73.48C146.25 73.5853 146.431 73.7739 146.528 74.0077C146.624 74.2415 146.629 74.5031 146.54 74.74L144.27 80.2Z" fill="#C0C3CF"/>
<path d="M146.54 65.13C146.629 65.3656 146.627 65.6263 146.532 65.8599C146.437 66.0936 146.258 66.2829 146.03 66.39L145.68 66.53C145.443 66.6187 145.181 66.6144 144.948 66.5179C144.714 66.4214 144.525 66.2399 144.42 66.01L142.16 60.55C142.071 60.3131 142.076 60.0515 142.172 59.8177C142.269 59.5839 142.45 59.3953 142.68 59.29L143.02 59.13C143.257 59.0448 143.517 59.0521 143.749 59.1503C143.98 59.2486 144.167 59.4305 144.27 59.66L146.54 65.13Z" fill="#C0C3CF"/>
<path d="M152.42 79.33C152.507 79.5644 152.502 79.8227 152.408 80.054C152.313 80.2854 152.136 80.473 151.91 80.58L151.56 80.73C151.322 80.8181 151.059 80.8123 150.825 80.7139C150.591 80.6155 150.404 80.4318 150.3 80.2L148.02 74.74C147.931 74.5031 147.936 74.2415 148.032 74.0077C148.129 73.7739 148.31 73.5853 148.54 73.48L148.89 73.33C149.127 73.2448 149.387 73.2521 149.619 73.3503C149.85 73.4486 150.037 73.6306 150.14 73.86L152.42 79.33Z" fill="#C0C3CF"/>
<path d="M155.02 69.93C155.02 71.4509 154.569 72.9377 153.724 74.2023C152.879 75.4669 151.678 76.4526 150.273 77.0346C148.868 77.6167 147.321 77.7689 145.83 77.4722C144.338 77.1755 142.968 76.4431 141.892 75.3676C140.817 74.2922 140.084 72.922 139.788 71.4302C139.491 69.9385 139.643 68.3923 140.225 66.9872C140.807 65.582 141.793 64.381 143.058 63.536C144.322 62.691 145.809 62.24 147.33 62.24C149.37 62.24 151.326 63.0502 152.768 64.4923C154.21 65.9345 155.02 67.8905 155.02 69.93Z" fill="#4DC5EB"/>
<path d="M155.02 69.93C155.02 67.8905 154.21 65.9345 152.768 64.4923C151.326 63.0502 149.37 62.24 147.33 62.24V77.62C149.37 77.62 151.326 76.8098 152.768 75.3676C154.21 73.9255 155.02 71.9695 155.02 69.93Z" fill="#539DC7"/>
<path d="M150.41 69.93C150.41 70.5471 150.227 71.1503 149.884 71.6634C149.541 72.1765 149.054 72.5764 148.484 72.8125C147.914 73.0486 147.287 73.1104 146.681 72.9901C146.076 72.8697 145.52 72.5725 145.084 72.1362C144.648 71.6998 144.35 71.1439 144.23 70.5387C144.11 69.9335 144.171 69.3061 144.408 68.736C144.644 68.1659 145.044 67.6786 145.557 67.3358C146.07 66.993 146.673 66.81 147.29 66.81C148.118 66.81 148.911 67.1387 149.496 67.7238C150.081 68.309 150.41 69.1025 150.41 69.93Z" fill="#F16F00"/>
<path d="M150.41 69.93C150.41 69.1025 150.081 68.309 149.496 67.7238C148.911 67.1387 148.117 66.81 147.29 66.81V73.05C148.117 73.05 148.911 72.7213 149.496 72.1362C150.081 71.5511 150.41 70.7575 150.41 69.93Z" fill="#F15700"/>
<path d="M182.46 41.06C182.46 41.687 182.274 42.2999 181.926 42.8212C181.577 43.3425 181.082 43.7488 180.503 43.9887C179.924 44.2286 179.286 44.2914 178.672 44.1691C178.057 44.0468 177.492 43.7449 177.048 43.3015C176.605 42.8582 176.303 42.2934 176.181 41.6784C176.059 41.0635 176.121 40.4261 176.361 39.8469C176.601 39.2677 177.008 38.7726 177.529 38.4243C178.05 38.0759 178.663 37.89 179.29 37.89C180.131 37.89 180.937 38.224 181.532 38.8185C182.126 39.413 182.46 40.2193 182.46 41.06Z" fill="white"/>
<path d="M179.78 48.79C179.782 49.2616 179.644 49.7231 179.383 50.116C179.122 50.5089 178.751 50.8155 178.315 50.9969C177.88 51.1783 177.401 51.2262 176.938 51.1347C176.476 51.0432 176.051 50.8164 175.717 50.4829C175.384 50.1495 175.157 49.7244 175.065 49.2618C174.974 48.7992 175.022 48.3199 175.203 47.8846C175.385 47.4493 175.691 47.0777 176.084 46.8169C176.477 46.5562 176.938 46.418 177.41 46.42C178.038 46.4226 178.639 46.6732 179.083 47.1171C179.527 47.5609 179.777 48.1622 179.78 48.79Z" fill="white"/>
</g>
<path d="M146.203 117.524C145.64 112.86 146.858 108.156 149.615 104.35C152.372 100.545 156.464 97.9185 161.073 96.996C155.697 96.69 150.363 98.1048 145.846 101.035C141.328 103.965 137.863 108.257 135.954 113.289C134.045 118.321 133.791 123.829 135.229 129.015C136.666 134.2 139.722 138.792 143.95 142.123L153.392 130.088C151.414 128.581 149.759 126.692 148.524 124.534C147.289 122.376 146.5 119.992 146.203 117.524Z" fill="#7A67D7"/>
<path d="M146.203 117.523C146.5 119.992 147.289 122.376 148.524 124.534C149.759 126.692 151.414 128.581 153.392 130.088L175.189 102.308C175.002 102.163 174.823 102.009 174.633 101.869L174.594 101.842C173.19 100.815 171.685 99.9358 170.101 99.2174L169.842 99.0999C169.327 98.8747 168.814 98.6615 168.283 98.4698L168.241 98.4566C166.582 97.8578 164.864 97.4356 163.116 97.1969C163 97.1802 162.883 97.165 162.767 97.1515C162.207 97.0816 161.643 97.0257 161.073 96.9911C156.462 97.9138 152.37 100.541 149.613 104.347C146.857 108.154 145.639 112.859 146.203 117.523Z" fill="#AC9CFF"/>
<path d="M162.688 147.382C166.51 146.933 170.179 145.617 173.414 143.534C176.649 141.452 179.365 138.658 181.355 135.366C183.344 132.075 184.554 128.372 184.892 124.542C185.231 120.712 184.688 116.855 183.306 113.267C183.703 116.898 183.024 120.567 181.352 123.817C179.681 127.066 177.091 129.754 173.904 131.546C170.718 133.338 167.074 134.155 163.427 133.896C159.78 133.637 156.29 132.313 153.39 130.089L143.948 142.123C146.567 144.195 149.573 145.727 152.79 146.63C156.007 147.533 159.371 147.788 162.688 147.382Z" fill="#7A67D7"/>
<path d="M153.393 130.092C156.293 132.316 159.783 133.64 163.43 133.899C167.077 134.158 170.72 133.341 173.907 131.549C177.094 129.757 179.684 127.07 181.355 123.82C183.027 120.57 183.706 116.902 183.309 113.27C181.804 109.311 179.326 105.793 176.104 103.042L175.995 102.948C175.734 102.727 175.456 102.526 175.193 102.314L153.393 130.092Z" fill="#B7A9FF"/>
<path d="M167.94 118.439C168.009 119.012 167.848 119.589 167.491 120.044C167.135 120.499 166.612 120.793 166.038 120.862L153.181 122.42C152.896 122.455 152.607 122.434 152.331 122.357C152.055 122.281 151.796 122.151 151.57 121.974C151.345 121.798 151.156 121.579 151.015 121.329C150.874 121.08 150.784 120.805 150.749 120.52C150.715 120.236 150.737 119.948 150.814 119.672C150.891 119.396 151.022 119.138 151.2 118.913C151.377 118.687 151.597 118.499 151.847 118.359C152.097 118.219 152.372 118.129 152.657 118.096L165.51 116.539C166.084 116.47 166.661 116.631 167.116 116.987C167.571 117.344 167.866 117.866 167.935 118.439L167.94 118.439Z" fill="#B7A9FF"/>
<path d="M175.96 111.273C176.02 111.771 175.88 112.272 175.57 112.666C175.261 113.061 174.807 113.316 174.309 113.376L163.183 114.724C162.685 114.784 162.183 114.644 161.788 114.335C161.394 114.026 161.138 113.573 161.078 113.075C161.018 112.578 161.158 112.077 161.467 111.682C161.777 111.288 162.23 111.032 162.728 110.972L173.855 109.624C174.353 109.564 174.854 109.704 175.249 110.013C175.644 110.322 175.899 110.775 175.96 111.273Z" fill="#AC9CFF"/>
<path d="M183.813 114.632C183.989 115.185 184.149 115.744 184.291 116.313C190.363 116.459 194.18 117.187 194.338 118.492C194.661 121.162 179.431 125.202 160.318 127.517C141.205 129.831 125.451 129.546 125.127 126.873C124.97 125.574 128.501 123.951 134.362 122.36C134.359 121.774 134.381 121.193 134.418 120.615C119.078 123.577 108.865 126.921 109.153 129.305C109.579 132.815 132.595 132.916 160.562 129.53C188.528 126.143 210.857 120.55 210.431 117.04C210.143 114.655 199.422 113.846 183.813 114.632Z" fill="#FFA187"/>
<path fill-rule="evenodd" clip-rule="evenodd" d="M65.6944 40.283C66.078 40.1267 66.5157 40.3109 66.672 40.6945L69.8234 48.4257C69.9797 48.8093 69.7955 49.247 69.412 49.4033C69.0284 49.5597 68.5907 49.3755 68.4344 48.9919L65.283 41.2607C65.1266 40.8771 65.3108 40.4394 65.6944 40.283Z" fill="#897AF2"/>
<path d="M70.5471 38.1675C71.7603 34.4852 69.7492 30.5197 66.0553 29.3104C62.3613 28.101 58.3832 30.1058 57.1701 33.7881C55.9569 37.4703 57.9679 41.4358 61.6619 42.6451C65.3559 43.8545 69.3339 41.8497 70.5471 38.1675Z" fill="#FF8E33"/>
<path style="mix-blend-mode:overlay" opacity="0.22" d="M70.9318 37.998C70.5945 39.2101 69.9366 40.3095 69.0269 41.1812C68.1173 42.053 66.9893 42.665 65.7611 42.9532C64.5328 43.2414 63.2495 43.1953 62.0452 42.8197C60.841 42.444 59.7601 41.7526 58.9158 40.8178C59.1144 40.8909 59.3183 40.9555 59.5274 41.0135C60.8622 41.3828 62.2703 41.4015 63.6145 41.0677C64.9588 40.734 66.1935 40.0592 67.1987 39.1089C68.2038 38.1587 68.9451 36.9653 69.3506 35.6449C69.7561 34.3244 69.812 32.9219 69.5127 31.5735C70.258 32.4472 70.7771 33.4897 71.0245 34.6097C71.2719 35.7297 71.24 36.8931 70.9318 37.998Z" fill="black"/>
<path style="mix-blend-mode:soft-light" opacity="0.64" d="M58.2295 37.5922C58.2461 37.2557 58.2234 36.9184 58.162 36.5871C58.1449 36.1873 58.1407 35.7868 58.162 35.3886C58.1919 34.6075 58.3644 33.8384 58.6708 33.1189C58.9947 32.4018 59.4695 31.7625 60.0631 31.2444C60.6566 30.7263 61.355 30.3415 62.1109 30.1162C63.3363 29.7612 64.6478 29.8464 65.8165 30.3571C66.7023 30.751 67.6169 31.5226 67.3093 32.5962C66.8478 34.2087 65.0727 35.4292 63.7591 35.679C61.4799 36.1127 60.3187 35.8606 58.2295 37.5922Z" fill="url(#paint0_linear_445_42592)"/>
<g style="mix-blend-mode:overlay" opacity="0.21">
<path d="M60.9453 38.901C60.866 39.1869 60.7036 39.4428 60.4789 39.6365C60.2541 39.8301 59.977 39.9527 59.6825 39.9888C59.388 40.0249 59.0895 39.9729 58.8246 39.8393C58.5597 39.7057 58.3403 39.4965 58.1943 39.2383C58.0483 38.98 57.9821 38.6842 58.0042 38.3883C58.0262 38.0925 58.1356 37.8098 58.3183 37.5761C58.5011 37.3423 58.749 37.1681 59.0307 37.0752C59.3125 36.9824 59.6155 36.9752 59.9014 37.0546C60.0912 37.1073 60.2688 37.1968 60.424 37.3181C60.5792 37.4394 60.7089 37.59 60.8059 37.7615C60.9028 37.933 60.965 38.1219 60.9889 38.3174C61.0128 38.5129 60.9981 38.7112 60.9453 38.901Z" fill="black"/>
</g>
<g style="mix-blend-mode:overlay" opacity="0.21">
<path d="M62.9454 31.9012C62.8661 32.187 62.7037 32.443 62.479 32.6366C62.2542 32.8302 61.977 32.9529 61.6826 32.989C61.3881 33.0251 61.0895 32.973 60.8246 32.8394C60.5597 32.7058 60.3403 32.4967 60.1943 32.2384C60.0483 31.9801 59.9821 31.6844 60.0042 31.3885C60.0263 31.0927 60.1356 30.81 60.3183 30.5762C60.5011 30.3425 60.749 30.1682 61.0308 30.0754C61.3126 29.9826 61.6156 29.9754 61.9014 30.0548C62.2847 30.1613 62.6099 30.4156 62.8057 30.7618C63.0014 31.108 63.0518 31.5179 62.9454 31.9012Z" fill="black"/>
</g>
<path fill-rule="evenodd" clip-rule="evenodd" d="M61.6854 32.3045C61.3069 32.4728 60.8636 32.3023 60.6954 31.9238L57.3046 24.2945C57.1364 23.916 57.3069 23.4728 57.6854 23.3045C58.0639 23.1363 58.5071 23.3068 58.6753 23.6853L62.0661 31.3146C62.2344 31.6931 62.0639 32.1363 61.6854 32.3045Z" fill="#897AF2"/>
<path fill-rule="evenodd" clip-rule="evenodd" d="M52.475 44.8181C52.2127 44.4976 52.2599 44.0251 52.5804 43.7627L59.0413 38.4749C59.3618 38.2126 59.8343 38.2598 60.0967 38.5803C60.359 38.9009 60.3119 39.3734 59.9913 39.6357L53.5304 44.9235C53.2099 45.1859 52.7374 45.1387 52.475 44.8181Z" fill="#897AF2"/>
<g style="mix-blend-mode:overlay" opacity="0.21">
<path d="M70.9454 35.901C70.8661 36.1869 70.7037 36.4428 70.4789 36.6365C70.2542 36.8301 69.977 36.9527 69.6826 36.9888C69.3881 37.0249 69.0895 36.9729 68.8246 36.8393C68.5597 36.7057 68.3403 36.4965 68.1943 36.2383C68.0483 35.98 67.9821 35.6842 68.0042 35.3883C68.0262 35.0925 68.1356 34.8098 68.3183 34.5761C68.5011 34.3424 68.749 34.168 69.0308 34.0752C69.3126 33.9824 69.6156 33.9753 69.9014 34.0546C70.2847 34.1611 70.6099 34.4154 70.8057 34.7617C71.0014 35.1079 71.0518 35.5177 70.9454 35.901Z" fill="black"/>
</g>
<path fill-rule="evenodd" clip-rule="evenodd" d="M69.2799 35.3708C69.1253 34.9865 69.3115 34.5497 69.6958 34.3951L77.4417 31.2798C77.826 31.1253 78.2628 31.3115 78.4174 31.6958C78.572 32.0801 78.3857 32.517 78.0014 32.6715L70.2556 35.7868C69.8713 35.9414 69.4344 35.7551 69.2799 35.3708Z" fill="#897AF2"/>
<path d="M75.59 52.5494C75.2816 53.6572 74.6506 54.6489 73.7768 55.3991C72.903 56.1494 71.8255 56.6245 70.6808 56.7643C69.5361 56.9042 68.3756 56.7026 67.3459 56.1849C66.3161 55.6672 65.4635 54.8568 64.8958 53.8561C64.3282 52.8554 64.0709 51.7094 64.1566 50.563C64.2424 49.4166 64.6672 48.3212 65.3774 47.4155C66.0876 46.5097 67.0514 45.8343 68.1467 45.4745C69.242 45.1147 70.4197 45.0868 71.531 45.3943C73.0211 45.8066 74.2859 46.7921 75.0471 48.1339C75.8083 49.4758 76.0035 51.0641 75.59 52.5494Z" fill="#5555E2"/>
<path style="mix-blend-mode:overlay" opacity="0.22" d="M75.5901 52.5491C75.3108 53.5529 74.766 54.4635 74.0126 55.1854C73.2593 55.9074 72.3251 56.4143 71.3079 56.6529C70.2907 56.8916 69.2278 56.8534 68.2305 56.5422C67.2332 56.231 66.338 55.6584 65.6389 54.8841C65.8037 54.9448 65.9724 55.0001 66.1453 55.0461C67.2507 55.3516 68.4167 55.3668 69.5297 55.0903C70.6428 54.8139 71.6651 54.255 72.4975 53.4682C73.3298 52.6814 73.9438 51.6933 74.2798 50.6C74.6158 49.5067 74.6623 48.3453 74.4149 47.2288C75.0322 47.9523 75.4621 48.8156 75.6669 49.7431C75.8718 50.6707 75.8454 51.6341 75.5901 52.5491Z" fill="black"/>
<path style="mix-blend-mode:soft-light" opacity="0.64" d="M65.6403 52.3547C65.6534 52.0764 65.6347 51.7975 65.5844 51.5235C65.5678 51.1925 65.5678 50.8609 65.5844 50.5299C65.6094 49.8831 65.7523 49.2461 66.0061 48.6503C66.4876 47.5656 67.381 46.7156 68.4905 46.2869C69.5999 45.8581 70.8347 45.8855 71.9239 46.3632C72.6573 46.6891 73.4147 47.3297 73.1603 48.2188C72.7779 49.5542 71.308 50.5651 70.2202 50.7704C68.3318 51.1295 67.3704 50.9208 65.6403 52.3547Z" fill="url(#paint1_linear_445_42592)"/>
<path d="M56.672 53.186C58.9584 48.36 56.8872 42.6001 52.0459 40.3209C47.2046 38.0417 41.4263 40.1064 39.1399 44.9324C36.8535 49.7584 38.9247 55.5182 43.766 57.7974C48.6074 60.0766 54.3856 58.0121 56.672 53.186Z" fill="#9191FF"/>
<path style="mix-blend-mode:overlay" opacity="0.22" d="M57.2407 51.6858C56.7758 53.3545 55.8698 54.868 54.6172 56.0681C53.3646 57.2682 51.8116 58.1107 50.1205 58.5076C48.4294 58.9044 46.6623 58.8411 45.0042 58.3241C43.3461 57.8071 41.8578 56.8555 40.695 55.5687C40.969 55.6693 41.2498 55.7595 41.5373 55.8394C43.3752 56.3474 45.3137 56.3729 47.1644 55.9132C49.0151 55.4536 50.715 54.5244 52.099 53.2161C53.4829 51.9078 54.5038 50.2649 55.0623 48.447C55.6208 46.6291 55.698 44.6981 55.2864 42.8416C56.3124 44.0443 57.0271 45.4794 57.3678 47.0212C57.7085 48.5631 57.6648 50.1646 57.2407 51.6858Z" fill="black"/>
<path style="mix-blend-mode:soft-light" opacity="0.64" d="M40.7078 51.3235C40.8129 51.2366 40.6224 50.117 40.6151 49.9414C40.5873 49.3912 40.5873 48.8398 40.6151 48.2895C40.6565 47.214 40.8939 46.155 41.3158 45.1643C42.1164 43.3608 43.602 41.9475 45.4467 41.2345C47.2913 40.5216 49.3444 40.5672 51.1554 41.3613C52.3747 41.9026 53.634 42.9661 53.2109 44.4444C52.5752 46.665 50.1315 48.3456 48.3242 48.6893C45.1844 49.2862 43.5846 48.9398 40.7078 51.3235Z" fill="url(#paint2_linear_445_42592)"/>
<path d="M85.2948 33.7943C86.6195 30.6849 85.1647 27.0938 82.0454 25.7733C78.9262 24.4528 75.3236 25.9029 73.9989 29.0123C72.6742 32.1217 74.129 35.7129 77.2483 37.0334C80.3676 38.3539 83.9701 36.9037 85.2948 33.7943Z" fill="#5555E2"/>
<path style="mix-blend-mode:overlay" opacity="0.22" d="M85.5599 33.039C85.2657 34.0951 84.6923 35.053 83.8996 35.8126C83.1069 36.5721 82.124 37.1053 81.0537 37.3565C79.9834 37.6076 78.8652 37.5675 77.8158 37.2402C76.7664 36.913 75.8245 36.3106 75.0886 35.4962C75.262 35.56 75.4377 35.6165 75.6215 35.6671C76.7848 35.9887 78.0118 36.0047 79.1832 35.7138C80.3546 35.4228 81.4306 34.8347 82.3065 34.0066C83.1825 33.1785 83.8286 32.1386 84.1821 30.9879C84.5356 29.8372 84.5844 28.615 84.3239 27.4399C84.9733 28.2014 85.4255 29.11 85.641 30.0861C85.8565 31.0622 85.8286 32.0761 85.5599 33.039Z" fill="black"/>
<path style="mix-blend-mode:soft-light" opacity="0.64" d="M75.0883 32.8346C75.1028 32.5417 75.0832 32.2481 75.0298 31.9597C75.0147 31.6118 75.0112 31.2639 75.0298 30.9159C75.0559 30.2352 75.206 29.5648 75.473 28.9377C75.7552 28.3127 76.169 27.7555 76.6864 27.3039C77.2037 26.8524 77.8125 26.5171 78.4713 26.3209C79.5393 26.0114 80.6825 26.0857 81.7011 26.5308C82.4729 26.8741 83.2699 27.5464 83.0019 28.4823C82.5993 29.8876 81.0527 30.9511 79.9078 31.1688C77.921 31.5449 76.9084 31.3257 75.0883 32.8346Z" fill="url(#paint3_linear_445_42592)"/>
<path d="M61.6639 20.9077C61.3328 22.0966 60.6555 23.161 59.7176 23.9662C58.7797 24.7714 57.6232 25.2814 56.3946 25.4315C55.166 25.5816 53.9203 25.3651 52.8151 24.8095C51.7098 24.2539 50.7946 23.3841 50.1853 22.31C49.576 21.2359 49.2999 20.0059 49.3919 18.7754C49.4838 17.5449 49.9398 16.3692 50.702 15.397C51.4643 14.4248 52.4986 13.6997 53.6742 13.3135C54.8499 12.9273 56.1139 12.8972 57.3067 13.2272C58.9062 13.6697 60.2639 14.7275 61.0811 16.1679C61.8982 17.6082 62.1078 19.3132 61.6639 20.9077Z" fill="#9191FF"/>
<path style="mix-blend-mode:overlay" opacity="0.22" d="M61.6571 20.9328C61.3573 22.0103 60.7725 22.9877 59.9638 23.7627C59.1552 24.5377 58.1524 25.0818 57.0605 25.338C55.9686 25.5942 54.8277 25.5532 53.7571 25.2192C52.6866 24.8852 51.7257 24.2705 50.9752 23.4395C51.1521 23.5044 51.3331 23.5624 51.5182 23.6135C52.7048 23.9419 53.9565 23.9586 55.1515 23.662C56.3466 23.3654 57.4442 22.7656 58.3378 21.9208C59.2314 21.0761 59.8905 20.0152 60.2509 18.8413C60.6113 17.6675 60.6609 16.4206 60.3947 15.222C61.0573 15.9985 61.5189 16.9252 61.739 17.9208C61.959 18.9164 61.9309 19.9506 61.6571 20.9328Z" fill="black"/>
<path style="mix-blend-mode:soft-light" opacity="0.64" d="M50.9833 20.6985C50.9978 20.3999 50.9776 20.1006 50.9232 19.8066C50.908 19.4513 50.9042 19.0953 50.9232 18.74C50.95 18.0457 51.1034 17.362 51.3758 16.7224C51.8926 15.558 52.8516 14.6456 54.0425 14.1853C55.2334 13.725 56.5589 13.7544 57.728 14.2671C58.5153 14.6173 59.3281 15.3032 59.0551 16.2577C58.6444 17.6912 57.0667 18.776 55.899 18.9979C53.8718 19.3833 52.8406 19.1599 50.9833 20.6985Z" fill="url(#paint4_linear_445_42592)"/>
<g clip-path="url(#clip1_445_42592)">
<path d="M89.9234 15.4088L80.059 13.3467L82.8145 0.165527L92.6789 2.22766L92.1739 4.64319L84.7741 3.09626L84.1409 6.12486L91.2771 7.61668L90.7927 9.93411L83.6565 8.44229L83.0349 11.4157L90.4347 12.9626L89.9234 15.4088Z" fill="#BDB4FB"/>
<path d="M93.0679 7.22321L99.9343 8.65863L99.4973 10.7492L92.6308 9.31378L93.0679 7.22321ZM92.3796 10.5154L99.2461 11.9508L98.8129 14.023L91.9464 12.5876L92.3796 10.5154Z" fill="#BDB4FB"/>
<path d="M105.888 18.7461L106.927 13.7741C107.184 12.5479 106.802 11.3101 105.515 11.041C104.228 10.7718 103.308 11.7441 103.053 12.9641L102.013 17.9362L99.7142 17.4555L101.658 8.15518L103.786 8.59991L103.722 9.76385C104.063 9.40091 104.496 9.13761 104.975 9.00219C105.454 8.86678 105.961 8.86435 106.442 8.99518C107.031 9.08201 107.578 9.35158 108.006 9.76588C108.433 10.1802 108.72 10.7183 108.826 11.3043C109.249 10.8257 109.797 10.4745 110.408 10.2904C111.02 10.1063 111.671 10.0964 112.288 10.262C114.924 10.8131 115.879 12.7021 115.297 15.4855L114.25 20.4943L111.957 20.015L113.004 15.0061C113.261 13.78 112.967 12.6436 111.723 12.3834C110.478 12.1233 109.487 13.036 109.232 14.256L108.193 19.228L105.888 18.7461Z" fill="#BDB4FB"/>
<path d="M124.774 21.4529C124.213 21.8375 123.578 22.1006 122.91 22.2253C122.241 22.35 121.554 22.3336 120.892 22.1771C118.201 21.6145 116.326 19.5333 117.013 16.2472C117.7 12.9611 120.276 11.8104 122.943 12.3679C123.572 12.4766 124.17 12.7178 124.699 13.0754C125.228 13.433 125.674 13.8989 126.009 14.4422L124.237 15.665C123.83 15.0993 123.231 14.7011 122.552 14.5449C122.194 14.4598 121.822 14.4498 121.46 14.5155C121.098 14.5813 120.754 14.7214 120.449 14.927C120.143 15.1326 119.884 15.3991 119.687 15.7099C119.49 16.0207 119.36 16.369 119.305 16.7327C119.204 17.0838 119.178 17.4522 119.23 17.8138C119.282 18.1755 119.41 18.522 119.605 18.8306C119.801 19.1393 120.059 19.403 120.364 19.6045C120.669 19.806 121.013 19.9407 121.373 19.9997C121.744 20.0917 122.129 20.1084 122.507 20.0488C122.884 19.9892 123.246 19.8545 123.57 19.6527L124.774 21.4529Z" fill="#BDB4FB"/>
<path d="M127.831 11.9116C128.182 10.2318 129.927 9.84158 131.399 10.1492C132.986 10.4811 134.575 11.485 134.181 13.3671C133.76 15.3841 132.158 15.4526 130.491 15.1039C129.835 14.9668 128.732 14.9155 128.553 15.7738L128.41 16.4543L133.315 17.4796L133.023 18.8774L126.616 17.5381L127.052 15.4536C127.436 13.6144 129.203 13.4271 130.767 13.7539C131.38 13.8821 132.493 14.006 132.684 13.0925C132.875 12.179 132.164 11.6594 131.147 11.4466C130.362 11.2826 129.477 11.507 129.314 12.2218L127.831 11.9116Z" fill="#BDB4FB"/>
</g>
<defs>
<linearGradient id="paint0_linear_445_42592" x1="62.0935" y1="31.61" x2="63.1536" y2="36.3123" gradientUnits="userSpaceOnUse">
<stop stop-color="white"/>
<stop offset="1" stop-color="white"/>
</linearGradient>
<linearGradient id="paint1_linear_445_42592" x1="19711" y1="3912.09" x2="19733.6" y2="3967.09" gradientUnits="userSpaceOnUse">
<stop stop-color="white"/>
<stop offset="1" stop-color="white"/>
</linearGradient>
<linearGradient id="paint2_linear_445_42592" x1="32018.8" y1="6500.31" x2="32081.3" y2="6652.33" gradientUnits="userSpaceOnUse">
<stop stop-color="white"/>
<stop offset="1" stop-color="white"/>
</linearGradient>
<linearGradient id="paint3_linear_445_42592" x1="20814.5" y1="3774.18" x2="20839.6" y2="3835.07" gradientUnits="userSpaceOnUse">
<stop stop-color="white"/>
<stop offset="1" stop-color="white"/>
</linearGradient>
<linearGradient id="paint4_linear_445_42592" x1="20696.9" y1="3749.7" x2="20723" y2="3813.06" gradientUnits="userSpaceOnUse">
<stop stop-color="white"/>
<stop offset="1" stop-color="white"/>
</linearGradient>
<clipPath id="clip0_445_42592">
<rect width="69.65" height="69.65" fill="white" transform="translate(120 22)"/>
</clipPath>
<clipPath id="clip1_445_42592">
<rect width="53" height="13.9233" fill="white" transform="translate(82.8491) rotate(11.8075)"/>
</clipPath>
</defs>
</svg>
