<svg width="232" height="158" viewBox="0 0 232 158" fill="none" xmlns="http://www.w3.org/2000/svg">
<circle opacity="0.2" cx="116" cy="70.9995" r="70" fill="#63C215"/>
<path fill-rule="evenodd" clip-rule="evenodd" d="M33.5726 32.6913C33.803 31.7998 34.2599 30.983 34.899 30.3202C35.5381 29.6574 36.3377 29.171 37.2202 28.9082C37.6392 28.0913 38.2614 27.396 39.027 26.8891C39.7925 26.3822 40.6756 26.0808 41.5913 26.014C42.507 25.9471 43.4245 26.117 44.2555 26.5073C45.0865 26.8977 45.8032 27.4953 46.3364 28.2427C46.5838 28.2526 46.8303 28.2796 47.074 28.3234C47.8387 28.4584 48.5645 28.7594 49.2003 29.205C50.4702 28.8741 51.8173 29.0211 52.9859 29.6182C54.1545 30.2152 55.063 31.2206 55.539 32.4435C55.7999 32.4521 56.0599 32.4791 56.317 32.5242C57.0796 32.6598 57.8038 32.9594 58.4393 33.4022C59.0748 33.8451 59.6066 34.4207 59.9979 35.0892C60.3892 35.7578 60.6307 36.5033 60.7057 37.2743C60.7806 38.0453 60.6873 38.8233 60.4321 39.5547C60.1769 40.2861 59.7659 40.9533 59.2276 41.5103C58.6893 42.0673 58.0364 42.5008 57.3141 42.7808C56.5919 43.0607 55.8174 43.1805 55.0443 43.1319C54.2712 43.0832 53.5179 42.8673 52.8364 42.499C52.2801 43.4354 51.4513 44.1798 50.4608 44.6328C49.4703 45.0859 48.3652 45.226 47.293 45.0345C46.2613 44.8533 45.3067 44.37 44.55 43.6457C43.9817 44.1199 43.3212 44.4709 42.6103 44.6766C41.8993 44.8823 41.1534 44.9381 40.4197 44.8406C39.686 44.7431 38.9806 44.4944 38.348 44.1102C37.7155 43.7259 37.1695 43.2146 36.7448 42.6085C35.5467 42.6977 34.3534 42.3809 33.3574 41.709C32.3614 41.0372 31.6206 40.0496 31.2545 38.9053C30.8884 37.761 30.9182 36.5268 31.3393 35.4015C31.7604 34.2763 32.5481 33.3257 33.5754 32.7028L33.5726 32.6913Z" fill="#BEE79C"/>
<path fill-rule="evenodd" clip-rule="evenodd" d="M94.4724 25.8546C94.6044 25.342 94.8654 24.8724 95.2301 24.4912C95.5949 24.11 96.051 23.83 96.5544 23.6785C96.7929 23.2076 97.1477 22.8065 97.5846 22.5139C98.0215 22.2214 98.5258 22.0472 99.0489 22.0082C99.572 21.9691 100.096 22.0666 100.571 22.2911C101.046 22.5156 101.456 22.8596 101.76 23.29C101.902 23.2949 102.042 23.3098 102.181 23.3347C102.619 23.4148 103.033 23.5909 103.396 23.8504C103.824 23.7351 104.272 23.7169 104.709 23.7971C105.225 23.8893 105.708 24.1141 106.113 24.4498C106.518 24.7855 106.83 25.2209 107.019 25.7137C107.168 25.7173 107.316 25.7328 107.462 25.7601C107.9 25.8357 108.316 26.0065 108.681 26.2606C109.046 26.5148 109.352 26.8461 109.577 27.2315C109.803 27.617 109.942 28.0473 109.985 28.4925C110.029 28.9378 109.976 29.3872 109.829 29.8096C109.683 30.2319 109.447 30.617 109.138 30.9381C108.829 31.2592 108.454 31.5085 108.04 31.6687C107.625 31.8289 107.181 31.8961 106.739 31.8657C106.296 31.8353 105.865 31.708 105.476 31.4926C105.242 31.8903 104.922 32.2297 104.539 32.4856C104.157 32.7414 103.723 32.9073 103.268 32.9707C102.814 33.0341 102.351 32.9935 101.914 32.8519C101.478 32.7102 101.078 32.4712 100.746 32.1526C100.421 32.4255 100.045 32.6276 99.6389 32.746C99.2332 32.8644 98.8075 32.8966 98.3888 32.8405C97.9701 32.7844 97.5675 32.6413 97.2065 32.4202C96.8456 32.1992 96.5341 31.9049 96.2918 31.5562C96.0337 31.5771 95.774 31.5638 95.5193 31.5166C94.9081 31.4074 94.3444 31.1128 93.9036 30.6722C93.4627 30.2317 93.1656 29.6661 93.0518 29.0509C92.9381 28.4357 93.0131 27.8002 93.2669 27.2291C93.5207 26.658 93.9412 26.1785 94.4724 25.8546Z" fill="#BEE79C"/>
<g clip-path="url(#clip0_445_43227)">
<path d="M147.19 85.3773C147.19 85.3773 148.915 74.0299 144.268 71.2403C139.622 68.4506 117.096 72.3889 108.659 67.4299C96.4344 60.2326 100.931 44.4348 123.081 44.3315C145.23 44.2281 153.128 40.7213 151.894 31.3185C149.916 16.2527 165.348 9.19972 179.842 20.7375C194.336 32.2752 210.605 20.7375 210.605 20.7375C210.605 20.7375 200.693 43.3584 186.396 40.2241C168.632 36.3284 182.258 53.2896 173.163 60.1489C164.841 66.424 152.274 69.7601 151.055 85.3773H147.19Z" fill="#BAEB92"/>
<path d="M166.01 124.163L158.064 125.924C157.838 125.975 157.606 126 157.374 126H139.879C139.647 126 139.416 125.975 139.189 125.924L131.242 124.163C131.14 124.142 131.037 124.127 130.933 124.118C129.93 124.017 129.372 122.782 129.761 121.479L137.414 95.8434C137.612 95.1834 138.016 94.6046 138.568 94.1931C139.12 93.7816 139.789 93.5593 140.477 93.5592H156.776C157.464 93.5591 158.134 93.7814 158.685 94.1929C159.237 94.6045 159.641 95.1834 159.838 95.8434L167.491 121.479C167.881 122.782 167.327 124.017 166.319 124.118C166.215 124.127 166.112 124.142 166.01 124.163Z" fill="#33291B"/>
<path d="M153.693 83.0093H143.559V97.719H153.693V83.0093Z" fill="#4A422D"/>
<path d="M153.456 88.633H143.798C143.496 88.633 143.207 88.513 142.994 88.2994C142.78 88.0858 142.66 87.7962 142.66 87.4941C142.66 87.1921 142.78 86.9024 142.994 86.6888C143.207 86.4753 143.496 86.3553 143.798 86.3553H153.456C153.757 86.3553 154.047 86.4753 154.26 86.6888C154.473 86.9024 154.593 87.1921 154.593 87.4941C154.593 87.7962 154.473 88.0858 154.26 88.2994C154.047 88.513 153.757 88.633 153.456 88.633Z" fill="#3E2A13"/>
<path d="M153.733 82.389H143.519C142.649 82.389 141.944 83.095 141.944 83.966C141.944 84.8369 142.649 85.5429 143.519 85.5429H153.733C154.603 85.5429 155.308 84.8369 155.308 83.966C155.308 83.095 154.603 82.389 153.733 82.389Z" fill="#3E2A13"/>
<path d="M153.502 91.3554H143.75C142.753 91.3554 141.944 92.165 141.944 93.1638V93.6938C141.944 94.6925 142.753 95.5022 143.75 95.5022H153.502C154.499 95.5022 155.308 94.6925 155.308 93.6938V93.1638C155.308 92.165 154.499 91.3554 153.502 91.3554Z" fill="#3E2A13"/>
<path d="M157.723 126H139.532C138.968 126 138.604 124.831 138.775 123.586L142.449 96.6262C142.502 96.3073 142.668 96.0181 142.916 95.8119C143.165 95.6057 143.48 95.4963 143.803 95.5038H153.446C153.769 95.496 154.084 95.6052 154.332 95.8115C154.581 96.0178 154.747 96.3071 154.8 96.6262L158.477 123.588C158.649 124.831 158.287 126 157.723 126Z" fill="#675C4F"/>
<path d="M153.71 91.3554H150.256C150.04 91.3554 149.865 91.531 149.865 91.7476C149.865 91.9642 150.04 92.1398 150.256 92.1398H153.71C153.926 92.1398 154.101 91.9642 154.101 91.7476C154.101 91.531 153.926 91.3554 153.71 91.3554Z" fill="#868072"/>
<path d="M154.921 126H146.726C146.622 126 146.523 125.958 146.449 125.885C146.376 125.811 146.335 125.712 146.335 125.608C146.335 125.504 146.376 125.404 146.449 125.33C146.523 125.257 146.622 125.215 146.726 125.215H154.921C155.025 125.215 155.124 125.257 155.198 125.33C155.271 125.404 155.312 125.504 155.312 125.608C155.312 125.712 155.271 125.811 155.198 125.885C155.124 125.958 155.025 126 154.921 126Z" fill="#534F4B"/>
<path d="M153.652 87.1397H151.132C151.028 87.1397 150.928 87.0983 150.855 87.0248C150.781 86.9512 150.74 86.8515 150.74 86.7475C150.74 86.696 150.75 86.645 150.77 86.5974C150.79 86.5498 150.818 86.5066 150.855 86.4701C150.891 86.4337 150.934 86.4048 150.982 86.3851C151.029 86.3654 151.08 86.3553 151.132 86.3553H153.652C153.704 86.3553 153.755 86.3654 153.802 86.3851C153.85 86.4048 153.893 86.4337 153.929 86.4701C153.966 86.5066 153.995 86.5498 154.014 86.5974C154.034 86.645 154.044 86.696 154.044 86.7475C154.044 86.8515 154.003 86.9512 153.929 87.0248C153.856 87.0983 153.756 87.1397 153.652 87.1397Z" fill="#67604F"/>
<path d="M149.314 87.1397H147.583C147.532 87.1397 147.481 87.1295 147.434 87.1098C147.386 87.0901 147.343 87.0611 147.307 87.0247C147.271 86.9883 147.242 86.945 147.223 86.8974C147.203 86.8499 147.193 86.7989 147.193 86.7475C147.193 86.6961 147.203 86.6451 147.223 86.5975C147.242 86.5499 147.271 86.5067 147.307 86.4702C147.343 86.4338 147.386 86.4049 147.434 86.3852C147.481 86.3654 147.532 86.3553 147.583 86.3553H149.314C149.365 86.3553 149.416 86.3654 149.464 86.3852C149.511 86.4049 149.554 86.4338 149.59 86.4702C149.627 86.5067 149.655 86.5499 149.675 86.5975C149.694 86.6451 149.704 86.6961 149.704 86.7475C149.704 86.7989 149.694 86.8499 149.675 86.8974C149.655 86.945 149.627 86.9883 149.59 87.0247C149.554 87.0611 149.511 87.0901 149.464 87.1098C149.416 87.1295 149.365 87.1397 149.314 87.1397Z" fill="#868072"/>
<path d="M153.652 83.17H149.676C149.625 83.17 149.574 83.1599 149.526 83.1402C149.479 83.1205 149.436 83.0916 149.399 83.0551C149.363 83.0187 149.334 82.9755 149.314 82.9279C149.295 82.8803 149.285 82.8293 149.285 82.7778C149.285 82.6741 149.326 82.5748 149.4 82.5016C149.473 82.4284 149.573 82.3873 149.676 82.3873H153.66C153.764 82.3873 153.863 82.4284 153.937 82.5016C154.01 82.5748 154.052 82.6741 154.052 82.7778C154.052 82.83 154.042 82.8817 154.021 82.9298C154.001 82.9779 153.972 83.0216 153.934 83.0581C153.897 83.0946 153.853 83.1233 153.805 83.1426C153.756 83.1618 153.704 83.1711 153.652 83.17Z" fill="#67604F"/>
<path d="M156.193 122.682C156.193 122.682 149.359 125.481 146.269 120.758C143.18 116.036 146.042 111.393 147.998 113.802C149.131 115.195 148.626 125.215 143.682 122.583C139.499 120.356 141.944 111.187 146.632 109.26C149.865 107.929 151.999 112.005 152.245 114.019C152.631 117.174 147.274 116.809 150.54 107.947C153.807 99.086 145.773 97.888 147.59 102.442C148.482 104.665 152.784 107.261 153.398 104.139" stroke="#D1C7AE" stroke-width="0.209845" stroke-miterlimit="10"/>
<path d="M137.885 46.0355L136.183 46.4943L134.871 43.9249C135.803 43.4236 136.739 42.9435 137.529 42.5387L138.307 42.141C139.264 41.651 140.23 41.1581 141.2 40.6866L141.849 41.6609L142.294 41.4337L141.771 40.4096L141.225 39.3416L140.702 38.3175L140.257 38.5448L140.667 39.6427C139.732 40.1455 138.769 40.6369 137.796 41.1383L137.24 41.4223C136.282 41.9123 135.316 42.4052 134.346 42.8767L133.698 41.901L133.254 42.1282L133.776 43.1523L134.048 43.6877L134.322 44.2218L136.078 47.6618L138.226 46.7031L137.885 46.0355Z" fill="#3D831D"/>
<path d="M136.599 52.1302C135.959 53.4085 136.411 55.208 138.221 56.1185C140.107 57.0658 141.742 56.323 142.385 55.039C143.027 53.7551 142.568 51.9711 140.758 51.0621C138.868 50.1134 137.238 50.8562 136.599 52.1302ZM141.972 54.8288C141.386 55.9963 139.898 55.8699 138.658 55.2464C137.419 54.6229 136.427 53.5022 137.011 52.3362C137.596 51.1701 139.082 51.3036 140.322 51.9271C141.562 52.5506 142.556 53.6642 141.972 54.8317V54.8288Z" fill="#3D831D"/>
<path d="M159.532 37.9923L159.248 37.0421C159.106 36.5464 158.869 36.3319 158.512 36.2452C159.221 36.1231 159.576 35.6771 159.576 35.1743C159.576 34.4642 159.008 34.0608 158.039 34.0608H156.289V34.3136L156.878 34.3818C156.889 34.9286 156.889 35.4783 156.889 36.0223V36.339C156.889 36.8929 156.889 37.4426 156.878 37.9809L156.289 38.0491V38.3019H158.059V38.0491L157.469 37.9809C157.459 37.4525 157.458 36.9142 157.458 36.339H157.774C158.299 36.339 158.533 36.4285 158.659 36.9412L158.919 37.9724C158.994 38.2564 159.166 38.3644 159.557 38.3644C159.711 38.368 159.865 38.3469 160.013 38.3019V38.0491L159.532 37.9923ZM157.462 36.0549C157.462 35.4314 157.462 34.8959 157.475 34.3505H158.042C158.699 34.3505 158.984 34.6346 158.984 35.1729C158.984 35.7112 158.655 36.0535 157.973 36.0535L157.462 36.0549Z" fill="#6BB747"/>
<path d="M134.111 11.7419L133.827 13.3426H130.594C130.573 12.2674 130.571 11.1695 130.571 9.97926H132.459L132.62 11.1666H133.187V8.20385H132.62L132.449 9.40403H130.571C130.571 8.32742 130.571 7.26076 130.595 6.2154H133.574L133.858 7.8161H134.557L134.471 5.59045H128.265V6.09041L129.428 6.23244C129.449 7.31189 129.451 8.39702 129.451 9.47362V10.0986C129.451 11.1936 129.451 12.2773 129.428 13.3397L128.265 13.4818V13.9817H134.721L134.807 11.7561L134.111 11.7419Z" fill="#6BB747"/>
<path d="M146.954 27.7431L148.391 27.577V26.9591H145.393L142.068 35.5719L138.556 26.9591H135.777V27.5713L137.167 27.746V36.4923L135.777 36.6912V37.309H139.22V36.6912L137.955 36.4966V31.5595L137.865 28.6195L141.427 37.309H142.183L145.564 28.6195V32.5183C145.564 33.8704 145.564 35.2169 145.535 36.5264L144.22 36.6912V37.309H148.388V36.6912L146.951 36.525C146.924 35.1899 146.923 33.8491 146.923 32.5183V31.7442C146.924 30.3977 146.925 29.0569 146.954 27.7431Z" fill="#3D831D"/>
<path d="M128 47.0993L128.634 47.0042V46.7201H126.99V47.0042L127.641 47.0922L126.61 49.271L125.601 47.0837L126.289 47.0042V46.7201H124.288V47.0042L124.862 47.0709L126.132 49.6559C126.132 50.2042 126.132 50.697 126.12 51.1472L125.381 51.2268V51.5109H127.52V51.2268L126.781 51.1472C126.771 50.6856 126.77 50.1885 126.77 49.636L128 47.0993Z" fill="#3D831D"/>
<path d="M155.692 11.1936L156.855 11.0516V10.5516H153.358V11.0516L154.522 11.1936C154.543 12.2731 154.544 13.3582 154.544 14.4348V15.0597C154.544 16.1548 154.544 17.2385 154.522 18.3009L153.358 18.443V18.9429H156.855V18.443L155.692 18.3009C155.669 17.2215 155.668 16.1364 155.668 15.0597V14.4348C155.668 13.3397 155.669 12.256 155.692 11.1936Z" fill="#3D831D"/>
<path d="M155.54 30.1137C156.413 32.5112 157.844 33.0126 159.159 32.5283C160.53 32.0269 161.129 30.6818 160.42 28.7275L160.074 27.7758L159.868 27.2077L159.664 26.6396L159.269 25.5587L158.801 25.7306L159.072 26.8668C158.068 27.2574 157.049 27.631 156.039 28.0031L155.452 28.2176C154.425 28.5925 153.408 28.9618 152.404 29.3055L151.879 28.2573L151.409 28.4278L151.802 29.5086L152.214 30.6364L152.607 31.7172L153.076 31.5468L152.804 30.4105C153.655 30.0825 154.459 29.7828 155.309 29.4731L155.54 30.1137ZM159.796 28.7062C160.313 30.1265 159.888 31.0028 158.749 31.4176C157.635 31.8238 156.666 31.5383 156.142 30.0938L155.847 29.2828L156.421 29.0726C157.466 28.6919 158.503 28.3156 159.526 27.9662L159.796 28.7062Z" fill="#3D831D"/>
<path d="M129.332 20.5976L128.811 20.5778C127.835 20.5423 127.201 20.271 126.946 19.5253C126.644 18.639 127.183 17.9388 128.103 17.6221C128.439 17.4967 128.803 17.4648 129.156 17.5298L129.858 18.7796L130.567 18.5368L130.112 16.9744C129.415 16.7475 128.662 16.759 127.973 17.0071C126.472 17.5212 125.609 18.7413 126.075 20.102C126.486 21.3092 127.549 21.7112 128.912 21.7723L129.421 21.795C130.587 21.8447 131.164 22.0308 131.428 22.7991C131.743 23.7224 131.177 24.5035 130.055 24.8813C129.625 25.0456 129.158 25.0864 128.706 24.9992L127.997 23.6968L127.288 23.9397L127.783 25.6199C128.617 25.7911 129.483 25.7362 130.289 25.4608C131.908 24.9069 132.786 23.6542 132.309 22.258C131.935 21.1459 131.098 20.6672 129.332 20.5976Z" fill="#3D831D"/>
<path d="M162.435 2.99976L161.223 3.58919L160.526 3.92864L159.091 4.62603L159.362 5.18421L160.892 4.68284L163.038 9.10715C164.25 11.6055 163.881 12.9051 162.279 13.6848C160.861 14.3765 159.584 14.0627 158.423 11.6637L157.886 10.5616C157.298 9.34576 156.715 8.1399 156.166 6.94825L157.522 6.08186L157.251 5.52367L155.832 6.21537L154.495 6.86587L153.36 7.42265L153.631 7.98083L154.854 7.55473C155.465 8.75349 156.058 9.96928 156.642 11.1751L157.374 12.6821C158.632 15.277 160.547 15.7429 162.567 14.76C164.448 13.8454 165.342 12.0614 163.921 9.13555L161.584 4.32065L162.719 3.56504L162.435 2.99976Z" fill="#6BB747"/>
<path d="M171.615 17.5381L172.778 17.4046V16.9047H170.359L167.664 23.8642L164.827 16.9047H162.579V17.4046L163.702 17.5467V24.6213L162.579 24.7818V25.2817H165.363V24.7818L164.339 24.6255V20.6316L164.268 18.254L167.149 25.2817H167.76L170.495 18.254V21.4071C170.495 22.5007 170.495 23.5859 170.473 24.6497L169.409 24.7818V25.2817H172.781V24.7818L171.617 24.6483C171.596 23.5688 171.595 22.4837 171.595 21.4071V20.7821C171.592 19.6856 171.593 18.6019 171.615 17.5381Z" fill="#6BB747"/>
</g>
<mask id="mask0_445_43227" style="mask-type:alpha" maskUnits="userSpaceOnUse" x="43" y="-45" width="143" height="186">
<path d="M186 70.9995C186 109.659 154.66 141 116 141C77.3401 141 46 109.659 46 70.9995C32.5001 17.9998 84.8401 -44.0002 123.5 -44.0002C162.16 -44.0002 186 32.3396 186 70.9995Z" fill="#63C215"/>
</mask>
<g mask="url(#mask0_445_43227)">
<path d="M79.3341 25.4378V9.63348" stroke="#4D4D4D" stroke-width="0.231968" stroke-linecap="round" stroke-linejoin="round"/>
<path d="M95.3828 10.7554C91.5114 8.21986 86.8904 7.69526 82.0201 9.23991C80.7531 9.64472 79.5247 10.1617 78.3495 10.7846V15.2712C79.8391 14.2559 81.4667 13.4598 83.1826 12.9073C86.9665 11.7075 90.3618 12.0669 93.2763 13.9743C94.871 15.0101 96.612 15.8009 98.4413 16.3204L96.8886 13.7152L98.4413 12.2677C97.3664 11.8844 96.3399 11.3769 95.3828 10.7554Z" fill="#00AEEF"/>
<path d="M89.2754 38.3958H69.394V130.453H89.2754V38.3958Z" fill="#5194D2"/>
<path d="M83.8222 38.3958H74.8458V130.453H83.8222V38.3958Z" fill="#61A9EC"/>
<path d="M89.2608 38.3861L89.1118 38.1432L83.406 28.7927H75.265L69.5575 38.1432L69.4086 38.3861V38.3958H69.4264C70.1178 39.0111 71.3434 39.4207 72.7375 39.4207C74.1316 39.4207 75.3459 39.0159 76.0405 38.4055C76.7351 39.0159 77.9544 39.4207 79.3403 39.4207C80.7263 39.4207 81.9488 39.0159 82.6434 38.4055C83.338 39.0159 84.5572 39.4207 85.9464 39.4207C87.3356 39.4207 88.5645 39.0111 89.2575 38.3958H89.2737L89.2608 38.3861Z" fill="white"/>
<path d="M83.4029 28.7927L79.7129 22.7485C79.6674 22.6915 79.6096 22.6455 79.5439 22.6138C79.4782 22.5822 79.4062 22.5657 79.3332 22.5657C79.2603 22.5657 79.1882 22.5822 79.1225 22.6138C79.0568 22.6455 78.999 22.6915 78.9535 22.7485L75.3396 28.6665L74.8425 29.476C74.9267 29.476 75.0044 29.476 75.1 29.476C75.9889 29.476 76.7709 29.217 77.2146 28.8284C77.6598 29.2186 78.4419 29.476 79.3292 29.476C80.2164 29.476 81.0001 29.217 81.4454 28.8284C81.8906 29.2186 82.6727 29.476 83.5599 29.476C83.6474 29.476 83.7332 29.476 83.8174 29.476L83.4029 28.7927Z" fill="#61A9EC"/>
<path d="M74.8814 57.699H55.0001V130.453H74.8814V57.699Z" fill="#349D8A"/>
<path d="M69.4296 57.699H60.4531V130.453H69.4296V57.699Z" fill="#4AB7A3"/>
<path d="M74.8684 57.691L74.7178 57.4481L69.012 48.0977H60.871L55.1636 57.4481L55.0162 57.691V57.7007H55.034C55.7254 58.3144 56.9511 58.724 58.3452 58.724C59.7392 58.724 60.9536 58.3193 61.6482 57.7088C62.3396 58.3193 63.5539 58.7273 64.9415 58.7273C66.3291 58.7273 67.5483 58.3225 68.2429 57.7121C68.9375 58.3225 70.1567 58.7273 71.5459 58.7273C72.9352 58.7273 74.1641 58.3176 74.8571 57.704H74.8733L74.8684 57.691Z" fill="white"/>
<path d="M69.0086 48.0977L65.3251 42.0502C65.2786 41.9947 65.2205 41.9501 65.1549 41.9195C65.0893 41.8889 65.0178 41.873 64.9454 41.873C64.873 41.873 64.8015 41.8889 64.7359 41.9195C64.6703 41.9501 64.6122 41.9947 64.5657 42.0502L60.9518 47.9698L60.4547 48.7793C60.5389 48.7793 60.6167 48.7793 60.7122 48.7793C61.6011 48.7793 62.3831 48.5186 62.8268 48.1317C63.2737 48.5203 64.0541 48.7793 64.943 48.7793C65.8319 48.7793 66.6139 48.5186 67.0576 48.1317C67.5028 48.5203 68.2849 48.7793 69.1722 48.7793C69.2596 48.7793 69.3454 48.7793 69.4296 48.7793L69.0086 48.0977Z" fill="#60AD9F"/>
<path d="M115.881 70.5339H96.0001V130.453H115.881V70.5339Z" fill="#52B700"/>
<path d="M110.428 70.5339H101.452V130.453H110.428V70.5339Z" fill="#86CB4F"/>
<path d="M115.867 70.5241L115.716 70.2812L110.01 60.9324H101.871L96.1634 70.2812L96.0145 70.5241V70.5338H96.0307C96.722 71.1491 97.9477 71.5587 99.3434 71.5587C100.739 71.5587 101.95 71.154 102.646 70.5435C103.341 71.154 104.559 71.5587 105.946 71.5587C107.334 71.5587 108.553 71.154 109.249 70.5435C109.944 71.154 111.163 71.5587 112.551 71.5587C113.938 71.5587 115.17 71.1491 115.863 70.5338H115.878L115.867 70.5241Z" fill="white"/>
<path d="M110.007 60.9308L106.317 54.8866C106.271 54.8309 106.212 54.786 106.147 54.7552C106.081 54.7244 106.009 54.7085 105.937 54.7085C105.864 54.7085 105.792 54.7244 105.727 54.7552C105.661 54.786 105.603 54.8309 105.556 54.8866L101.944 60.8046L101.445 61.6141C101.529 61.6141 101.607 61.6141 101.703 61.6141C102.593 61.6141 103.374 61.3551 103.819 60.9665C104.264 61.3567 105.044 61.6141 105.933 61.6141C106.822 61.6141 107.604 61.3551 108.048 60.9665C108.495 61.3567 109.275 61.6141 110.164 61.6141C110.252 61.6141 110.337 61.6141 110.422 61.6141L110.007 60.9308Z" fill="#52B700"/>
</g>
<path d="M142.006 112.784L158.628 130.261C158.628 130.261 154.558 134.022 145.529 132.147C136.5 130.272 116.505 121.33 114.109 135.962L114.352 112.047C114.352 112.047 117.079 113.529 125.574 113.886C134.07 114.243 138.274 115.689 142.006 112.784Z" fill="white"/>
<path d="M140.604 108.088L157.149 128.249C157.149 128.249 151.926 130.806 142.374 127.975C133.533 125.355 116.505 121.335 114.109 135.968L114.352 112.052C114.352 112.052 116.402 108.062 124.895 108.412C133.389 108.761 136.874 110.991 140.604 108.088Z" fill="white"/>
<path d="M141.121 106.368L154.525 123.94C154.525 123.94 150.463 127.932 141.434 126.056C132.405 124.179 116.505 121.337 114.109 135.97L114.277 112.043C114.277 112.043 116.402 108.055 124.895 108.404C133.389 108.754 137.389 109.269 141.121 106.368Z" fill="white"/>
<path d="M85.3056 111.16L69.4476 130.78C69.4476 130.78 73.4562 134.5 82.5093 132.749C91.5623 130.997 110.367 123.637 114.19 135.97L114.275 112.041C114.275 112.041 113.331 111.449 104.834 111.684C96.3363 111.92 89.0051 114.116 85.3056 111.16Z" fill="white"/>
<path d="M87.5869 106L72.7959 123.136C72.7959 123.136 75.1874 127.597 87.0055 125.682C96.1082 124.211 111.998 121.304 114.192 135.97L114.277 112.041C114.277 112.041 112.283 108.023 103.791 108.259C95.2988 108.494 91.2772 108.954 87.5869 106Z" fill="white"/>
<path d="M109.043 135.381C109.043 135.381 108.583 140.459 113.799 140.622C119.014 140.786 119.818 136.367 119.818 136.367L116.085 134.895L112.121 134.191L109.043 135.381Z" fill="#ADD68A"/>
<path d="M109.087 137.19C109.087 137.19 111.39 135.455 114.12 135.05C114.12 135.05 111.361 128.688 107.225 127.123C103.09 125.557 93.7957 128.122 76.8817 131.842C73.4562 132.594 69.523 130.506 69.523 130.506L65.908 139.877L109.087 137.19Z" fill="#D4D5DA"/>
<path d="M119.165 137.158C119.165 137.158 116.851 135.438 114.121 135.05C114.121 135.05 116.831 128.672 120.966 127.081C125.102 125.489 134.396 128 151.337 131.615C154.766 132.351 158.685 130.236 158.685 130.236L162.364 139.585L119.165 137.158Z" fill="#D4D5DA"/>
<path d="M114.324 141.732C111.344 141.732 108.897 140.37 108.136 138.457L65.2822 141.494C64.9666 141.516 64.6552 141.412 64.4157 141.206C64.1762 140.999 64.0281 140.706 64.0037 140.39C63.9914 140.233 64.0102 140.075 64.059 139.926C64.1079 139.776 64.1858 139.637 64.2883 139.518C64.3909 139.398 64.516 139.3 64.6566 139.229C64.7971 139.157 64.9504 139.115 65.1075 139.103L108.997 135.992C109.16 135.98 109.324 136.002 109.479 136.057C109.634 136.111 109.776 136.197 109.896 136.308C110.016 136.42 110.112 136.555 110.178 136.706C110.244 136.856 110.278 137.018 110.279 137.182C110.279 138.199 112.01 139.333 114.326 139.333H114.348C115.509 139.333 116.626 139.036 117.415 138.529C118.04 138.126 118.399 137.625 118.397 137.156C118.397 136.991 118.431 136.828 118.497 136.677C118.563 136.526 118.659 136.389 118.78 136.277C118.901 136.164 119.044 136.078 119.199 136.024C119.355 135.969 119.521 135.948 119.685 135.961L163.101 139.272C163.259 139.284 163.412 139.327 163.552 139.398C163.693 139.469 163.818 139.567 163.921 139.687C164.023 139.806 164.101 139.945 164.15 140.095C164.199 140.245 164.218 140.403 164.205 140.56C164.194 140.717 164.151 140.871 164.08 141.011C164.009 141.152 163.911 141.277 163.791 141.38C163.672 141.483 163.533 141.561 163.383 141.609C163.233 141.658 163.075 141.676 162.918 141.664L120.539 138.428C120.161 139.307 119.518 140.047 118.699 140.543C117.518 141.303 115.973 141.724 114.343 141.73L114.324 141.732Z" fill="#52B700"/>
<path d="M114.761 135.186L113.49 134.916C114.777 128.88 117.98 125.349 123.282 124.122C127.881 123.055 133.584 123.832 139.103 124.582L141.271 124.875C151.177 126.174 153.78 123.035 153.793 123.002L154.678 123.933C154.605 124.036 153.898 124.959 151.839 125.669C149.194 126.589 145.585 126.751 141.101 126.163L138.919 125.868C133.524 125.132 127.942 124.373 123.569 125.386C118.744 126.505 115.944 129.619 114.761 135.186Z" fill="#D4D5DA"/>
<path d="M114.822 134.982L113.578 134.605C115.164 129.378 118.821 126.335 124.454 125.559C129.178 124.906 134.648 125.876 139.854 127.02C148.094 128.83 154.572 130.042 156.869 127.873L157.763 128.817C155.004 131.43 148.484 130.247 139.574 128.289C129.267 126.025 118.004 124.487 114.822 134.982Z" fill="#D4D5DA"/>
<path d="M113.486 135.19C112.271 129.671 109.477 126.578 104.696 125.482C100.358 124.487 94.824 125.256 89.4724 126.001C88.6777 126.111 87.8829 126.221 87.09 126.326C74.9335 127.943 72.8031 123.364 72.7185 123.169L73.3145 122.912L73.9051 122.643C73.9051 122.643 74.3779 123.598 76.1624 124.367C79.2438 125.695 83.705 125.471 86.9189 125.039C87.71 124.934 88.5011 124.823 89.2921 124.713C94.7615 123.953 100.415 123.166 104.986 124.214C110.242 125.421 113.438 128.92 114.755 134.91L113.486 135.19Z" fill="#D4D5DA"/>
<path d="M81.4334 146.198C83.8893 144.609 86.9101 143.7 89.5739 142.898C91.7208 142.252 93.7482 141.643 94.7747 140.887C97.5342 138.864 98.4669 133.808 98.638 131.61C100.373 131.453 102.266 131.135 103.478 131.299C103.403 132.149 103.252 134.597 102.742 136.507C101.721 140.322 100.02 143.13 97.6814 144.848C95.9723 146.106 93.5495 146.835 90.985 147.608C85.282 149.322 81.5419 150.746 81.3966 154.753L79.1411 152.545L76.4957 154.567C76.6153 151.057 78.2802 148.24 81.4334 146.198Z" fill="#FF666E"/>
<mask id="mask1_445_43227" style="mask-type:luminance" maskUnits="userSpaceOnUse" x="78" y="109" width="35" height="17">
<path d="M78.7785 122.949L88.7017 109.734C88.7017 109.734 103.682 108.842 107.19 109.861C110.699 110.88 112.259 111.736 112.259 111.736L111.188 125.337C111.188 125.337 104.843 120.114 78.7785 122.949Z" fill="white"/>
</mask>
<g mask="url(#mask1_445_43227)">
<path d="M114.707 131.181C114.069 127.38 112.443 124.538 109.874 122.73C104.118 118.682 94.6051 120.404 88.3042 121.543L87.7266 121.648C75.8165 123.791 73.7101 119.12 73.6255 118.922L74.2344 118.662C74.2344 118.673 74.7311 119.766 76.591 120.586C78.3387 121.365 81.6667 122.058 87.6107 120.997L88.1865 120.894C94.5922 119.735 104.273 117.985 110.263 122.191C112.982 124.102 114.7 127.092 115.368 131.073L114.707 131.181Z" fill="#999999"/>
<path d="M115.114 128.679C114.61 124.858 113.09 121.959 110.581 120.064C104.972 115.816 95.4001 117.201 89.0679 118.118L88.4866 118.202C76.5084 119.926 74.5676 115.183 74.4903 114.981L75.1085 114.747L74.7994 114.863L75.1066 114.744C75.1066 114.755 75.5647 115.857 77.3952 116.749C79.1134 117.588 82.4156 118.405 88.3927 117.547L88.9722 117.465C95.4111 116.532 105.15 115.123 110.98 119.536C113.631 121.543 115.241 124.59 115.763 128.593L115.114 128.679Z" fill="#999999"/>
<path d="M115.715 126.1C115.325 122.266 113.887 119.323 111.438 117.354C105.958 112.939 96.3528 114.043 89.9912 114.779L89.4081 114.845C77.384 116.215 75.5847 111.418 75.513 111.213L76.1367 110.994C76.1367 111.005 76.5616 112.12 78.3645 113.068C80.057 113.956 83.3316 114.872 89.3345 114.19L89.9177 114.122C96.3841 113.386 106.156 112.26 111.854 116.845C114.442 118.929 115.964 122.021 116.372 126.043L115.715 126.1Z" fill="#999999"/>
<path d="M116.416 123.593C116.148 119.749 114.803 116.762 112.419 114.716C107.084 110.135 97.442 110.932 91.0638 111.46L90.477 111.519C78.4142 112.508 76.7677 107.655 76.7033 107.448L77.3325 107.251C77.3325 107.262 77.7225 108.388 79.4941 109.392C81.1498 110.334 84.4042 111.353 90.4236 110.864L91.0068 110.816C97.4954 110.279 107.299 109.467 112.847 114.229C115.37 116.394 116.792 119.532 117.079 123.559L116.416 123.593Z" fill="#999999"/>
</g>
<mask id="mask2_445_43227" style="mask-type:luminance" maskUnits="userSpaceOnUse" x="116" y="109" width="32" height="17">
<path d="M116.485 112.545L117.438 125.379C117.438 125.379 124.307 120.579 130.29 121.643C136.272 122.706 144.863 123.352 146.363 122.971L147.731 122.916L139.228 109.637C139.228 109.637 128.034 109.037 125.166 109.541C122.298 110.045 116.485 112.545 116.485 112.545Z" fill="white"/>
</mask>
<g mask="url(#mask2_445_43227)">
<path d="M114.553 131.959L113.898 131.878C114.387 127.872 115.971 124.81 118.602 122.779C124.39 118.313 134.138 119.63 140.59 120.504L141.171 120.581C147.156 121.387 150.45 120.537 152.161 119.681C153.983 118.771 154.426 117.667 154.43 117.658L155.048 117.888C154.974 118.09 153.077 122.855 141.083 121.238L140.501 121.159C134.158 120.301 124.575 119.006 119.005 123.304C116.519 125.221 115.02 128.135 114.553 131.959Z" fill="#999999"/>
<path d="M114.036 129.478L113.377 129.421C113.727 125.399 115.2 122.283 117.759 120.16C123.387 115.493 133.174 116.468 139.652 117.111L140.237 117.17C151.758 118.309 153.368 113.826 153.383 113.782L154.01 113.988C153.942 114.194 152.215 119.017 140.17 117.827L139.596 117.774C133.227 117.141 123.604 116.182 118.19 120.675C115.763 122.675 114.369 125.638 114.036 129.478Z" fill="#999999"/>
<path d="M113.318 126.926L112.66 126.889C112.89 122.858 114.271 119.702 116.766 117.507C122.254 112.676 132.067 113.36 138.561 113.815L139.146 113.855C150.699 114.652 152.172 110.126 152.187 110.08L152.82 110.264C152.759 110.472 151.164 115.343 139.1 114.51L138.515 114.47C132.129 114.023 122.484 113.349 117.204 118C114.845 120.075 113.539 123.079 113.318 126.926Z" fill="#999999"/>
<path d="M112.502 124.455L111.841 124.437C111.944 120.403 113.227 117.202 115.649 114.928C120.984 109.924 130.812 110.299 137.317 110.547L137.902 110.57C143.938 110.796 147.135 109.633 148.756 108.618C150.484 107.536 150.817 106.393 150.82 106.382L151.459 106.552C151.403 106.761 149.97 111.683 137.88 111.23L137.293 111.208C130.898 110.963 121.235 110.595 116.104 115.41C113.812 117.558 112.599 120.601 112.502 124.455Z" fill="#999999"/>
</g>
<path d="M191.532 56.0467C191.446 57.5794 191.477 59.1164 191.626 60.6443C191.876 62.9219 191.574 64.6408 191.682 65.6619C191.79 66.683 191.852 68.5445 191.852 68.5445L193.755 65.5218C193.583 64.8175 193.465 64.1012 193.4 63.3791C193.333 62.3789 192.61 60.2161 192.364 59.3618C192.118 58.5074 192.284 55.3806 192.252 54.832L191.532 56.0467Z" fill="white"/>
<path d="M171.146 102.485L168.977 101.061L179.022 86.7117L180.32 87.5643L171.146 102.485Z" fill="#675C4F"/>
<path d="M167.426 105.785C167.397 105.766 167.376 105.736 167.368 105.702C167.36 105.667 167.365 105.631 167.383 105.601L167.886 104.719C167.896 104.702 167.908 104.688 167.923 104.676C167.938 104.665 167.956 104.657 167.974 104.652C167.993 104.648 168.012 104.647 168.03 104.651C168.049 104.654 168.067 104.661 168.083 104.672L168.187 104.741C168.203 104.751 168.217 104.765 168.228 104.781C168.238 104.797 168.245 104.815 168.248 104.833C168.252 104.852 168.251 104.871 168.246 104.89C168.242 104.908 168.234 104.926 168.222 104.941L167.614 105.752C167.593 105.78 167.562 105.799 167.527 105.805C167.492 105.812 167.456 105.804 167.426 105.785Z" fill="#675C4F"/>
<path d="M168.081 105.239L171.146 102.485L168.977 101.061L167.669 104.968L168.081 105.239Z" fill="#86CB4F"/>
<path d="M207.868 47.5805C207.115 48.1377 206.038 48.3825 206.038 48.3825C206.038 48.3825 207.399 48.4495 208.425 48.1103C208.803 47.9841 209.233 47.8603 209.621 47.7546C208.618 50.6731 206.909 54.1222 204.029 57.8558L203.671 58.3159C202.439 58.7365 201.152 58.9767 199.85 59.0293C199.85 59.0293 201.712 59.8517 203.361 59.8985C199.875 64.2797 194.625 69.3922 193.591 72.6032C193.323 73.439 192.631 74.8243 191.66 76.4579C190.844 76.5667 190.021 76.613 189.198 76.5964C187.923 76.5153 186.47 76.9817 186.47 76.9817L186.041 77.7865C186.963 78.0603 187.919 78.2016 188.881 78.2062C189.533 78.2146 190.705 78.4238 190.993 78.6845C190.106 80.035 188.361 81.4459 187.29 82.7956C187.001 82.8841 186.702 82.9335 186.4 82.9425C185.349 82.9579 183.059 83.645 182.279 85.6131C182.311 85.576 183.398 84.3065 184.225 84.4465C184.628 84.513 186.028 84.6639 186.751 84.4791C184.504 87.0939 181.506 88.9755 179.44 89.6792C178.954 89.8566 178.437 89.9356 177.92 89.9115C177.795 89.3727 177.699 88.8276 177.632 88.2786C177.37 86.275 176.453 82.3596 178.321 78.5347C179.589 75.9328 180.097 72.8581 181.906 70.0606C182.931 71.4357 184.908 73.7509 185.241 75.5001C185.241 75.5001 185.084 71.4124 183.691 68.4477C185.015 66.4951 185.783 64.658 186.805 63.1254C186.916 66.3971 188.394 69.906 188.453 70.1263C187.739 66.978 188.038 64.3074 188.276 62.3272C188.624 61.7597 188.756 60.8983 188.959 60.4635C189.242 59.8611 189.749 58.8802 190.451 57.6585C190.715 59.6077 191.234 63.8277 191.009 65.2736C190.714 67.1781 191.346 69.0231 191.346 69.0231L193.32 66.1648C193.32 66.1648 193.468 64.0625 192.97 60.682C192.63 58.3829 192.852 56.0075 192.892 54.4589C193.356 53.755 193.339 52.4423 193.873 51.7001C194.083 52.8162 194.657 54.6042 194.673 55.602C194.694 56.5898 194.944 57.5592 195.403 58.434C195.403 58.434 195.057 55.5576 195.062 53.4655C195.061 52.659 194.954 51.8563 194.742 51.078C196.234 49.0681 197.742 46.534 199.637 44.6722C199.786 45.4538 200.119 46.8915 200.046 47.5868C199.965 48.5058 200.08 49.4313 200.382 50.303C200.287 48.2998 200.948 47.3312 201.479 45.2186C201.635 44.6214 201.727 44.0089 201.751 43.3921C204.536 41.014 207.626 39.1779 210.878 38.573C210.878 38.573 211.445 41.7654 209.94 46.7407C209.308 46.9266 208.348 47.2258 207.868 47.5805Z" fill="#86CB4F"/>
<path d="M195.912 62.613L179.061 89.7423C178.67 89.885 178.254 89.9479 177.838 89.9274C177.737 89.494 177.659 89.0554 177.605 88.6136L195.72 62.4862C195.728 62.4738 195.739 62.4632 195.751 62.455C195.764 62.4468 195.777 62.4411 195.792 62.4382C195.807 62.4354 195.822 62.4355 195.836 62.4386C195.851 62.4416 195.865 62.4475 195.877 62.4559C195.902 62.4721 195.92 62.4977 195.927 62.5271C195.934 62.5566 195.928 62.5874 195.912 62.613Z" fill="#BBEB92"/>
<path d="M179.833 89.543C179.833 89.543 181.544 88.9318 182.732 90.2256C183.921 91.5194 185.365 90.0212 185.365 90.0212C185.365 90.0212 183.642 90.8502 183.345 89.5866C183.048 88.323 181.106 87.9234 181.106 87.9234L179.833 89.543Z" fill="#A9C5CF"/>
<path d="M177.651 88.2243C177.651 88.2243 176.367 86.8203 175.637 86.9318C174.907 87.0432 176.977 86.2511 177.819 87.3889L177.651 88.2243Z" fill="#A9C5CF"/>
<path d="M177.818 87.389C177.818 87.389 177.758 86.4894 176.624 85.7802C175.489 85.071 175.85 82.5493 175.85 82.5493C175.85 82.5493 175.758 83.9832 176.594 84.3634C177.43 84.7436 178.262 85.8303 178.262 85.8303L177.818 87.389Z" fill="#A9C5CF"/>
<defs>
<clipPath id="clip0_445_43227">
<rect width="113" height="123" fill="white" transform="translate(102 2.99976)"/>
</clipPath>
</defs>
</svg>
