<svg width="111" height="65" viewBox="0 0 111 65" fill="none" xmlns="http://www.w3.org/2000/svg">
<path d="M21.8697 30.9566C19.1125 36.0672 15.8663 40.864 12.1832 45.2704C12.141 42.7906 12.0817 41.5649 11.8699 39.1588C9.71971 39.3035 8.64771 39.3527 6.51515 39.3992C9.39084 35.9383 13.3021 30.7538 15.5538 26.8073C15.9071 27.0561 14.9878 28.6521 15.4128 28.6625L18.9421 28.6907C19.526 28.7131 20.0778 28.9742 20.4821 29.4197L21.8697 30.9566Z" fill="#D2D2FF"/>
<path d="M31.1515 48.1901C29.4304 46.8519 28.5812 46.1595 26.9083 44.744C25.4166 46.5808 24.6956 47.5479 23.3049 49.5458C22.6896 43.5229 22.6782 37.4431 23.2708 31.4086L24.4534 31.1609C25.0341 31.0406 25.6345 31.1692 26.1231 31.5186L29.0465 33.6091C29.3263 33.8098 29.6461 33.9393 29.9813 33.9877C30.3166 34.036 31.1154 31.5448 30.9803 33.8879C30.6217 38.6538 30.6791 43.4416 31.1515 48.1901Z" fill="#D2D2FF"/>
<path d="M29.413 5.6184L32.3729 11.3091L38.7517 11.9841L37.3613 18.246L41.8138 22.8633L36.7236 26.7664L37.1665 33.1655L30.7583 32.8835L26.9843 38.0702L22.2566 33.7351L16.0316 35.2825L15.1965 28.9226L9.43328 26.1066L12.8816 20.698L10.2768 14.8362L16.395 12.9095L18.1674 6.74481L24.0927 9.20151L29.413 5.6184Z" fill="#D2D2FF"/>
<path d="M27.8305 15.4911L28.2407 17.8363C28.2748 18.0415 28.3586 18.2351 28.4849 18.4003C28.6112 18.5656 28.7761 18.6974 28.9651 18.7841L31.1235 19.7797C31.3378 19.88 31.5201 20.0378 31.6499 20.2356C31.7798 20.4333 31.8521 20.6632 31.859 20.8997C31.8659 21.1362 31.807 21.3699 31.6889 21.5749C31.5707 21.7799 31.3981 21.948 31.19 22.0607L29.0898 23.1571C28.9059 23.2539 28.7482 23.3939 28.6303 23.5651C28.5124 23.7363 28.4379 23.9336 28.4132 24.14L28.1338 26.5031C28.1066 26.7409 28.0133 26.9663 27.8643 27.1536C27.7153 27.3409 27.5166 27.4826 27.291 27.5625C27.0654 27.6424 26.8219 27.6574 26.5882 27.6057C26.3545 27.554 26.1402 27.4378 25.9694 27.2702L24.2657 25.6128C24.1145 25.4696 23.931 25.3648 23.7308 25.3076C23.5305 25.2504 23.3195 25.2424 23.1155 25.2842L20.7829 25.7487C20.5481 25.7954 20.305 25.7754 20.0809 25.691C19.8569 25.6067 19.661 25.4613 19.5152 25.2714C19.3694 25.0815 19.2797 24.8546 19.2561 24.6164C19.2326 24.3782 19.2761 24.1381 19.3818 23.9234L20.4319 21.7918C20.5239 21.6047 20.569 21.398 20.5635 21.1896C20.5581 20.9812 20.5021 20.7772 20.4005 20.5952L19.2347 18.5204C19.1197 18.3117 19.0652 18.075 19.0772 17.837C19.0892 17.599 19.1671 17.369 19.3024 17.1729C19.4377 16.9767 19.625 16.8221 19.8432 16.7263C20.0615 16.6306 20.3021 16.5975 20.5381 16.6308L22.8899 16.9691C23.0956 16.9996 23.3057 16.9794 23.5019 16.9103C23.698 16.8412 23.8743 16.7252 24.0155 16.5725L25.6452 14.8271C25.8093 14.6573 26.0171 14.5361 26.2457 14.4768C26.4743 14.4176 26.7148 14.4225 26.9408 14.4912C27.1667 14.5599 27.3694 14.6895 27.5264 14.8659C27.6833 15.0423 27.7886 15.2587 27.8305 15.4911Z" fill="white"/>
<circle cx="96.6797" cy="19.2715" r="12.8488" stroke="#807BDD" stroke-width="1.65791"/>
<path d="M105.245 11.4103C107.33 13.682 108.427 16.6889 108.295 19.7695C108.163 22.8501 106.813 25.7521 104.541 27.837C102.269 29.922 99.2626 31.0191 96.182 30.8871C93.1014 30.755 90.1994 29.4046 88.1144 27.133L96.6798 19.2716L105.245 11.4103Z" fill="#E9E9FF"/>
<line x1="97.5088" y1="8.3291" x2="97.5088" y2="11.0647" stroke="#807BDD" stroke-width="1.65791"/>
<line x1="97.5088" y1="27.4785" x2="97.5088" y2="30.2141" stroke="#807BDD" stroke-width="1.65791"/>
<line x1="107.622" y1="20.1004" x2="104.887" y2="20.1004" stroke="#807BDD" stroke-width="1.65791"/>
<line x1="88.4731" y1="20.1004" x2="85.7376" y2="20.1004" stroke="#807BDD" stroke-width="1.65791"/>
<path d="M98.6893 21.2816L91.9302 24.4358L95.0844 17.6767L101.843 14.5225L98.6893 21.2816Z" fill="white" stroke="#807BDD" stroke-width="1.65791" stroke-linejoin="round"/>
<path d="M95.884 17.3037L101.844 14.5225L99.0625 20.4823L95.884 17.3037Z" fill="#807BDD" stroke="#807BDD" stroke-width="1.65791" stroke-linejoin="round"/>
<mask id="path-13-outside-1_328_11496" maskUnits="userSpaceOnUse" x="33.5221" y="22.7617" width="58" height="40" fill="black">
<rect fill="white" x="33.5221" y="22.7617" width="58" height="40"/>
<path d="M38.5221 57.7653V27.7617H86.9786V57.7653"/>
</mask>
<path d="M38.5221 57.7653V27.7617H86.9786V57.7653" fill="white"/>
<path d="M34.3773 57.7653C34.3773 60.0544 36.233 61.91 38.5221 61.91C40.8112 61.91 42.6669 60.0544 42.6669 57.7653H34.3773ZM38.5221 27.7617V23.6169C36.233 23.6169 34.3773 25.4726 34.3773 27.7617H38.5221ZM86.9786 27.7617H91.1234C91.1234 25.4726 89.2677 23.6169 86.9786 23.6169V27.7617ZM82.8338 57.7653C82.8338 60.0544 84.6895 61.91 86.9786 61.91C89.2677 61.91 91.1234 60.0544 91.1234 57.7653H82.8338ZM42.6669 57.7653V27.7617H34.3773V57.7653H42.6669ZM38.5221 31.9065H86.9786V23.6169H38.5221V31.9065ZM82.8338 27.7617V57.7653H91.1234V27.7617H82.8338Z" fill="white" mask="url(#path-13-outside-1_328_11496)"/>
<path d="M83.8868 27.6992H38.2942V57.5417H83.8868V27.6992Z" fill="#E9E9FF"/>
<path d="M38.5225 57.7653V27.7617H86.979V57.7653" stroke="#807BDD" stroke-width="1.65791" stroke-miterlimit="10" stroke-linecap="round" stroke-linejoin="round"/>
<path d="M43.2679 54.2266V31.8447H51.5575" stroke="white" stroke-width="1.65791" stroke-miterlimit="10" stroke-linecap="round" stroke-linejoin="round"/>
<circle cx="62.6926" cy="43.3115" r="9.533" fill="white" stroke="#807BDD" stroke-width="1.65791"/>
<path d="M59.7913 40.2067V46.3515C59.7913 46.81 60.3387 47.1769 60.795 46.9934L66.9096 43.9668C67.3659 43.6917 67.3659 43.0498 66.9096 42.7747L60.795 39.7481C60.3387 39.3812 59.7913 39.6564 59.7913 40.2067Z" fill="#E9E9FF"/>
<path d="M59.7913 40.2067V46.3515C59.7913 46.81 60.3387 47.1769 60.795 46.9934L66.9096 43.9668C67.3659 43.6917 67.3659 43.0498 66.9096 42.7747L60.795 39.7481C60.3387 39.3812 59.7913 39.6564 59.7913 40.2067Z" stroke="#807BDD" stroke-width="1.65791" stroke-miterlimit="10" stroke-linecap="round" stroke-linejoin="round"/>
<path d="M90.7823 57.9072V61.4706C90.7823 62.5958 90.2188 63.3459 89.3736 63.3459H36.128C35.2828 63.3459 34.7194 62.5958 34.7194 61.4706V57.9072H55.2853C55.2853 59.0324 55.8487 59.7825 56.6939 59.7825H68.6671C69.5123 59.7825 70.0757 59.0324 70.0757 57.9072H90.7823Z" fill="#E9E9FF" stroke="#807BDD" stroke-width="1.65791" stroke-miterlimit="10" stroke-linecap="round" stroke-linejoin="round"/>
</svg>
