<svg width="115" height="84" viewBox="0 0 115 84" fill="none" xmlns="http://www.w3.org/2000/svg">
<path opacity="0.2" fill-rule="evenodd" clip-rule="evenodd" d="M14.1818 44.6421C16.0497 26.2388 29.3685 33.7141 35.3797 26.2394C41.5792 18.5307 58.3962 0.849527 74.6447 11.1307C90.8933 21.4118 90.8238 43.68 106.322 44.2035C121.82 44.7269 114.89 71.5161 98.6717 54.9755C82.4538 38.4349 76.7892 84 64.7161 84C52.6431 84 55.3463 73.4715 40.2257 66.9029C25.1051 60.3342 12.314 63.0455 14.1818 44.6421Z" fill="#685FEC" fill-opacity="0.8"/>
<rect x="33.2543" y="28.6" width="43.8983" height="40.1455" rx="4" fill="white"/>
<path d="M68.8463 37.3379L77.5305 28.7917" stroke="#685FEC" stroke-width="1.5" stroke-miterlimit="10" stroke-linecap="round"/>
<path d="M77.6037 12.1812L73.455 16.264C73.4332 16.2854 73.4142 16.3069 73.3952 16.329C73.3762 16.3512 73.341 16.3788 73.3143 16.4051C71.0529 18.6306 72.9177 24.0731 77.4785 28.5621C81.9873 32.9991 87.4432 34.8426 89.7524 32.7348C89.8491 32.6942 89.9372 32.6359 90.0119 32.5632L94.1606 28.4804" stroke="#685FEC" stroke-width="1.5" stroke-miterlimit="10"/>
<path d="M92.1074 18.3835C95.1662 22.312 96.1682 26.4356 94.2732 28.3005C92.0118 30.5259 86.4813 28.6908 81.9198 24.2025C77.3583 19.7142 75.4942 14.271 77.7556 12.0456C79.683 10.1488 83.985 11.2013 88.0381 14.3333" stroke="#685FEC" stroke-width="1.5" stroke-miterlimit="10"/>
<path d="M94.2802 8.33722L84.9147 17.5546C84.7169 17.7492 84.6058 18.0132 84.6058 18.2884C84.6058 18.5637 84.7169 18.8276 84.9147 19.0223L87.2696 21.3391C87.4674 21.5337 87.7356 21.643 88.0153 21.643C88.295 21.643 88.5632 21.5337 88.761 21.3391L98.1266 12.1224" stroke="#685FEC" stroke-width="1.5" stroke-miterlimit="10"/>
<path d="M104.643 13.3898C106.181 11.8764 104.913 8.17498 101.811 5.12235C98.709 2.06972 94.9477 0.821881 93.4099 2.33523C91.8721 3.84857 93.1401 7.55003 96.2421 10.6027C99.344 13.6553 103.105 14.9031 104.643 13.3898Z" stroke="#685FEC" stroke-width="1.5" stroke-miterlimit="10"/>
<path d="M70.6746 28.8264H32.7031V62.042" fill="white"/>
<path d="M70.6746 28.8264H32.7031V62.042" stroke="#685FEC" stroke-width="1.5" stroke-miterlimit="10" stroke-linecap="round"/>
<path d="M32.7031 59.0436V63.1838C32.7031 64.808 33.3588 66.3657 34.5258 67.5142C35.6929 68.6627 37.2758 69.3079 38.9262 69.3079C40.5767 69.3079 42.1596 68.6627 43.3266 67.5142C44.4937 66.3657 45.1493 64.808 45.1493 63.1838V58.3745H84.5974V63.9796C84.5974 66.4708 82.4176 69.3079 79.0423 69.3079H39.2427" fill="white"/>
<path d="M32.7031 59.0436V63.1838C32.7031 64.808 33.3588 66.3657 34.5258 67.5142C35.6929 68.6627 37.2758 69.3079 38.9262 69.3079C40.5767 69.3079 42.1596 68.6627 43.3266 67.5142C44.4937 66.3657 45.1493 64.808 45.1493 63.1838V58.3745H84.5974V63.9796C84.5974 66.4708 82.4176 69.3079 79.0423 69.3079H39.2427" stroke="#685FEC" stroke-width="1.5" stroke-miterlimit="10" stroke-linecap="round"/>
<path d="M77.2844 58.3745V36.0923" stroke="#685FEC" stroke-width="1.5" stroke-miterlimit="10" stroke-linecap="round"/>
<path d="M59 39.5H42" stroke="#685FEC" stroke-width="1.5" stroke-linecap="round" stroke-linejoin="round"/>
<path d="M69 47.5H42" stroke="#685FEC" stroke-width="1.5" stroke-linecap="round" stroke-linejoin="round"/>
</svg>
