<svg width="88" height="81" viewBox="0 0 88 81" fill="none" xmlns="http://www.w3.org/2000/svg">
<path opacity="0.2" fill-rule="evenodd" clip-rule="evenodd" d="M24.5326 15.9991C29.7852 9.74576 28.967 -2.35557 44.7291 0.402292C60.4913 3.16015 36.172 31.596 63.4322 15.9991C90.6924 0.402292 95.0714 36.9139 77.5431 41.7849C60.0148 46.6558 78.6942 63.1154 60.0148 72.3112C41.3353 81.5069 0 73.4151 0 49.0986C0 24.7821 19.4394 22.0627 24.5326 15.9991Z" fill="#006EEF"/>
<circle cx="39.7321" cy="44.9033" r="25.441" transform="rotate(-33.0813 39.7321 44.9033)" fill="white"/>
<circle opacity="0.2" cx="39.8199" cy="43.8494" r="14.0992" transform="rotate(-33.0813 39.8199 43.8494)" fill="#1C84E2"/>
<circle opacity="0.3" cx="39.8204" cy="43.8494" r="7.04962" transform="rotate(-33.0813 39.8204 43.8494)" fill="#1C84E2"/>
<path d="M51.7995 22.521C46.8385 19.861 41.1354 18.9216 35.5833 19.8497C30.0311 20.7778 24.9435 23.521 21.1173 27.6499C17.2911 31.7788 14.9425 37.0604 14.439 42.667C13.9355 48.2736 15.3057 53.8886 18.335 58.6332C20.461 61.8954 23.3182 64.6173 26.6799 66.5822C30.0416 68.5471 33.8152 69.7009 37.7009 69.9523C40.4888 70.1454 43.2894 69.8755 45.989 69.1534C48.6118 68.4668 51.1054 67.358 53.3721 65.8706C55.9967 64.1706 58.2839 61.9996 60.1183 59.4672C61.7829 57.1851 63.047 54.6362 63.8561 51.9298C64.6962 49.1891 65.0622 46.325 64.9382 43.4611" stroke="#1C84E2" stroke-width="1.5" stroke-linecap="round" stroke-linejoin="round"/>
<path d="M46.7218 40.6136C47.3539 41.5813 47.7663 42.6757 47.9304 43.8198C48.0944 44.964 48.006 46.1302 47.6714 47.2366C47.4223 48.0893 47.0284 48.8928 46.507 49.612C45.7492 50.6573 44.7489 51.503 43.5919 52.076C42.4349 52.649 41.1559 52.9322 39.8652 52.9015C38.5744 52.8708 37.3106 52.527 36.1822 51.8996C35.0538 51.2722 34.0946 50.3802 33.3873 49.3001C32.776 48.4252 32.347 47.4364 32.1255 46.3923C31.904 45.3483 31.8945 44.2703 32.0979 43.2226C32.3013 42.1749 32.7134 41.1789 33.3095 40.2936C33.9056 39.4083 34.6735 38.6518 35.5678 38.0692C36.4621 37.4867 37.4644 37.09 38.5151 36.9025C39.5658 36.7151 40.6433 36.7407 41.6839 36.978C42.7244 37.2154 43.7068 37.6597 44.5722 38.2842C45.4377 38.9088 46.1687 39.7009 46.7218 40.6136V40.6136Z" stroke="#1C84E2" stroke-width="1.5" stroke-linecap="round" stroke-linejoin="round"/>
<path d="M40.3446 45.0393L68.5718 26.6514" stroke="#1C84E2" stroke-width="1.5" stroke-linecap="round" stroke-linejoin="round"/>
<path d="M64.7867 20.8408L57.7422 25.4297L58.7289 32.3098L65.7733 27.7209L64.7867 20.8408Z" stroke="#1C84E2" stroke-width="1.5" stroke-linecap="round" stroke-linejoin="round"/>
<path d="M58.7288 32.3099L65.7733 27.721L71.6677 31.404L64.6233 35.993L58.7288 32.3099Z" stroke="#1C84E2" stroke-width="1.5" stroke-linecap="round" stroke-linejoin="round"/>
<path d="M49.4493 31.0627C47.2986 29.5132 44.8181 28.4835 42.2023 28.054C39.5866 27.6246 36.9068 27.8071 34.3736 28.5876C31.8403 29.368 29.5228 30.7253 27.6022 32.5523C25.6817 34.3793 24.2106 36.6265 23.3048 39.1177C22.399 41.6089 22.0832 44.2763 22.3817 46.9102C22.6802 49.544 23.5849 52.0729 25.0252 54.2982C26.4656 56.5234 28.4022 58.3845 30.6829 59.7354C32.9636 61.0864 35.5264 61.8903 38.17 62.084C42.0582 62.3819 45.9307 61.3367 49.141 59.123C52.3512 56.9093 54.7048 53.6612 55.8084 49.9211C56.5799 47.3485 56.7325 44.6298 56.2542 41.9869" stroke="#1C84E2" stroke-width="1.5" stroke-linecap="round" stroke-linejoin="round"/>
</svg>
