<svg width="232" height="153" viewBox="0 0 232 153" fill="none" xmlns="http://www.w3.org/2000/svg">
<circle cx="116" cy="79" r="70" fill="#C7F0FF"/>
<path d="M77.0912 61.4169L60.0558 68.8318L117.848 78.0081L134.163 70.4096L77.0912 61.4169Z" fill="#89D7AD"/>
<path d="M117.572 113.403L60.0558 104.446L60.0558 69.1595L117.572 78.1159L117.572 113.403Z" fill="#5EC8A2"/>
<path d="M134.163 105.911L117.572 113.403L117.572 77.7573L134.163 70.2656L134.163 105.911Z" fill="#21A787"/>
<path d="M53.4285 73.5838C53.1328 73.5838 52.8491 73.4834 52.64 73.3048C52.4309 73.1262 52.3133 72.8839 52.3133 72.6313L52.3133 70.112C52.3133 69.8594 52.4309 69.6171 52.64 69.4385C52.8491 69.2599 53.1328 69.1595 53.4285 69.1595C53.5741 69.1595 53.7184 69.1842 53.8527 69.2322C53.987 69.2803 54.1089 69.3506 54.211 69.4392C54.3131 69.5279 54.3931 69.6335 54.4472 69.749C54.5012 69.8644 54.5277 69.9877 54.5253 70.112L54.5253 72.6313C54.5277 72.7556 54.5012 72.8788 54.4472 72.9943C54.3931 73.1097 54.3131 73.2146 54.211 73.3033C54.1089 73.3919 53.987 73.463 53.8527 73.511C53.7184 73.5591 53.5741 73.5838 53.4285 73.5838Z" fill="#145D93"/>
<path d="M53.4285 99.0236C53.1328 99.0236 52.8491 98.9355 52.64 98.7788C52.4309 98.6222 52.3133 98.4096 52.3133 98.1881L52.3133 93.8765C52.3133 93.7674 52.3423 93.6593 52.3985 93.5587C52.4548 93.4581 52.5371 93.3675 52.6409 93.291C52.7446 93.2145 52.8684 93.1539 53.0035 93.1134C53.1387 93.0729 53.283 93.053 53.4285 93.0548C53.7195 93.0548 53.9982 93.1415 54.2039 93.2956C54.4097 93.4497 54.5253 93.6585 54.5253 93.8765L54.5253 98.1881C54.5277 98.2971 54.5012 98.4052 54.4472 98.5065C54.3931 98.6078 54.3131 98.7004 54.211 98.7782C54.1089 98.8559 53.987 98.9176 53.8527 98.9597C53.7184 99.0019 53.5741 99.0236 53.4285 99.0236ZM53.4285 90.4004C53.1328 90.4004 52.8491 90.313 52.64 90.1563C52.4309 89.9997 52.3133 89.7871 52.3133 89.5656L52.3133 85.254C52.3133 85.0324 52.4309 84.8199 52.64 84.6632C52.8491 84.5066 53.1328 84.4185 53.4285 84.4185C53.5741 84.4185 53.7184 84.4402 53.8527 84.4823C53.987 84.5244 54.1089 84.5861 54.211 84.6639C54.3131 84.7416 54.3931 84.8343 54.4472 84.9356C54.5012 85.0368 54.5277 85.1449 54.5253 85.254L54.5253 89.5656C54.5253 89.7835 54.4097 89.9923 54.2039 90.1464C53.9982 90.3006 53.7195 90.3872 53.4285 90.3872L53.4285 90.4004ZM53.4285 81.7647C53.283 81.7665 53.1387 81.7466 53.0035 81.7061C52.8684 81.6656 52.7446 81.605 52.6409 81.5285C52.5371 81.452 52.4548 81.3607 52.3985 81.2601C52.3423 81.1595 52.3133 81.0521 52.3133 80.943L52.3133 76.6314C52.3133 76.4099 52.4309 76.1973 52.64 76.0407C52.8491 75.884 53.1328 75.796 53.4285 75.796C53.5741 75.7959 53.7184 75.8176 53.8527 75.8598C53.987 75.9019 54.1089 75.9636 54.211 76.0413C54.3131 76.1191 54.3931 76.2118 54.4472 76.313C54.5012 76.4143 54.5277 76.5224 54.5253 76.6314L54.5253 80.943C54.5253 81.161 54.4097 81.3698 54.2039 81.5239C53.9982 81.678 53.7195 81.7647 53.4285 81.7647Z" fill="#145D93"/>
<path d="M53.4285 104.554C53.1328 104.554 52.8491 104.479 52.64 104.345C52.4309 104.211 52.3133 104.029 52.3133 103.84L52.3133 101.95C52.3133 101.761 52.4309 101.579 52.64 101.445C52.8491 101.311 53.1328 101.236 53.4285 101.236C53.5741 101.236 53.7184 101.254 53.8527 101.29C53.987 101.326 54.1089 101.379 54.211 101.446C54.3131 101.512 54.3931 101.591 54.4472 101.678C54.5012 101.765 54.5277 101.857 54.5253 101.95L54.5253 103.84C54.5277 103.933 54.5012 104.026 54.4472 104.112C54.3931 104.199 54.3131 104.278 54.211 104.344C54.1089 104.411 53.987 104.463 53.8527 104.499C53.7184 104.535 53.5741 104.554 53.4285 104.554Z" fill="#145D93"/>
<path d="M54.2438 65.8407C54.0556 65.8482 53.8712 65.7873 53.7231 65.6694C53.5749 65.5515 53.4729 65.3839 53.4354 65.1968C53.3978 65.0097 53.427 64.8154 53.5179 64.6483C53.6089 64.4811 53.7559 64.3521 53.932 64.2845L57.8339 62.5834C57.9326 62.5327 58.0403 62.5031 58.1508 62.4965C58.2613 62.4899 58.372 62.5068 58.4759 62.5454C58.5798 62.5841 58.6747 62.6438 58.7547 62.7212C58.8348 62.7987 58.8985 62.8921 58.9414 62.9955C58.9844 63.0989 59.0056 63.2104 59.0043 63.3226C59.003 63.4348 58.9792 63.5454 58.9338 63.6477C58.8885 63.7501 58.8226 63.842 58.7408 63.9175C58.6589 63.993 58.5629 64.0507 58.4582 64.0868L54.5563 65.7743C54.4569 65.815 54.3509 65.8378 54.2438 65.8407ZM62.113 62.4514C61.9328 62.4441 61.7601 62.3755 61.6227 62.257C61.4854 62.1385 61.3913 61.9771 61.3554 61.7979C61.3194 61.6187 61.3438 61.4322 61.4246 61.2687C61.5053 61.1052 61.6375 60.9741 61.8005 60.8959L65.7024 59.2077C65.7989 59.1662 65.9031 59.1443 66.0079 59.1433C66.1127 59.1424 66.2168 59.1621 66.314 59.2019C66.4112 59.2417 66.4996 59.3006 66.5744 59.3751C66.6492 59.4496 66.7087 59.5387 66.7497 59.6365C66.7907 59.7344 66.8122 59.8393 66.8132 59.9456C66.8141 60.0519 66.7946 60.1573 66.7554 60.2559C66.7161 60.3545 66.658 60.4441 66.5846 60.5199C66.5111 60.5957 66.4232 60.656 66.3267 60.6976L62.4248 62.3986C62.3251 62.4363 62.2194 62.4543 62.113 62.4514ZM69.9949 59.0757C69.8364 59.0753 69.6816 59.0277 69.5497 58.9386C69.4179 58.8495 69.3145 58.723 69.2531 58.5748C69.1744 58.3751 69.1756 58.1521 69.2557 57.9529C69.3357 57.7537 69.4884 57.5937 69.6824 57.5067L73.3246 55.9511C73.5195 55.8672 73.7392 55.865 73.9355 55.9453C74.1319 56.0257 74.2884 56.1817 74.3712 56.3793C74.454 56.5769 74.4562 56.7996 74.3769 56.9987C74.2976 57.1978 74.1438 57.3571 73.9489 57.441L70.3067 59.0101C70.2074 59.0508 70.102 59.0728 69.9949 59.0757Z" fill="#145D93"/>
<path d="M47.1293 90.1749C47.0266 90.1754 46.9243 90.1554 46.8292 90.1166C46.7342 90.0778 46.6482 90.0206 46.5753 89.9484L42.5831 85.9631C42.4393 85.8173 42.3586 85.6208 42.3586 85.4162C42.3586 85.2115 42.4393 85.015 42.5831 84.8692C42.7312 84.7248 42.93 84.6445 43.137 84.6445C43.3441 84.6445 43.5435 84.7248 43.6916 84.8692L47.6703 88.8551C47.7754 88.9639 47.8466 89.1007 47.8751 89.2492C47.9036 89.3977 47.8882 89.5513 47.8308 89.6912C47.7734 89.8311 47.6763 89.9515 47.5517 90.0374C47.4271 90.1233 47.2806 90.1709 47.1293 90.1749Z" fill="#145D93"/>
<path d="M43.1392 90.1749C42.9851 90.1733 42.835 90.1267 42.7072 90.0408C42.5793 89.9549 42.4795 89.8333 42.42 89.6914C42.3604 89.5494 42.3438 89.3932 42.3721 89.2419C42.4004 89.0907 42.4722 88.9512 42.5791 88.8403L46.6156 84.8099C46.7674 84.6921 46.957 84.6341 47.149 84.6461C47.3409 84.658 47.5221 84.7393 47.6581 84.8751C47.7941 85.0109 47.8755 85.1918 47.8875 85.3835C47.8995 85.5752 47.8408 85.7644 47.7228 85.9161L43.7 89.9459C43.6263 90.0189 43.5387 90.0767 43.4426 90.1159C43.3465 90.1552 43.2431 90.1754 43.1392 90.1749Z" fill="#145D93"/>
<path d="M59.3255 53.6744C59.1331 53.6736 58.9486 53.5969 58.813 53.4604L56.919 51.5787C56.7959 51.4371 56.7311 51.254 56.7381 51.0665C56.7452 50.8789 56.8234 50.7012 56.9568 50.5693C57.0903 50.4374 57.2695 50.3614 57.4571 50.3565C57.6447 50.3515 57.827 50.4178 57.9672 50.5425L59.8496 52.4242C59.9496 52.5281 60.0167 52.6587 60.0433 52.8005C60.0698 52.9422 60.0542 53.0885 59.9985 53.2215C59.9427 53.3544 59.8494 53.4683 59.7297 53.5488C59.6101 53.6293 59.4697 53.6729 59.3255 53.6744Z" fill="#145D93"/>
<path d="M58.8052 56.9925C58.5503 56.9925 58.3054 56.9109 58.1252 56.7658C57.945 56.6207 57.8437 56.4236 57.8437 56.2184L57.8437 53.1368C57.8434 53.0352 57.8688 52.9344 57.9175 52.8407C57.9662 52.7471 58.0375 52.6622 58.1275 52.5912L60.6166 50.5871C60.706 50.5139 60.8127 50.4559 60.9304 50.4162C61.048 50.3765 61.1743 50.3561 61.3019 50.3561C61.4295 50.3561 61.5558 50.3765 61.6734 50.4162C61.7911 50.4559 61.8978 50.5139 61.9872 50.5871C62.1671 50.7342 62.268 50.9325 62.268 51.1389C62.268 51.3454 62.1671 51.5436 61.9872 51.6907L59.7812 53.4662L59.7812 56.2184C59.7813 56.3211 59.7559 56.4228 59.7066 56.5175C59.6574 56.6122 59.5852 56.6982 59.4943 56.7702C59.4034 56.8422 59.2959 56.8986 59.1774 56.9368C59.059 56.9749 58.9327 56.9942 58.8052 56.9925Z" fill="#145D93"/>
<path d="M86.2031 118.933L47.1815 118.933C45.7394 118.933 44.5708 120.084 44.5708 121.505L44.5708 132.953C44.5708 134.373 45.7394 135.524 47.1815 135.524L86.2031 135.524C87.6451 135.524 88.8138 134.373 88.8138 132.953L88.8138 121.505C88.8138 120.084 87.6451 118.933 86.2031 118.933Z" fill="#E8F9FF"/>
<path d="M142.612 118.933L103.592 118.933C102.15 118.933 100.981 120.084 100.981 121.505L100.981 132.953C100.981 134.373 102.15 135.524 103.592 135.524L142.612 135.524C144.054 135.524 145.224 134.373 145.224 132.953L145.224 121.505C145.224 120.084 144.054 118.933 142.612 118.933Z" fill="#E8F9FF"/>
<path d="M53.5991 129.981C53.4759 129.982 53.3541 129.962 53.2401 129.923C53.1261 129.884 53.0223 129.827 52.9349 129.755L48.164 125.782C48.0768 125.711 48.0078 125.626 47.9605 125.532C47.9132 125.438 47.889 125.337 47.889 125.236C47.889 125.134 47.9132 125.033 47.9605 124.939C48.0078 124.845 48.0768 124.76 48.164 124.689C48.3416 124.544 48.5799 124.463 48.8282 124.463C49.0764 124.463 49.3147 124.544 49.4923 124.689L54.2633 128.674C54.3893 128.783 54.4746 128.919 54.5088 129.068C54.5429 129.216 54.5245 129.37 54.4557 129.51C54.3869 129.65 54.2704 129.77 54.121 129.856C53.9716 129.942 53.7953 129.99 53.6138 129.994L53.5991 129.981Z" fill="#145D93"/>
<path d="M48.8346 129.994C48.7107 129.994 48.5874 129.974 48.4727 129.935C48.358 129.896 48.2543 129.838 48.1664 129.766C48.0787 129.694 48.0085 129.608 47.9609 129.514C47.9134 129.419 47.889 129.318 47.889 129.215C47.889 129.113 47.9134 129.012 47.9609 128.917C48.0085 128.823 48.0787 128.737 48.1664 128.665L52.9655 124.655C53.1461 124.525 53.3797 124.456 53.6189 124.464C53.858 124.471 54.0847 124.554 54.253 124.696C54.4212 124.838 54.5188 125.027 54.5251 125.227C54.5314 125.426 54.4461 125.619 54.2871 125.768L49.4872 129.766C49.3116 129.907 49.0789 129.989 48.8346 129.994Z" fill="#145D93"/>
<path d="M106.893 127.782C106.797 127.782 106.701 127.757 106.612 127.709C106.523 127.66 106.443 127.589 106.374 127.499L104.509 125.017C104.374 124.835 104.299 124.589 104.299 124.334C104.299 124.078 104.374 123.833 104.509 123.651C104.575 123.558 104.655 123.484 104.743 123.434C104.831 123.384 104.927 123.357 105.023 123.357C105.119 123.357 105.213 123.384 105.302 123.434C105.39 123.484 105.47 123.558 105.536 123.651L107.413 126.132C107.512 126.269 107.578 126.442 107.605 126.629C107.631 126.816 107.615 127.009 107.56 127.184C107.505 127.359 107.413 127.51 107.294 127.616C107.175 127.722 107.036 127.78 106.893 127.782Z" fill="#145D93"/>
<path d="M107.241 129.994C107.146 129.995 107.051 129.976 106.962 129.938C106.874 129.9 106.793 129.842 106.725 129.77C106.658 129.698 106.604 129.612 106.567 129.516C106.53 129.421 106.511 129.319 106.511 129.216L106.511 126.167C106.514 125.957 106.59 125.757 106.723 125.605L108.595 123.59C108.662 123.516 108.742 123.458 108.83 123.418C108.917 123.378 109.012 123.357 109.107 123.357C109.203 123.357 109.297 123.378 109.385 123.418C109.473 123.458 109.553 123.516 109.619 123.59C109.754 123.738 109.829 123.937 109.829 124.145C109.829 124.352 109.754 124.552 109.619 124.7L107.971 126.485L107.971 129.254C107.962 129.455 107.88 129.646 107.744 129.784C107.608 129.922 107.428 129.997 107.241 129.994Z" fill="#145D93"/>
<path d="M154.617 124.221C154.617 124.221 155.716 115.619 157.12 114.26L189.727 84.883L193.212 89.2567L154.617 124.221Z" fill="#FFCD44"/>
<path d="M197.12 80.1018L200.428 81.5139L205.639 69.3056C206.048 68.3464 205.563 67.3143 204.692 66.9427C203.734 66.534 202.703 67.0215 202.331 67.8935L197.12 80.1018Z" fill="#FFCD44"/>
<path d="M193.774 92.2795C197.716 93.9623 202.278 92.1252 203.964 88.1764C205.65 84.2275 203.82 79.6621 199.878 77.9793C195.936 76.2965 191.373 78.1336 189.688 82.0825C188.002 86.0313 189.831 90.5967 193.774 92.2795Z" fill="#FFA447"/>
<path d="M195.411 88.4436C197.238 89.2235 199.353 88.3721 200.134 86.542C200.915 84.7119 200.067 82.5961 198.24 81.8163C196.413 81.0364 194.299 81.8878 193.518 83.7178C192.737 85.5479 193.584 87.6637 195.411 88.4436Z" fill="white"/>
<path d="M199.758 142.15C199.758 142.15 202.985 135.796 202.995 133.842L201.653 89.9735L194.791 90.1369L196.133 134.005C196.123 135.959 199.758 142.15 199.758 142.15Z" fill="#FFA447"/>
<path d="M175.239 92.3055L166.665 97.2018C166.715 97.3262 167.861 99.4645 167.91 99.5888C175.729 114.059 193.784 119.498 208.335 111.69C208.459 111.64 208.583 111.59 208.707 111.54C208.707 111.54 204.661 104.143 204.537 104.193C184.503 111.104 175.289 92.4298 175.239 92.3055Z" fill="#10BEFD"/>
<path d="M168.508 100.36L168.035 99.5394C168.445 99.3021 168.731 99.1148 168.929 98.8904C169.215 98.7031 169.501 98.5158 169.948 98.1913L170.421 99.0118C170.011 99.2491 169.725 99.4364 169.527 99.6608C169.328 99.8853 169.042 100.073 168.508 100.36Z" fill="white"/>
<path d="M170.512 103.38L170.001 102.647C170.449 102.323 170.735 102.135 171.02 101.948C171.306 101.761 171.592 101.574 172.039 101.249L172.637 102.019C172.189 102.344 171.903 102.531 171.618 102.719C171.245 102.869 170.959 103.056 170.512 103.38Z" fill="white"/>
<path d="M172.839 106.126L172.204 105.443C172.565 105.081 172.888 104.807 173.248 104.445C173.571 104.171 173.931 103.809 174.291 103.447L174.926 104.13C174.566 104.492 174.205 104.854 173.882 105.128C173.646 105.44 173.286 105.802 172.839 106.126Z" fill="white"/>
<path d="M175.613 108.548L174.854 107.914C175.215 107.553 175.525 107.067 175.885 106.705C176.245 106.343 176.519 105.944 176.879 105.583L177.638 106.216C177.278 106.578 177.004 106.976 176.607 107.425C176.247 107.787 175.886 108.149 175.613 108.548Z" fill="white"/>
<path d="M178.536 110.619L177.74 110.073L179.329 107.556L180.125 108.102L178.536 110.619Z" fill="white"/>
<path d="M181.695 112.38L180.824 112.008C181.048 111.485 181.321 111.086 181.544 110.563C181.73 110.127 182.004 109.728 182.227 109.205L183.097 109.576C182.874 110.1 182.601 110.498 182.415 110.934C182.191 111.458 181.918 111.856 181.695 112.38Z" fill="white"/>
<path d="M184.17 113.333L185.001 110.904L185.908 111.188L185.077 113.617L184.17 113.333Z" fill="white"/>
<path d="M187.664 114.309C187.8 113.749 187.899 113.275 187.998 112.802C188.097 112.329 188.283 111.893 188.295 111.383L189.24 111.58C189.104 112.14 189.005 112.614 188.943 112.999C188.844 113.473 188.658 113.909 188.646 114.419L187.664 114.309Z" fill="white"/>
<path d="M191.219 114.899C191.231 114.389 191.243 113.879 191.342 113.405C191.354 112.895 191.404 112.298 191.416 111.787L192.311 111.86C192.299 112.37 192.25 112.968 192.238 113.478C192.226 113.989 192.214 114.499 192.202 115.009L191.219 114.899Z" fill="white"/>
<path d="M194.874 115.016C194.799 114.468 194.861 114.083 194.873 113.572C194.848 113.149 194.873 112.85 194.797 112.303L195.73 112.288C195.718 112.799 195.78 113.135 195.806 113.558C195.831 113.981 195.856 114.404 195.844 114.914L194.874 115.016Z" fill="white"/>
<path d="M198.504 114.71C198.429 114.162 198.317 113.702 198.291 113.279C198.179 112.819 198.067 112.358 197.992 111.811L198.874 111.672C198.949 112.22 199.062 112.68 199.174 113.14C199.286 113.601 199.399 114.061 199.474 114.608L198.504 114.71Z" fill="white"/>
<path d="M205.339 112.68C205.314 112.257 205.165 111.883 205.052 111.423C204.903 111.05 204.753 110.677 204.678 110.13L205.598 109.904C205.71 110.364 205.86 110.737 205.922 111.073C206.122 111.57 206.234 112.031 206.309 112.578L205.339 112.68Z" fill="white"/>
<rect x="107" y="14" width="83" height="65" rx="5" fill="#E8F9FF"/>
<path d="M128.078 20.5402V68.9105" stroke="#B0E3F7" stroke-linecap="square"/>
<path d="M137.854 20.5402V68.9105" stroke="#B0E3F7" stroke-linecap="square"/>
<path d="M148.778 20.5402V68.9105" stroke="#B0E3F7" stroke-linecap="square"/>
<path d="M161.426 21.1545V68.2966" stroke="#B0E3F7" stroke-linecap="square"/>
<path d="M171.779 21.1545V68.2966" stroke="#B0E3F7" stroke-linecap="square"/>
<path d="M181 27.4747H116.548" stroke="#B0E3F7" stroke-linecap="square"/>
<path d="M181 37.8279H116.548" stroke="#B0E3F7" stroke-linecap="square"/>
<path d="M181 48.7515H116.548" stroke="#B0E3F7" stroke-linecap="square"/>
<path d="M181 59.6746H116.548" stroke="#B0E3F7" stroke-linecap="square"/>
<path d="M116 20V70.5981H180.4" stroke="#1E8AC7"/>
<path d="M171.527 58.2763L171.779 59.7564L172.704 66.624L175.79 58.8534L176.856 59.2751L172.963 69.0885L172.586 70.0356L171.972 69.2218L165.607 60.7996L166.525 60.104L171.565 66.7646L170.64 59.9118C162.847 12.163 137.951 12.4219 129.529 58.4981L129.277 59.9042L128.301 66.7646L133.385 60.104L134.295 60.7996L127.879 69.1774L127.257 69.9915L126.887 69.0368L123.061 59.2014L124.127 58.7869L127.161 66.5723L128.138 59.6971C136.441 11.4821 163.143 10.2093 171.527 58.2763Z" fill="#FFA447"/>
<path fill-rule="evenodd" clip-rule="evenodd" d="M43.0527 45L38.8836 45C33.9773 45 30 41.0111 30 36.0904L30 31.9092C30 26.9889 33.9773 23 38.8836 23L43.0527 23C47.959 23 51.9363 26.9889 51.9363 31.9092L51.9363 36.0904C51.9363 41.0111 47.959 45 43.0527 45Z" fill="#7C53D8"/>
<path fill-rule="evenodd" clip-rule="evenodd" d="M46.9508 37.9239L43.0383 34.0001L46.9508 30.0766L44.881 28.0001L40.9682 31.9239L37.0557 28.0001L34.9855 30.0762L38.8984 34.0001L34.9855 37.9239L37.0557 40.0001L40.9682 36.0766L44.881 40.0001L46.9508 37.9239Z" fill="white"/>
<path fill-rule="evenodd" clip-rule="evenodd" d="M72.2393 32L67.6913 32C62.3389 32 58.0001 27.8301 58.0001 22.6857L58.0001 18.3143C58.0001 13.1703 62.3389 9 67.6913 9L72.2393 9C77.5917 9 81.9306 13.1703 81.9306 18.3143L81.9306 22.6857C81.9306 27.8301 77.5917 32 72.2393 32Z" fill="#50ADE1"/>
<path fill-rule="evenodd" clip-rule="evenodd" d="M61.9885 22.8249L77.9131 22.8249L77.9131 19.4946L61.9885 19.4946L61.9885 22.8249Z" fill="white"/>
<path fill-rule="evenodd" clip-rule="evenodd" d="M71.9155 16.1091C71.9155 17.2737 71.0363 18.2177 69.9514 18.2177C68.8657 18.2177 67.9865 17.2737 67.9865 16.1091C67.9865 14.944 68.8657 14 69.9514 14C71.0363 14 71.9155 14.944 71.9155 16.1091Z" fill="white"/>
<path fill-rule="evenodd" clip-rule="evenodd" d="M71.9155 26.3217C71.9155 27.4864 71.0363 28.4307 69.9514 28.4307C68.8657 28.4307 67.9865 27.4864 67.9865 26.3217C67.9865 25.157 68.8657 24.2126 69.9514 24.2126C71.0363 24.2126 71.9155 25.157 71.9155 26.3217Z" fill="white"/>
</svg>
